InterAlia-BoldItalic.ufo
<glyph name="exclam" format="2">
  <advance height="2479.0" width="664.2"/>
  <unicode hex="0021"/>
  <outline>
    <contour>
      <point x="646.5999999999999" y="1489.0" type="line"/>
      <point x="324.4" y="1489.0" type="line"/>
      <point x="180.6" y="446.6" type="line"/>
      <point x="445.6" y="446.6" type="line"/>
    </contour>
    <component base="period" xOffset="29.4"/>
  </outline>
</glyph>
<glyph name="numbersign" format="2">
  <advance height="2479.0" width="1330.4"/>
  <unicode hex="0023"/>
  <outline>
    <contour>
      <point x="705.4" y="0.0" type="line"/>
      <point x="938.4" y="0.0" type="line"/>
      <point x="1209.0" y="1489.0" type="line"/>
      <point x="976.4" y="1489.0" type="line"/>
    </contour>
    <contour>
      <point x="45.0" y="369.2" type="line"/>
      <point x="1208.2" y="369.2" type="line"/>
      <point x="1252.1999999999998" y="602.2" type="line"/>
      <point x="88.39999999999999" y="602.2" type="line"/>
    </contour>
    <contour>
      <point x="182.4" y="0.0" type="line"/>
      <point x="415.0" y="0.0" type="line"/>
      <point x="685.4" y="1489.0" type="line"/>
      <point x="452.4" y="1489.0" type="line"/>
    </contour>
    <contour>
      <point x="139.8" y="887.2" type="line"/>
      <point x="1303.6000000000001" y="887.2" type="line"/>
      <point x="1346.4" y="1119.8" type="line"/>
      <point x="182.6" y="1119.8" type="line"/>
    </contour>
  </outline>
</glyph>
<glyph name="percent" format="2">
  <advance height="2479.0" width="1760.0"/>
  <unicode hex="0025"/>
  <anchor x="1172.8000000000002" y="791.0" name="dnom"/>
  <anchor x="642.8000000000001" y="698.0" name="numr"/>
  <outline>
    <contour>
      <point x="889.8" y="279.0" type="line" smooth="yes"/>
      <point x="856.8" y="101.4"/>
      <point x="949.6" y="-51.8"/>
      <point x="1162.6000000000001" y="-51.8" type="curve" smooth="yes"/>
      <point x="1374.1999999999998" y="-51.8"/>
      <point x="1512.6" y="101.4"/>
      <point x="1545.6" y="279.0" type="curve" smooth="yes"/>
      <point x="1559.6" y="358.0" type="line" smooth="yes"/>
      <point x="1593.1999999999998" y="537.4"/>
      <point x="1501.0" y="688.8"/>
      <point x="1286.2" y="688.8" type="curve" smooth="yes"/>
      <point x="1076.8" y="688.8"/>
      <point x="936.8" y="535.6"/>
      <point x="903.8" y="358.0" type="curve" smooth="yes"/>
    </contour>
    <contour>
      <point x="1115.2" y="358.0" type="line" smooth="yes"/>
      <point x="1128.6000000000001" y="428.8"/>
      <point x="1169.0" y="502.6"/>
      <point x="1255.6000000000001" y="502.6" type="curve" smooth="yes"/>
      <point x="1347.4" y="502.6"/>
      <point x="1360.2" y="428.8"/>
      <point x="1346.8" y="358.0" type="curve" smooth="yes"/>
      <point x="1332.3999999999999" y="279.0" type="line" smooth="yes"/>
      <point x="1319.3999999999999" y="208.79999999999998"/>
      <point x="1282.0" y="136.2"/>
      <point x="1193.2" y="136.2" type="curve" smooth="yes"/>
      <point x="1105.0" y="136.2"/>
      <point x="1088.4" y="210.6"/>
      <point x="1100.8" y="279.0" type="curve" smooth="yes"/>
    </contour>
    <contour>
      <point x="268.0" y="1132.0" type="line" smooth="yes"/>
      <point x="241.0" y="952.4"/>
      <point x="327.8" y="802.6"/>
      <point x="540.2" y="802.6" type="curve" smooth="yes"/>
      <point x="752.0" y="802.6"/>
      <point x="896.8" y="951.2"/>
      <point x="923.8" y="1132.0" type="curve" smooth="yes"/>
      <point x="934.8" y="1210.0" type="line" smooth="yes"/>
      <point x="961.8" y="1391.0"/>
      <point x="876.1999999999999" y="1541.2"/>
      <point x="661.4" y="1541.2" type="curve" smooth="yes"/>
      <point x="453.4" y="1541.2"/>
      <point x="306.0" y="1391.0"/>
      <point x="279.0" y="1210.0" type="curve" smooth="yes"/>
    </contour>
    <contour>
      <point x="492.2" y="1210.0" type="line" smooth="yes"/>
      <point x="502.2" y="1279.0"/>
      <point x="543.8000000000001" y="1355.0"/>
      <point x="630.8000000000001" y="1355.0" type="curve" smooth="yes"/>
      <point x="722.6" y="1355.0"/>
      <point x="732.6" y="1280.8"/>
      <point x="722.0" y="1210.0" type="curve" smooth="yes"/>
      <point x="710.6" y="1132.0" type="line" smooth="yes"/>
      <point x="699.6" y="1060.2"/>
      <point x="659.8" y="988.2"/>
      <point x="571.0" y="988.2" type="curve" smooth="yes"/>
      <point x="485.0" y="988.2"/>
      <point x="469.8" y="1060.2"/>
      <point x="480.8" y="1132.0" type="curve" smooth="yes"/>
    </contour>
    <component base="fraction" xOffset="598.0"/>
  </outline>
</glyph>
<glyph name="ampersand" format="2">
  <advance height="2479.0" width="1407.6000000000001"/>
  <unicode hex="0026"/>
  <outline>
    <contour>
      <point x="483.79999999999995" y="-21.8" type="curve"/>
      <point x="616.2" y="-21.8"/>
      <point x="767.8" y="16.400000000000002"/>
      <point x="891.4" y="104.6" type="curve"/>
      <point x="922.8000000000001" y="122.8"/>
      <point x="954.6" y="139.0"/>
      <point x="986.6" y="157.2" type="curve"/>
      <point x="1142.4" y="262.0"/>
      <point x="1268.0" y="452.8"/>
      <point x="1311.6" y="727.0" type="curve"/>
      <point x="1055.4" y="727.0" type="line"/>
      <point x="1006.6000000000001" y="429.8"/>
      <point x="749.4000000000001" y="227.0"/>
      <point x="541.0" y="227.0" type="curve" smooth="yes"/>
      <point x="410.8" y="227.0"/>
      <point x="341.2" y="306.4"/>
      <point x="357.0" y="413.4" type="curve"/>
      <point x="366.59999999999997" y="469.6"/>
      <point x="417.2" y="535.2"/>
      <point x="507.80000000000007" y="594.4" type="curve" smooth="yes"/>
      <point x="848.8" y="814.2" type="line" smooth="yes"/>
      <point x="989.0" y="904.6"/>
      <point x="1080.6000000000001" y="1017.0"/>
      <point x="1103.6000000000001" y="1158.2" type="curve"/>
      <point x="1136.2" y="1348.2"/>
      <point x="1014.2" y="1509.4"/>
      <point x="774.0" y="1509.4" type="curve" smooth="yes"/>
      <point x="530.2" y="1509.4"/>
      <point x="342.0" y="1343.0"/>
      <point x="305.8" y="1126.8" type="curve" smooth="yes"/>
      <point x="273.6" y="934.4"/>
      <point x="383.8" y="789.0"/>
      <point x="478.59999999999997" y="656.4" type="curve" smooth="yes"/>
      <point x="957.4" y="0.0" type="line"/>
      <point x="1280.8" y="0.0" type="line"/>
      <point x="709.2" y="810.4" type="line" smooth="yes"/>
      <point x="628.4" y="934.4"/>
      <point x="554.6" y="1027.8"/>
      <point x="568.0" y="1122.0" type="curve" smooth="yes"/>
      <point x="579.2" y="1198.2"/>
      <point x="649.6" y="1260.0"/>
      <point x="734.4" y="1260.0" type="curve" smooth="yes"/>
      <point x="823.2" y="1260.0"/>
      <point x="862.6" y="1198.4"/>
      <point x="852.2" y="1140.2" type="curve"/>
      <point x="840.8000000000001" y="1079.0"/>
      <point x="799.6" y="1026.4"/>
      <point x="717.4" y="978.2" type="curve"/>
      <point x="397.8" y="788.8" type="line"/>
      <point x="213.6" y="675.8"/>
      <point x="83.0" y="571.2"/>
      <point x="55.2" y="396.0" type="curve"/>
      <point x="16.6" y="161.2"/>
      <point x="174.8" y="-21.8"/>
    </contour>
  </outline>
</glyph>
<glyph name="quotesingle" format="2">
  <advance height="2479.0" width="506.4"/>
  <unicode hex="0027"/>
  <outline>
    <contour>
      <point x="547.6" y="1489.0" type="line"/>
      <point x="266.8" y="1489.0" type="line"/>
      <point x="208.8" y="923.0" type="line"/>
      <point x="419.6" y="923.0" type="line"/>
    </contour>
  </outline>
</glyph>
<glyph name="parenleft" format="2">
  <advance height="2479.0" width="838.0"/>
  <unicode hex="0028"/>
  <outline>
    <contour>
      <point x="198.2" y="596.8" type="curve" smooth="yes"/>
      <point x="139.0" y="235.6"/>
      <point x="185.00000000000003" y="-65.0"/>
      <point x="340.0" y="-323.4" type="curve"/>
      <point x="635.6" y="-323.4" type="line"/>
      <point x="516.0" y="-131.4"/>
      <point x="462.40000000000003" y="252.6"/>
      <point x="520.4000000000001" y="596.8" type="curve" smooth="yes"/>
      <point x="579.0" y="941.4"/>
      <point x="757.0" y="1325.0"/>
      <point x="941.0" y="1517.0" type="curve"/>
      <point x="644.4" y="1517.0" type="line"/>
      <point x="402.40000000000003" y="1258.6"/>
      <point x="258.0" y="958.4"/>
    </contour>
  </outline>
</glyph>
<glyph name="asterisk" format="2">
  <advance height="2479.0" width="1156.6"/>
  <unicode hex="002A"/>
  <outline>
    <contour>
      <point x="495.4" y="652.0" type="line"/>
      <point x="690.2" y="652.0" type="line"/>
      <point x="720.4" y="933.6" type="line"/>
      <point x="929.6" y="775.4" type="line"/>
      <point x="1056.6" y="946.6" type="line"/>
      <point x="822.8000000000001" y="1071.0" type="line"/>
      <point x="1094.8" y="1194.4" type="line"/>
      <point x="1025.4" y="1365.6" type="line"/>
      <point x="764.4" y="1207.4" type="line"/>
      <point x="830.2" y="1489.0" type="line"/>
      <point x="634.4" y="1489.0" type="line"/>
      <point x="606.4" y="1207.4" type="line"/>
      <point x="396.79999999999995" y="1365.6" type="line"/>
      <point x="270.2" y="1194.4" type="line"/>
      <point x="504.0" y="1071.0" type="line"/>
      <point x="231.60000000000002" y="946.6" type="line"/>
      <point x="300.2" y="775.4" type="line"/>
      <point x="562.4" y="933.6" type="line"/>
    </contour>
  </outline>
</glyph>
<glyph name="plus" format="2">
  <advance height="2479.0" width="1392.0"/>
  <unicode hex="002B"/>
  <outline>
    <contour>
      <point x="486.2" y="81.0" type="line"/>
      <point x="747.4000000000001" y="81.0" type="line"/>
      <point x="917.8000000000001" y="1110.6" type="line"/>
      <point x="656.1999999999999" y="1110.6" type="line"/>
    </contour>
    <contour>
      <point x="164.6" y="465.2" type="line"/>
      <point x="1194.8" y="465.2" type="line"/>
      <point x="1238.6" y="726.0" type="line"/>
      <point x="209.0" y="726.0" type="line"/>
    </contour>
  </outline>
</glyph>
<glyph name="comma" format="2">
  <advance height="2479.0" width="620.4"/>
  <unicode hex="002C"/>
  <outline>
    <contour>
      <point x="401.79999999999995" y="204.0" type="line"/>
      <point x="146.2" y="204.0" type="line"/>
      <point x="127.6" y="122.0" type="line" smooth="yes"/>
      <point x="88.19999999999999" y="-76.0"/>
      <point x="-5.2000000000000055" y="-281.2"/>
      <point x="-37.199999999999996" y="-364.0" type="curve"/>
      <point x="163.4" y="-364.0" type="line"/>
      <point x="211.60000000000002" y="-275.2"/>
      <point x="328.79999999999995" y="-68.60000000000001"/>
      <point x="379.4" y="123.2" type="curve" smooth="yes"/>
    </contour>
  </outline>
</glyph>
<glyph name="hyphen" format="2">
  <advance height="2479.0" width="960.4"/>
  <unicode hex="002D"/>
  <outline>
    <contour>
      <point x="848.1999999999999" y="734.6" type="line"/>
      <point x="169.0" y="734.6" type="line"/>
      <point x="128.79999999999998" y="488.8" type="line"/>
      <point x="808.4" y="488.8" type="line"/>
    </contour>
  </outline>
</glyph>
<glyph name="period" format="2">
  <advance height="2479.0" width="609.6"/>
  <unicode hex="002E"/>
  <outline>
    <contour>
      <point x="225.20000000000002" y="-18.6" type="curve" smooth="yes"/>
      <point x="316.40000000000003" y="-18.6"/>
      <point x="404.4" y="59.0"/>
      <point x="412.0" y="155.6" type="curve" smooth="yes"/>
      <point x="419.4" y="250.2"/>
      <point x="344.6" y="327.40000000000003"/>
      <point x="251.0" y="327.40000000000003" type="curve" smooth="yes"/>
      <point x="154.79999999999998" y="327.40000000000003"/>
      <point x="69.2" y="251.4"/>
      <point x="62.8" y="155.6" type="curve" smooth="yes"/>
      <point x="56.60000000000001" y="59.0"/>
      <point x="127.19999999999999" y="-18.6"/>
    </contour>
  </outline>
</glyph>
<glyph name="slash" format="2">
  <advance height="2479.0" width="798.4"/>
  <unicode hex="002F"/>
  <outline>
    <contour>
      <point x="938.4" y="1559.0" type="line"/>
      <point x="671.0" y="1559.0" type="line"/>
      <point x="-102.0" y="-224.0" type="line"/>
      <point x="164.8" y="-224.0" type="line"/>
    </contour>
  </outline>
</glyph>
<glyph name="zero" format="2">
  <advance height="2479.0" width="1409.8"/>
  <unicode hex="0030"/>
  <outline>
    <contour>
      <point x="607.4" y="-32.6" type="curve" smooth="yes"/>
      <point x="981.4000000000001" y="-32.6"/>
      <point x="1255.3999999999999" y="253.6"/>
      <point x="1336.8" y="743.2" type="curve" smooth="yes"/>
      <point x="1418.0" y="1231.2"/>
      <point x="1235.0" y="1510.0"/>
      <point x="862.1999999999999" y="1510.0" type="curve" smooth="yes"/>
      <point x="489.40000000000003" y="1510.0"/>
      <point x="216.0" y="1231.0"/>
      <point x="133.4" y="743.2" type="curve" smooth="yes"/>
      <point x="51.400000000000006" y="253.8"/>
      <point x="231.60000000000002" y="-32.6"/>
    </contour>
    <contour>
      <point x="650.8" y="228.8" type="curve" smooth="yes"/>
      <point x="481.4" y="228.8"/>
      <point x="398.0" y="400.0"/>
      <point x="454.8" y="743.2" type="curve" smooth="yes"/>
      <point x="511.0" y="1081.0"/>
      <point x="650.1999999999999" y="1251.6"/>
      <point x="820.5999999999999" y="1251.6" type="curve" smooth="yes"/>
      <point x="990.0" y="1251.6"/>
      <point x="1072.8" y="1081.0"/>
      <point x="1015.4" y="743.2" type="curve" smooth="yes"/>
      <point x="958.0" y="400.0"/>
      <point x="822.0" y="228.8"/>
    </contour>
  </outline>
</glyph>
<glyph name="one" format="2">
  <advance height="2479.0" width="1002.0"/>
  <unicode hex="0031"/>
  <outline>
    <contour>
      <point x="922.6" y="1489.0" type="line"/>
      <point x="627.4" y="1489.0" type="line"/>
      <point x="219.8" y="1255.8" type="line"/>
      <point x="173.4" y="976.8" type="line"/>
      <point x="549.8000000000001" y="1190.2" type="line"/>
      <point x="558.8" y="1190.2" type="line"/>
      <point x="360.8" y="0.0" type="line"/>
      <point x="675.6" y="0.0" type="line"/>
    </contour>
  </outline>
</glyph>
<glyph name="two" format="2">
  <advance height="2479.0" width="1290.0"/>
  <unicode hex="0032"/>
  <anchor x="909.2" y="797.4" name="cross"/>
  <outline>
    <contour>
      <point x="28.0" y="0.0" type="line"/>
      <point x="1089.8" y="0.0" type="line"/>
      <point x="1132.6" y="257.8" type="line"/>
      <point x="506.59999999999997" y="257.8" type="line"/>
      <point x="508.59999999999997" y="268.0" type="line"/>
      <point x="760.6" y="480.4" type="line" smooth="yes"/>
      <point x="1113.2" y="760.8000000000001"/>
      <point x="1219.0" y="899.8000000000001"/>
      <point x="1248.0" y="1068.8" type="curve" smooth="yes"/>
      <point x="1291.3999999999999" y="1327.6"/>
      <point x="1111.2" y="1510.0"/>
      <point x="792.6" y="1510.0" type="curve" smooth="yes"/>
      <point x="479.6" y="1510.0"/>
      <point x="232.20000000000002" y="1323.6"/>
      <point x="183.4" y="1030.8" type="curve"/>
      <point x="482.59999999999997" y="1030.8" type="line"/>
      <point x="506.20000000000005" y="1173.0"/>
      <point x="613.1999999999999" y="1260.6"/>
      <point x="749.2" y="1260.6" type="curve" smooth="yes"/>
      <point x="880.0" y="1260.6"/>
      <point x="962.1999999999999" y="1179.6"/>
      <point x="940.4" y="1047.8" type="curve" smooth="yes"/>
      <point x="920.4" y="930.6"/>
      <point x="834.0" y="847.8"/>
      <point x="677.4" y="718.2" type="curve" smooth="yes"/>
      <point x="66.0" y="227.0" type="line"/>
    </contour>
  </outline>
</glyph>
<glyph name="three" format="2">
  <advance height="2479.0" width="1350.4"/>
  <unicode hex="0033"/>
  <outline>
    <contour>
      <point x="591.0" y="-20.0" type="curve" smooth="yes"/>
      <point x="919.4" y="-20.0"/>
      <point x="1178.1999999999998" y="153.4"/>
      <point x="1219.0" y="401.4" type="curve" smooth="yes"/>
      <point x="1250.0" y="591.2"/>
      <point x="1138.3999999999999" y="736.0"/>
      <point x="938.6" y="763.8" type="curve"/>
      <point x="938.6" y="774.5999999999999" type="line"/>
      <point x="1116.8" y="803.0"/>
      <point x="1246.8" y="903.0"/>
      <point x="1274.6" y="1073.6" type="curve" smooth="yes"/>
      <point x="1312.6000000000001" y="1306.0"/>
      <point x="1137.0" y="1510.0"/>
      <point x="821.0" y="1510.0" type="curve" smooth="yes"/>
      <point x="524.2" y="1510.0"/>
      <point x="268.79999999999995" y="1330.1999999999998"/>
      <point x="223.79999999999998" y="1073.2" type="curve"/>
      <point x="524.1999999999999" y="1073.2" type="line"/>
      <point x="543.1999999999999" y="1187.0"/>
      <point x="675.0" y="1260.6"/>
      <point x="805.4" y="1260.6" type="curve" smooth="yes"/>
      <point x="932.2" y="1260.6"/>
      <point x="991.6" y="1191.6000000000001"/>
      <point x="974.1999999999999" y="1088.2" type="curve" smooth="yes"/>
      <point x="953.2" y="962.0"/>
      <point x="834.6" y="875.2"/>
      <point x="689.4" y="875.2" type="curve" smooth="yes"/>
      <point x="559.0" y="875.2" type="line"/>
      <point x="520.0" y="643.8" type="line"/>
      <point x="665.2" y="643.8" type="line" smooth="yes"/>
      <point x="829.8000000000001" y="643.8"/>
      <point x="919.4" y="573.4"/>
      <point x="901.2" y="456.2" type="curve" smooth="yes"/>
      <point x="881.8000000000001" y="332.6"/>
      <point x="756.2" y="239.0"/>
      <point x="606.0" y="239.0" type="curve" smooth="yes"/>
      <point x="472.6" y="239.0"/>
      <point x="385.0" y="312.2"/>
      <point x="400.2" y="421.2" type="curve"/>
      <point x="87.2" y="421.2" type="line"/>
      <point x="46.4" y="160.4"/>
      <point x="256.2" y="-20.0"/>
    </contour>
  </outline>
</glyph>
<glyph name="four" format="2">
  <advance height="2479.0" width="1388.2"/>
  <unicode hex="0034"/>
  <outline>
    <contour>
      <point x="49.0" y="261.8" type="line"/>
      <point x="1249.1999999999998" y="261.8" type="line"/>
      <point x="1290.8" y="514.2" type="line"/>
      <point x="408.0" y="514.2" type="line"/>
      <point x="409.79999999999995" y="526.2" type="line"/>
      <point x="904.0" y="1146.6" type="line"/>
      <point x="1031.0" y="1146.6" type="line"/>
      <point x="1088.2" y="1489.0" type="line"/>
      <point x="874.0" y="1489.0" type="line"/>
      <point x="89.4" y="509.8" type="line"/>
    </contour>
    <contour>
      <point x="720.4" y="0.0" type="line"/>
      <point x="1021.4000000000001" y="0.0" type="line"/>
      <point x="1268.4" y="1489.0" type="line"/>
      <point x="973.2" y="1489.0" type="line"/>
      <point x="800.6" y="446.6" type="line"/>
      <point x="776.6" y="338.2" type="line"/>
    </contour>
  </outline>
</glyph>
<glyph name="five" format="2">
  <advance height="2479.0" width="1320.0"/>
  <unicode hex="0035"/>
  <outline>
    <contour>
      <point x="569.0" y="-20.0" type="curve" smooth="yes"/>
      <point x="902.0" y="-20.0"/>
      <point x="1162.2" y="196.2"/>
      <point x="1210.4" y="496.8" type="curve" smooth="yes"/>
      <point x="1258.2" y="781.2"/>
      <point x="1094.0" y="987.0"/>
      <point x="825.8" y="987.0" type="curve" smooth="yes"/>
      <point x="694.4" y="987.0"/>
      <point x="573.2" y="932.8"/>
      <point x="508.59999999999997" y="858.8" type="curve"/>
      <point x="500.0" y="858.8" type="line"/>
      <point x="600.4" y="1231.8" type="line"/>
      <point x="1250.6000000000001" y="1231.8" type="line"/>
      <point x="1293.2" y="1489.0" type="line"/>
      <point x="383.0" y="1489.0" type="line"/>
      <point x="180.8" y="703.8" type="line"/>
      <point x="453.0" y="653.8" type="line"/>
      <point x="509.8" y="715.2"/>
      <point x="604.5999999999999" y="754.4"/>
      <point x="692.2" y="754.4" type="curve" smooth="yes"/>
      <point x="842.8000000000001" y="754.4"/>
      <point x="931.8" y="645.0"/>
      <point x="906.4" y="488.4" type="curve" smooth="yes"/>
      <point x="879.8" y="333.0"/>
      <point x="758.2" y="227.0"/>
      <point x="609.4" y="227.0" type="curve" smooth="yes"/>
      <point x="484.8" y="227.0"/>
      <point x="396.0" y="306.8"/>
      <point x="408.0" y="421.2" type="curve"/>
      <point x="102.2" y="421.2" type="line"/>
      <point x="66.0" y="164.2"/>
      <point x="261.40000000000003" y="-20.0"/>
    </contour>
  </outline>
</glyph>
<glyph name="six" format="2">
  <advance height="2479.0" width="1352.0"/>
  <unicode hex="0036"/>
  <outline>
    <contour>
      <point x="611.4000000000001" y="-20.0" type="curve" smooth="yes"/>
      <point x="935.0" y="-21.200000000000003"/>
      <point x="1187.0" y="187.20000000000002"/>
      <point x="1236.4" y="482.4" type="curve" smooth="yes"/>
      <point x="1284.8" y="769.2"/>
      <point x="1119.2" y="979.8"/>
      <point x="847.6" y="979.8" type="curve" smooth="yes"/>
      <point x="688.8" y="979.8"/>
      <point x="538.0" y="908.6"/>
      <point x="449.2" y="777.5999999999999" type="curve"/>
      <point x="437.59999999999997" y="760.1999999999999" type="line"/>
      <point x="490.2" y="1056.6"/>
      <point x="632.5999999999999" y="1240.2"/>
      <point x="830.6" y="1240.2" type="curve" smooth="yes"/>
      <point x="941.2" y="1240.2"/>
      <point x="1010.8" y="1181.6"/>
      <point x="1012.8" y="1075.0" type="curve"/>
      <point x="1317.4" y="1075.0" type="line"/>
      <point x="1328.2" y="1321.8"/>
      <point x="1146.1999999999998" y="1510.0"/>
      <point x="848.2" y="1510.0" type="curve" smooth="yes"/>
      <point x="486.0" y="1510.0"/>
      <point x="209.2" y="1220.8"/>
      <point x="126.4" y="728.0" type="curve" smooth="yes"/>
      <point x="33.40000000000001" y="176.0"/>
      <point x="297.8" y="-19.2"/>
    </contour>
    <contour>
      <point x="622.2" y="227.0" type="curve" smooth="yes"/>
      <point x="482.4" y="227.0"/>
      <point x="401.40000000000003" y="333.0"/>
      <point x="422.6" y="472.2" type="curve" smooth="yes"/>
      <point x="447.40000000000003" y="626.8"/>
      <point x="587.0" y="752.0"/>
      <point x="738.1999999999999" y="752.0" type="curve" smooth="yes"/>
      <point x="877.4000000000001" y="752.0"/>
      <point x="957.8" y="646.2"/>
      <point x="935.4" y="507.59999999999997" type="curve" smooth="yes"/>
      <point x="912.4" y="349.2"/>
      <point x="774.5999999999999" y="227.0"/>
    </contour>
  </outline>
</glyph>
<glyph name="seven" format="2">
  <advance height="2479.0" width="1218.2"/>
  <unicode hex="0037"/>
  <outline>
    <contour>
      <point x="87.0" y="0.0" type="line"/>
      <point x="412.2" y="0.0" type="line"/>
      <point x="1233.8" y="1228.6" type="line"/>
      <point x="1277.1999999999998" y="1489.0" type="line"/>
      <point x="232.0" y="1489.0" type="line"/>
      <point x="190.4" y="1231.8" type="line"/>
      <point x="909.1999999999999" y="1231.8" type="line"/>
      <point x="906.1999999999999" y="1222.0" type="line"/>
    </contour>
  </outline>
</glyph>
<glyph name="eight" format="2">
  <advance height="2479.0" width="1351.8"/>
  <unicode hex="0038"/>
  <outline>
    <contour>
      <point x="583.6" y="-20.0" type="curve" smooth="yes"/>
      <point x="916.1999999999999" y="-20.0"/>
      <point x="1185.0" y="156.8"/>
      <point x="1225.0" y="396.0" type="curve" smooth="yes"/>
      <point x="1257.3999999999999" y="584.1999999999999"/>
      <point x="1138.0" y="738.4000000000001"/>
      <point x="962.4000000000001" y="768.6" type="curve"/>
      <point x="962.4000000000001" y="778.1999999999999" type="line"/>
      <point x="1124.8000000000002" y="809.6"/>
      <point x="1259.8" y="938.1999999999999"/>
      <point x="1287.2" y="1104.1999999999998" type="curve" smooth="yes"/>
      <point x="1325.3999999999999" y="1336.2"/>
      <point x="1130.3999999999999" y="1510.0"/>
      <point x="827.4" y="1510.0" type="curve" smooth="yes"/>
      <point x="527.6" y="1510.0"/>
      <point x="283.6" y="1343.8"/>
      <point x="243.6" y="1113.3999999999999" type="curve" smooth="yes"/>
      <point x="215.60000000000002" y="949.1999999999999"/>
      <point x="300.8" y="810.4000000000001"/>
      <point x="452.8" y="778.1999999999999" type="curve"/>
      <point x="452.8" y="768.6" type="line"/>
      <point x="268.2" y="739.6"/>
      <point x="102.0" y="588.6"/>
      <point x="70.8" y="405.2" type="curve" smooth="yes"/>
      <point x="29.800000000000004" y="162.8"/>
      <point x="245.2" y="-20.0"/>
    </contour>
    <contour>
      <point x="614.2" y="211.39999999999998" type="curve" smooth="yes"/>
      <point x="467.6" y="211.39999999999998"/>
      <point x="381.6" y="295.4"/>
      <point x="402.0" y="420.6" type="curve" smooth="yes"/>
      <point x="423.40000000000003" y="552.0"/>
      <point x="546.0" y="647.0"/>
      <point x="693.0" y="647.0" type="curve" smooth="yes"/>
      <point x="835.6" y="647.0"/>
      <point x="924.6" y="558.6"/>
      <point x="903.4" y="429.8" type="curve" smooth="yes"/>
      <point x="882.8000000000001" y="302.20000000000005"/>
      <point x="766.5999999999999" y="211.39999999999998"/>
    </contour>
    <contour>
      <point x="723.0" y="876.4" type="curve" smooth="yes"/>
      <point x="599.8" y="876.4"/>
      <point x="523.8" y="954.8"/>
      <point x="543.4000000000001" y="1071.8" type="curve" smooth="yes"/>
      <point x="563.4" y="1190.3999999999999"/>
      <point x="667.6" y="1272.6"/>
      <point x="798.6" y="1272.6" type="curve" smooth="yes"/>
      <point x="923.4000000000001" y="1272.6"/>
      <point x="996.8" y="1197.8"/>
      <point x="976.4" y="1081.0" type="curve" smooth="yes"/>
      <point x="955.6" y="962.6"/>
      <point x="852.2" y="876.4"/>
    </contour>
  </outline>
</glyph>
<glyph name="nine" format="2">
  <advance height="2479.0" width="1352.0"/>
  <unicode hex="0039"/>
  <outline>
    <contour>
      <point x="804.5999999999999" y="1510.0" type="curve" smooth="yes"/>
      <point x="481.20000000000005" y="1511.2"/>
      <point x="229.6" y="1303.3999999999999"/>
      <point x="179.60000000000002" y="1010.1999999999999" type="curve" smooth="yes"/>
      <point x="131.8" y="724.6"/>
      <point x="297.40000000000003" y="514.4"/>
      <point x="568.4" y="514.4" type="curve" smooth="yes"/>
      <point x="727.8000000000001" y="514.4"/>
      <point x="878.6" y="586.2"/>
      <point x="966.8" y="716.6" type="curve"/>
      <point x="978.8" y="733.6" type="line"/>
      <point x="926.8000000000001" y="433.0"/>
      <point x="783.5999999999999" y="249.8"/>
      <point x="585.8" y="249.8" type="curve" smooth="yes"/>
      <point x="474.4" y="249.8"/>
      <point x="405.0" y="307.4"/>
      <point x="403.2" y="418.8" type="curve"/>
      <point x="98.60000000000001" y="418.8" type="line"/>
      <point x="88.4" y="167.6"/>
      <point x="269.40000000000003" y="-20.0"/>
      <point x="567.8" y="-20.0" type="curve" smooth="yes"/>
      <point x="930.6" y="-20.0"/>
      <point x="1206.8" y="269.2"/>
      <point x="1290.1999999999998" y="766.4000000000001" type="curve" smooth="yes"/>
      <point x="1382.6000000000001" y="1315.2"/>
      <point x="1118.8" y="1508.8"/>
    </contour>
    <contour>
      <point x="793.8000000000001" y="1262.4" type="curve" smooth="yes"/>
      <point x="934.2" y="1262.4"/>
      <point x="1014.5999999999999" y="1157.0"/>
      <point x="993.4" y="1019.8" type="curve" smooth="yes"/>
      <point x="969.8000000000001" y="868.0"/>
      <point x="829.6" y="742.2"/>
      <point x="677.8000000000001" y="742.2" type="curve" smooth="yes"/>
      <point x="538.6" y="742.2"/>
      <point x="460.0" y="847.0"/>
      <point x="480.59999999999997" y="985.4" type="curve" smooth="yes"/>
      <point x="503.6" y="1141.4"/>
      <point x="642.0" y="1262.4"/>
    </contour>
  </outline>
</glyph>
<glyph name="less" format="2">
  <advance height="2479.0" width="1392.0"/>
  <unicode hex="003C"/>
  <outline>
    <contour>
      <point x="168.39999999999998" y="468.2" type="line"/>
      <point x="1117.6" y="17.0" type="line"/>
      <point x="1167.0" y="311.6" type="line"/>
      <point x="510.6" y="592.8" type="line"/>
      <point x="518.4000000000001" y="577.8" type="line"/>
      <point x="525.0" y="613.4" type="line"/>
      <point x="513.6" y="598.8" type="line"/>
      <point x="1260.6" y="880.6" type="line"/>
      <point x="1309.3999999999999" y="1174.6" type="line"/>
      <point x="212.2" y="724.0" type="line"/>
    </contour>
  </outline>
</glyph>
<glyph name="equal" format="2">
  <advance height="2479.0" width="1392.0"/>
  <unicode hex="003D"/>
  <outline>
    <contour>
      <point x="218.2" y="708.2" type="line"/>
      <point x="1222.2" y="708.2" type="line"/>
      <point x="1266.2" y="966.6" type="line"/>
      <point x="261.6" y="966.6" type="line"/>
    </contour>
    <contour>
      <point x="139.4" y="225.0" type="line"/>
      <point x="1143.4" y="225.0" type="line"/>
      <point x="1185.0" y="483.4" type="line"/>
      <point x="181.0" y="483.4" type="line"/>
    </contour>
  </outline>
</glyph>
<glyph name="greater" format="2">
  <advance height="2479.0" width="1392.0"/>
  <unicode hex="003E"/>
  <outline>
    <contour>
      <point x="1207.3999999999999" y="468.2" type="line"/>
      <point x="1250.6" y="724.0" type="line"/>
      <point x="299.59999999999997" y="1174.6" type="line"/>
      <point x="251.0" y="880.6" type="line"/>
      <point x="906.5999999999999" y="598.8" type="line"/>
      <point x="898.8" y="613.4" type="line"/>
      <point x="892.1999999999999" y="577.8" type="line"/>
      <point x="903.5999999999999" y="592.8" type="line"/>
      <point x="157.79999999999998" y="311.6" type="line"/>
      <point x="108.39999999999999" y="17.0" type="line"/>
    </contour>
  </outline>
</glyph>
<glyph name="question" format="2">
  <advance height="2479.0" width="1152.4"/>
  <unicode hex="003F"/>
  <outline>
    <contour>
      <point x="371.8" y="446.6" type="line"/>
      <point x="647.1999999999999" y="446.6" type="line"/>
      <point x="652.0" y="474.4" type="line" smooth="yes"/>
      <point x="676.8" y="614.5999999999999"/>
      <point x="740.1999999999999" y="680.6"/>
      <point x="865.8000000000001" y="748.8" type="curve" smooth="yes"/>
      <point x="1015.4" y="827.8"/>
      <point x="1121.0" y="936.0"/>
      <point x="1148.8" y="1106.8" type="curve" smooth="yes"/>
      <point x="1191.0" y="1361.4"/>
      <point x="1010.2" y="1510.0"/>
      <point x="722.4" y="1510.0" type="curve" smooth="yes"/>
      <point x="457.0" y="1510.0"/>
      <point x="219.79999999999998" y="1371.2"/>
      <point x="166.0" y="1080.4" type="curve"/>
      <point x="462.40000000000003" y="1080.4" type="line"/>
      <point x="484.8" y="1199.6"/>
      <point x="585.4" y="1263.0"/>
      <point x="680.1999999999999" y="1263.0" type="curve" smooth="yes"/>
      <point x="778.4" y="1263.0"/>
      <point x="845.4000000000001" y="1196.6"/>
      <point x="829.2" y="1096.0" type="curve" smooth="yes"/>
      <point x="814.6" y="1000.6"/>
      <point x="733.8" y="938.1999999999999"/>
      <point x="635.4" y="880.8" type="curve" smooth="yes"/>
      <point x="502.8" y="804.2"/>
      <point x="419.8" y="726.6"/>
      <point x="376.6" y="474.4" type="curve" smooth="yes"/>
    </contour>
    <component base="period" xOffset="226.79999999999998"/>
  </outline>
</glyph>
<glyph name="at" format="2">
  <advance height="2479.0" width="2110.8"/>
  <unicode hex="0040"/>
  <outline>
    <contour>
      <point x="934.8" y="-429.6" type="curve" smooth="yes"/>
      <point x="1142.0" y="-429.6"/>
      <point x="1352.2" y="-380.2"/>
      <point x="1453.6000000000001" y="-328.4" type="curve"/>
      <point x="1416.2" y="-118.2" type="line"/>
      <point x="1332.4" y="-149.4"/>
      <point x="1159.8" y="-191.8"/>
      <point x="992.0" y="-191.8" type="curve" smooth="yes"/>
      <point x="518.4" y="-191.8"/>
      <point x="301.6" y="59.0"/>
      <point x="377.20000000000005" y="519.2" type="curve" smooth="yes"/>
      <point x="446.0" y="935.0"/>
      <point x="734.8" y="1248.4"/>
      <point x="1218.3999999999999" y="1248.4" type="curve" smooth="yes"/>
      <point x="1568.6" y="1248.4"/>
      <point x="1866.6" y="1081.8"/>
      <point x="1789.6" y="625.0" type="curve" smooth="yes"/>
      <point x="1744.2" y="340.4"/>
      <point x="1670.0" y="211.0"/>
      <point x="1570.0" y="211.0" type="curve" smooth="yes"/>
      <point x="1519.8" y="211.0"/>
      <point x="1495.6000000000001" y="249.2"/>
      <point x="1504.6" y="316.4" type="curve" smooth="yes"/>
      <point x="1622.1999999999998" y="1026.2" type="line"/>
      <point x="1394.6" y="1026.2" type="line"/>
      <point x="1381.8" y="944.6" type="line"/>
      <point x="1371.0" y="944.6" type="line"/>
      <point x="1356.6" y="1008.6"/>
      <point x="1213.6000000000001" y="1069.0"/>
      <point x="1044.8" y="1044.2" type="curve" smooth="yes"/>
      <point x="845.4" y="1015.4"/>
      <point x="610.2" y="856.4"/>
      <point x="554.0" y="519.4" type="curve" smooth="yes"/>
      <point x="497.40000000000003" y="176.8"/>
      <point x="665.4" y="1.3999999999999986"/>
      <point x="892.0" y="-11.199999999999996" type="curve" smooth="yes"/>
      <point x="1055.0" y="-20.199999999999996"/>
      <point x="1216.3999999999999" y="48.8"/>
      <point x="1264.0" y="136.8" type="curve"/>
      <point x="1272.6" y="136.8" type="line"/>
      <point x="1272.0" y="36.4"/>
      <point x="1327.4" y="-32.199999999999996"/>
      <point x="1498.0" y="-19.6" type="curve" smooth="yes"/>
      <point x="1816.0" y="-2.1999999999999993"/>
      <point x="1977.3999999999999" y="250.60000000000002"/>
      <point x="2035.2" y="608.2" type="curve" smooth="yes"/>
      <point x="2121.4" y="1125.0"/>
      <point x="1838.8" y="1483.2"/>
      <point x="1260.6000000000001" y="1483.2" type="curve" smooth="yes"/>
      <point x="635.4" y="1483.2"/>
      <point x="213.0" y="1095.8"/>
      <point x="115.8" y="510.8" type="curve" smooth="yes"/>
      <point x="18.6" y="-83.8"/>
      <point x="316.59999999999997" y="-429.6"/>
    </contour>
    <contour>
      <point x="1011.0000000000001" y="228.0" type="curve" smooth="yes"/>
      <point x="821.4000000000001" y="228.0"/>
      <point x="781.5999999999999" y="373.6"/>
      <point x="806.4000000000001" y="528.4" type="curve" smooth="yes"/>
      <point x="834.8" y="693.8"/>
      <point x="943.0" y="802.2"/>
      <point x="1104.8" y="802.2" type="curve" smooth="yes"/>
      <point x="1289.4" y="802.2"/>
      <point x="1326.6" y="704.6"/>
      <point x="1298.8" y="530.2" type="curve" smooth="yes"/>
      <point x="1268.3999999999999" y="332.4"/>
      <point x="1189.8" y="228.0"/>
    </contour>
  </outline>
</glyph>
<glyph name="A" format="2">
  <advance height="2479.0" width="1531.4"/>
  <unicode hex="0041"/>
  <anchor x="672.1999999999999" y="0.0" name="bottom"/>
  <anchor x="1389.0" y="0.0" name="ogonek"/>
  <anchor x="628.0" y="1489.0" name="tonos"/>
  <anchor x="952.1999999999999" y="1676.0" name="top"/>
  <outline>
    <contour>
      <point x="293.2" y="0.0" type="line"/>
      <point x="858.8000000000001" y="1149.0" type="line"/>
      <point x="870.8000000000001" y="1149.0" type="line"/>
      <point x="1051.8" y="0.0" type="line"/>
      <point x="1389.0" y="0.0" type="line"/>
      <point x="1123.0" y="1489.0" type="line"/>
      <point x="716.4" y="1489.0" type="line"/>
      <point x="-44.6" y="0.0" type="line"/>
    </contour>
    <contour>
      <point x="369.8" y="585.6" type="line"/>
      <point x="328.2" y="339.8" type="line"/>
      <point x="1125.0" y="339.8" type="line"/>
      <point x="1167.2" y="585.6" type="line"/>
    </contour>
  </outline>
</glyph>
<glyph name="B" format="2">
  <advance height="2479.0" width="1353.0"/>
  <unicode hex="0042"/>
  <anchor x="563.2" y="0.0" name="bottom"/>
  <anchor x="840.4" y="1676.0" name="top"/>
  <outline>
    <contour>
      <point x="36.599999999999994" y="0.0" type="line"/>
      <point x="672.4" y="0.0" type="line" smooth="yes"/>
      <point x="1007.0" y="0.0"/>
      <point x="1215.0" y="175.0"/>
      <point x="1254.2" y="411.6" type="curve" smooth="yes"/>
      <point x="1290.4" y="631.0"/>
      <point x="1154.6" y="766.2"/>
      <point x="985.8" y="773.4" type="curve"/>
      <point x="988.8" y="787.8" type="line"/>
      <point x="1148.0" y="822.4"/>
      <point x="1281.4" y="933.2"/>
      <point x="1311.6" y="1107.8" type="curve" smooth="yes"/>
      <point x="1349.0" y="1331.2"/>
      <point x="1208.4" y="1489.0"/>
      <point x="879.6" y="1489.0" type="curve" smooth="yes"/>
      <point x="284.0" y="1489.0" type="line"/>
    </contour>
    <contour>
      <point x="395.4" y="257.8" type="line"/>
      <point x="459.59999999999997" y="653.4" type="line"/>
      <point x="723.4" y="653.4" type="line" smooth="yes"/>
      <point x="876.4" y="653.4"/>
      <point x="954.0" y="566.2"/>
      <point x="934.6" y="442.8" type="curve" smooth="yes"/>
      <point x="916.4" y="331.0"/>
      <point x="825.8000000000001" y="257.8"/>
      <point x="652.0" y="257.8" type="curve" smooth="yes"/>
    </contour>
    <contour>
      <point x="496.4" y="866.2" type="line"/>
      <point x="556.8" y="1234.8" type="line"/>
      <point x="796.0" y="1234.8" type="line" smooth="yes"/>
      <point x="934.5999999999999" y="1234.8"/>
      <point x="1002.8000000000001" y="1163.8"/>
      <point x="984.2" y="1055.6" type="curve" smooth="yes"/>
      <point x="966.6" y="938.8000000000001"/>
      <point x="857.6" y="866.2"/>
      <point x="729.4" y="866.2" type="curve" smooth="yes"/>
    </contour>
  </outline>
</glyph>
<glyph name="C" format="2">
  <advance height="2479.0" width="1567.6"/>
  <unicode hex="0043"/>
  <anchor x="701.6" y="-1.200000000000001" name="cedilla"/>
  <anchor x="984.0" y="1676.0" name="top"/>
  <outline>
    <contour>
      <point x="1509.0" y="968.2" type="line"/>
      <point x="1524.0" y="1311.6"/>
      <point x="1291.6" y="1510.0"/>
      <point x="937.0" y="1510.0" type="curve" smooth="yes"/>
      <point x="553.5999999999999" y="1510.0"/>
      <point x="217.4" y="1243.0"/>
      <point x="137.20000000000002" y="763.2" type="curve"/>
      <point x="56.8" y="268.8"/>
      <point x="311.6" y="-20.0"/>
      <point x="718.4" y="-20.0" type="curve" smooth="yes"/>
      <point x="1092.1999999999998" y="-20.0"/>
      <point x="1354.8" y="235.0"/>
      <point x="1434.2" y="508.8" type="curve"/>
      <point x="1118.0" y="508.8" type="line"/>
      <point x="1061.8" y="351.4"/>
      <point x="913.4" y="258.4"/>
      <point x="734.6" y="258.4" type="curve" smooth="yes"/>
      <point x="518.2" y="258.4"/>
      <point x="400.0" y="416.8"/>
      <point x="450.2" y="725.8" type="curve"/>
      <point x="503.4" y="1045.6000000000001"/>
      <point x="693.4" y="1231.2"/>
      <point x="931.6" y="1231.2" type="curve" smooth="yes"/>
      <point x="1097.2" y="1231.2"/>
      <point x="1198.4" y="1133.2"/>
      <point x="1195.4" y="968.2" type="curve"/>
    </contour>
  </outline>
</glyph>
<glyph name="D" format="2">
  <advance height="2479.0" width="1489.4"/>
  <unicode hex="0044"/>
  <anchor x="523.6" y="0.0" name="bottom"/>
  <anchor x="337.0" y="780.0" name="cross"/>
  <anchor x="863.6" y="1676.0" name="top"/>
  <outline>
    <contour>
      <point x="572.1999999999999" y="0.0" type="line" smooth="yes"/>
      <point x="1026.2" y="0.0"/>
      <point x="1337.8" y="271.2"/>
      <point x="1413.8" y="728.8000000000001" type="curve" smooth="yes"/>
      <point x="1492.3999999999999" y="1201.0"/>
      <point x="1257.6000000000001" y="1489.0"/>
      <point x="809.0" y="1489.0" type="curve" smooth="yes"/>
      <point x="417.2" y="1489.0" type="line"/>
      <point x="371.6" y="1219.2" type="line"/>
      <point x="762.0" y="1219.2" type="line" smooth="yes"/>
      <point x="1040.8" y="1219.2"/>
      <point x="1160.0" y="1086.3999999999999"/>
      <point x="1106.2" y="762.6" type="curve" smooth="yes"/>
      <point x="1050.0" y="423.0"/>
      <point x="870.4" y="269.8"/>
      <point x="590.2" y="269.8" type="curve" smooth="yes"/>
      <point x="222.2" y="269.8" type="line"/>
      <point x="177.0" y="0.0" type="line"/>
    </contour>
    <contour>
      <point x="599.0" y="1489.0" type="line"/>
      <point x="284.0" y="1489.0" type="line"/>
      <point x="36.599999999999994" y="0.0" type="line"/>
      <point x="351.4" y="0.0" type="line"/>
    </contour>
  </outline>
</glyph>
<glyph name="E" format="2">
  <advance height="2479.0" width="1254.4"/>
  <unicode hex="0045"/>
  <anchor x="534.8" y="0.0" name="bottom"/>
  <anchor x="537.8" y="0.0" name="cedilla"/>
  <anchor x="1043.0" y="0.0" name="ogonek"/>
  <anchor x="240.6" y="1489.0" name="tonos"/>
  <anchor x="819.8" y="1676.0" name="top"/>
  <outline>
    <contour>
      <point x="36.599999999999994" y="0.0" type="line"/>
      <point x="1043.0" y="0.0" type="line"/>
      <point x="1087.0" y="259.6" type="line"/>
      <point x="395.4" y="259.6" type="line"/>
      <point x="453.0" y="615.6" type="line"/>
      <point x="1090.1999999999998" y="615.6" type="line"/>
      <point x="1133.6" y="875.2" type="line"/>
      <point x="497.0" y="875.2" type="line"/>
      <point x="555.0" y="1230.0" type="line"/>
      <point x="1243.6" y="1230.0" type="line"/>
      <point x="1287.6" y="1489.0" type="line"/>
      <point x="284.0" y="1489.0" type="line"/>
    </contour>
  </outline>
</glyph>
<glyph name="F" format="2">
  <advance height="2479.0" width="1198.0"/>
  <unicode hex="0046"/>
  <anchor x="519.0" y="12.0" name="bottom"/>
  <anchor x="240.8" y="289.6" name="cross"/>
  <anchor x="818.2" y="1676.0" name="top"/>
  <outline>
    <contour>
      <point x="36.599999999999994" y="0.0" type="line"/>
      <point x="351.4" y="0.0" type="line"/>
      <point x="453.0" y="615.6" type="line"/>
      <point x="1058.8" y="615.6" type="line"/>
      <point x="1102.2" y="875.2" type="line"/>
      <point x="497.0" y="875.2" type="line"/>
      <point x="555.0" y="1230.0" type="line"/>
      <point x="1225.6" y="1230.0" type="line"/>
      <point x="1269.4" y="1489.0" type="line"/>
      <point x="284.0" y="1489.0" type="line"/>
    </contour>
  </outline>
</glyph>
<glyph name="G" format="2">
  <advance height="2479.0" width="1604.4"/>
  <unicode hex="0047"/>
  <anchor x="697.6" y="3.5999999999999996" name="bottom"/>
  <anchor x="977.8000000000001" y="1676.0" name="top"/>
  <outline>
    <contour>
      <point x="1191.0" y="1008.4" type="curve"/>
      <point x="1510.2" y="1008.4" type="line"/>
      <point x="1519.2" y="1303.0"/>
      <point x="1294.0" y="1510.0"/>
      <point x="957.8" y="1510.0" type="curve" smooth="yes"/>
      <point x="564.1999999999999" y="1510.0"/>
      <point x="213.0" y="1226.2"/>
      <point x="133.4" y="743.2" type="curve" smooth="yes"/>
      <point x="55.599999999999994" y="271.8"/>
      <point x="291.4" y="-20.0"/>
      <point x="709.8" y="-20.0" type="curve" smooth="yes"/>
      <point x="1086.4" y="-20.0"/>
      <point x="1394.8" y="216.79999999999998"/>
      <point x="1458.8" y="609.0" type="curve" smooth="yes"/>
      <point x="1490.1999999999998" y="797.2" type="line"/>
      <point x="867.4" y="797.2" type="line"/>
      <point x="827.5999999999999" y="560.4" type="line"/>
      <point x="1211.4" y="560.4" type="line"/>
      <point x="1148.6" y="569.0" type="line"/>
      <point x="1118.3999999999999" y="379.4"/>
      <point x="961.6" y="258.4"/>
      <point x="748.1999999999999" y="258.4" type="curve" smooth="yes"/>
      <point x="512.0" y="258.4"/>
      <point x="402.2" y="434.8"/>
      <point x="454.2" y="746.8" type="curve" smooth="yes"/>
      <point x="505.0" y="1056.4"/>
      <point x="703.0" y="1231.2"/>
      <point x="932.0" y="1231.2" type="curve" smooth="yes"/>
      <point x="1093.6000000000001" y="1231.2"/>
      <point x="1174.6000000000001" y="1147.6"/>
    </contour>
  </outline>
</glyph>
<glyph name="H" format="2">
  <advance height="2479.0" width="1528.0"/>
  <unicode hex="0048"/>
  <anchor x="670.2" y="0.0" name="bottom"/>
  <anchor x="196.2" y="0.0" name="cedilla"/>
  <anchor x="1467.4" y="123.4" name="cyrtic"/>
  <anchor x="1303.8" y="0.0" name="right"/>
  <anchor x="246.6" y="1489.0" name="tonos"/>
  <anchor x="952.8" y="1677.2" name="top"/>
  <outline>
    <contour>
      <point x="36.599999999999994" y="0.0" type="line"/>
      <point x="351.4" y="0.0" type="line"/>
      <point x="453.0" y="615.6" type="line"/>
      <point x="1092.1999999999998" y="615.6" type="line"/>
      <point x="990.5999999999999" y="0.0" type="line"/>
      <point x="1305.0" y="0.0" type="line"/>
      <point x="1552.0" y="1489.0" type="line"/>
      <point x="1237.6" y="1489.0" type="line"/>
      <point x="1136.0" y="875.2" type="line"/>
      <point x="497.0" y="875.2" type="line"/>
      <point x="599.0" y="1489.0" type="line"/>
      <point x="284.0" y="1489.0" type="line"/>
    </contour>
  </outline>
</glyph>
<glyph name="I" format="2">
  <advance height="2479.0" width="575.0"/>
  <unicode hex="0049"/>
  <anchor x="196.20000000000002" y="0.0" name="bottom"/>
  <anchor x="323.0" y="780.0" name="cross"/>
  <anchor x="351.4" y="0.0" name="ogonek"/>
  <anchor x="372.59999999999997" y="0.0" name="right"/>
  <anchor x="284.0" y="1489.0" name="tonos"/>
  <anchor x="473.2" y="1676.0" name="top"/>
  <outline>
    <contour>
      <point x="599.0" y="1489.0" type="line"/>
      <point x="284.0" y="1489.0" type="line"/>
      <point x="36.599999999999994" y="0.0" type="line"/>
      <point x="351.4" y="0.0" type="line"/>
    </contour>
  </outline>
</glyph>
<glyph name="J" format="2">
  <advance height="2479.0" width="1167.8"/>
  <unicode hex="004A"/>
  <anchor x="934.4" y="884.0" name="cross"/>
  <anchor x="1067.2" y="1676.0" name="top"/>
  <outline>
    <contour>
      <point x="880.4" y="1489.0" type="line"/>
      <point x="709.0" y="453.2" type="line"/>
      <point x="684.2" y="310.59999999999997"/>
      <point x="603.8" y="232.39999999999998"/>
      <point x="486.2" y="232.39999999999998" type="curve" smooth="yes"/>
      <point x="376.4" y="232.39999999999998"/>
      <point x="320.6" y="298.0"/>
      <point x="336.20000000000005" y="418.6" type="curve"/>
      <point x="25.0" y="418.6" type="line"/>
      <point x="-23.799999999999997" y="121.60000000000001"/>
      <point x="166.6" y="-20.0"/>
      <point x="437.59999999999997" y="-20.0" type="curve" smooth="yes"/>
      <point x="741.6" y="-20.0"/>
      <point x="970.8" y="159.8"/>
      <point x="1019.6" y="448.40000000000003" type="curve"/>
      <point x="1191.8" y="1489.0" type="line"/>
    </contour>
  </outline>
</glyph>
<glyph name="K" format="2">
  <advance height="2479.0" width="1411.8"/>
  <unicode hex="004B"/>
  <anchor x="617.0" y="1.7999999999999998" name="bottom"/>
  <anchor x="888.6" y="1676.0" name="top"/>
  <outline>
    <contour>
      <point x="36.599999999999994" y="0.0" type="line"/>
      <point x="351.4" y="0.0" type="line"/>
      <point x="422.2" y="421.8" type="line"/>
      <point x="610.2" y="612.2" type="line"/>
      <point x="914.4" y="0.0" type="line"/>
      <point x="1291.4" y="0.0" type="line"/>
      <point x="870.2" y="822.4" type="line"/>
      <point x="1531.2" y="1489.0" type="line"/>
      <point x="1154.2" y="1489.0" type="line"/>
      <point x="509.6" y="832.6" type="line"/>
      <point x="490.79999999999995" y="832.6" type="line"/>
      <point x="599.0" y="1489.0" type="line"/>
      <point x="284.0" y="1489.0" type="line"/>
    </contour>
  </outline>
</glyph>
<glyph name="L" format="2">
  <advance height="2479.0" width="1162.2"/>
  <unicode hex="004C"/>
  <anchor x="488.80000000000007" y="0.0" name="bottom"/>
  <anchor x="323.0" y="780.0" name="cross"/>
  <anchor x="651.4" y="841.4" name="dot"/>
  <anchor x="822.6" y="1489.0" name="raccent"/>
  <anchor x="472.0" y="1676.0" name="top"/>
  <outline>
    <contour>
      <point x="36.599999999999994" y="0.0" type="line"/>
      <point x="989.4" y="0.0" type="line"/>
      <point x="1033.4" y="259.6" type="line"/>
      <point x="395.4" y="259.6" type="line"/>
      <point x="599.0" y="1489.0" type="line"/>
      <point x="284.0" y="1489.0" type="line"/>
    </contour>
  </outline>
</glyph>
<glyph name="M" format="2">
  <advance height="2479.0" width="1874.1999999999998"/>
  <unicode hex="004D"/>
  <anchor x="843.4" y="0.0" name="bottom"/>
  <anchor x="1642.1999999999998" y="0.0" name="right"/>
  <anchor x="1122.8" y="1676.0" name="top"/>
  <outline>
    <contour>
      <point x="284.0" y="1489.0" type="line"/>
      <point x="36.599999999999994" y="0.0" type="line"/>
      <point x="341.8" y="0.0" type="line"/>
      <point x="504.4" y="973.0" type="line"/>
      <point x="517.6" y="973.0" type="line"/>
      <point x="740.2" y="0.0" type="line"/>
      <point x="948.1999999999999" y="0.0" type="line"/>
      <point x="1494.2" y="969.4" type="line"/>
      <point x="1506.8" y="969.4" type="line"/>
      <point x="1346.0" y="0.0" type="line"/>
      <point x="1650.6" y="0.0" type="line"/>
      <point x="1898.1999999999998" y="1489.0" type="line"/>
      <point x="1509.8000000000002" y="1489.0" type="line"/>
      <point x="934.1999999999999" y="488.79999999999995" type="line"/>
      <point x="916.8" y="488.79999999999995" type="line"/>
      <point x="671.8" y="1489.0" type="line"/>
    </contour>
  </outline>
</glyph>
<glyph name="N" format="2">
  <advance height="2479.0" width="1505.8000000000002"/>
  <unicode hex="004E"/>
  <anchor x="660.6" y="0.0" name="bottom"/>
  <anchor x="1322.6" y="0.0" name="right"/>
  <anchor x="939.6" y="1676.0" name="top"/>
  <outline>
    <contour>
      <point x="1529.8000000000002" y="1489.0" type="line"/>
      <point x="1216.1999999999998" y="1489.0" type="line"/>
      <point x="1061.3999999999999" y="552.8" type="line"/>
      <point x="1048.6" y="552.8" type="line"/>
      <point x="559.4" y="1489.0" type="line"/>
      <point x="284.0" y="1489.0" type="line"/>
      <point x="36.599999999999994" y="0.0" type="line"/>
      <point x="351.4" y="0.0" type="line"/>
      <point x="508.0" y="937.4" type="line"/>
      <point x="519.0" y="937.4" type="line"/>
      <point x="1010.0" y="0.0" type="line"/>
      <point x="1282.4" y="0.0" type="line"/>
    </contour>
  </outline>
</glyph>
<glyph name="O" format="2">
  <advance height="2479.0" width="1601.0"/>
  <unicode hex="004F"/>
  <anchor x="711.8" y="2.4000000000000004" name="bottom"/>
  <anchor x="895.0" y="3.5999999999999996" name="ogonek"/>
  <anchor x="327.2" y="1489.0" name="tonos"/>
  <anchor x="985.8" y="1676.0" name="top"/>
  <outline>
    <contour>
      <point x="1525.4" y="724.6" type="curve"/>
      <point x="1607.4" y="1220.8"/>
      <point x="1345.0" y="1510.0"/>
      <point x="941.8" y="1510.0" type="curve" smooth="yes"/>
      <point x="553.5999999999999" y="1510.0"/>
      <point x="215.60000000000002" y="1239.3999999999999"/>
      <point x="136.60000000000002" y="761.4" type="curve"/>
      <point x="55.0" y="267.0"/>
      <point x="317.0" y="-20.0"/>
      <point x="723.2" y="-20.0" type="curve" smooth="yes"/>
      <point x="1109.3999999999999" y="-20.0"/>
      <point x="1445.6000000000001" y="246.99999999999997"/>
    </contour>
    <contour>
      <point x="1212.8" y="761.4" type="curve"/>
      <point x="1159.0" y="439.0"/>
      <point x="972.2" y="258.4"/>
      <point x="734.0" y="258.4" type="curve" smooth="yes"/>
      <point x="516.4" y="258.4"/>
      <point x="396.4" y="416.79999999999995"/>
      <point x="449.59999999999997" y="724.6" type="curve"/>
      <point x="501.59999999999997" y="1047.4"/>
      <point x="689.8" y="1231.2"/>
      <point x="929.8" y="1231.2" type="curve" smooth="yes"/>
      <point x="1149.2" y="1231.2"/>
      <point x="1263.0" y="1067.4"/>
    </contour>
  </outline>
</glyph>
<glyph name="P" format="2">
  <advance height="2479.0" width="1325.2"/>
  <unicode hex="0050"/>
  <anchor x="258.0" y="1489.0" name="tonos"/>
  <anchor x="840.4" y="1676.0" name="top"/>
  <outline>
    <contour>
      <point x="36.599999999999994" y="0.0" type="line"/>
      <point x="351.4" y="0.0" type="line"/>
      <point x="556.8" y="1231.8" type="line"/>
      <point x="769.4" y="1231.8" type="line" smooth="yes"/>
      <point x="951.0" y="1231.8"/>
      <point x="1021.0" y="1134.2"/>
      <point x="997.4" y="985.0" type="curve" smooth="yes"/>
      <point x="973.1999999999999" y="837.4000000000001"/>
      <point x="869.2" y="735.2"/>
      <point x="686.6" y="735.2" type="curve" smooth="yes"/>
      <point x="362.79999999999995" y="735.2" type="line"/>
      <point x="321.2" y="482.8" type="line"/>
      <point x="696.0" y="482.8" type="line" smooth="yes"/>
      <point x="1040.1999999999998" y="482.8"/>
      <point x="1272.4" y="686.4000000000001"/>
      <point x="1321.4" y="985.0" type="curve" smooth="yes"/>
      <point x="1370.2" y="1281.2"/>
      <point x="1209.8" y="1489.0"/>
      <point x="871.0" y="1489.0" type="curve" smooth="yes"/>
      <point x="284.0" y="1489.0" type="line"/>
    </contour>
  </outline>
</glyph>
<glyph name="Q" format="2">
  <advance height="2479.0" width="1613.2"/>
  <unicode hex="0051"/>
  <anchor x="711.8" y="2.4000000000000004" name="bottom"/>
  <anchor x="895.0" y="3.5999999999999996" name="ogonek"/>
  <anchor x="327.2" y="1489.0" name="tonos"/>
  <anchor x="985.8" y="1676.0" name="top"/>
  <outline>
    <contour>
      <point x="679.4" y="517.8" type="line"/>
      <point x="880.2" y="214.39999999999998" type="line"/>
      <point x="952.4000000000001" y="89.2" type="line"/>
      <point x="1103.3999999999999" y="-122.6" type="line"/>
      <point x="1396.8" y="-122.6" type="line"/>
      <point x="1178.0" y="190.8" type="line"/>
      <point x="1067.4" y="344.8" type="line"/>
      <point x="947.0" y="517.8" type="line"/>
    </contour>
    <component base="O"/>
  </outline>
</glyph>
<glyph name="R" format="2">
  <advance height="2479.0" width="1356.3999999999999"/>
  <unicode hex="0052"/>
  <anchor x="594.6" y="0.0" name="bottom"/>
  <anchor x="849.4" y="1676.0" name="top"/>
  <outline>
    <contour>
      <point x="36.599999999999994" y="0.0" type="line"/>
      <point x="351.4" y="0.0" type="line"/>
      <point x="556.8" y="1231.8" type="line"/>
      <point x="769.4" y="1231.8" type="line" smooth="yes"/>
      <point x="949.2" y="1231.8"/>
      <point x="1024.0" y="1151.8000000000002"/>
      <point x="1000.4" y="1003.0" type="curve" smooth="yes"/>
      <point x="976.1999999999999" y="855.0"/>
      <point x="876.0" y="781.6"/>
      <point x="695.6" y="781.6" type="curve" smooth="yes"/>
      <point x="353.0" y="781.6" type="line"/>
      <point x="310.20000000000005" y="528.0" type="line"/>
      <point x="703.4000000000001" y="528.0" type="line" smooth="yes"/>
      <point x="1046.1999999999998" y="528.0"/>
      <point x="1275.4" y="706.1999999999999"/>
      <point x="1323.8" y="1003.0" type="curve" smooth="yes"/>
      <point x="1373.2" y="1298.8000000000002"/>
      <point x="1209.8" y="1489.0"/>
      <point x="871.0" y="1489.0" type="curve" smooth="yes"/>
      <point x="284.0" y="1489.0" type="line"/>
    </contour>
    <contour>
      <point x="953.0" y="678.0" type="line"/>
      <point x="613.4" y="678.0" type="line"/>
      <point x="863.4" y="0.0" type="line"/>
      <point x="1210.8" y="0.0" type="line"/>
    </contour>
  </outline>
</glyph>
<glyph name="S" format="2">
  <advance height="2479.0" width="1340.8"/>
  <unicode hex="0053"/>
  <anchor x="581.1999999999999" y="-10.4" name="bottom"/>
  <anchor x="581.4000000000001" y="0.0" name="cedilla"/>
  <anchor x="857.2" y="1676.0" name="top"/>
  <outline>
    <contour>
      <point x="1019.0000000000001" y="1056.4" type="curve"/>
      <point x="1320.6000000000001" y="1056.4" type="line"/>
      <point x="1361.0" y="1327.2"/>
      <point x="1174.0" y="1510.0"/>
      <point x="842.2" y="1510.0" type="curve" smooth="yes"/>
      <point x="515.1999999999999" y="1510.0"/>
      <point x="247.79999999999998" y="1330.2"/>
      <point x="202.6" y="1059.2" type="curve" smooth="yes"/>
      <point x="167.0" y="839.0"/>
      <point x="300.4" y="714.6"/>
      <point x="541.0" y="653.0" type="curve" smooth="yes"/>
      <point x="696.4" y="613.0" type="line" smooth="yes"/>
      <point x="852.8" y="574.4000000000001"/>
      <point x="936.4000000000001" y="526.0"/>
      <point x="919.4" y="426.2" type="curve" smooth="yes"/>
      <point x="901.8000000000001" y="317.8"/>
      <point x="786.2" y="243.2"/>
      <point x="625.8" y="243.2" type="curve" smooth="yes"/>
      <point x="461.6" y="243.2"/>
      <point x="355.0" y="318.2"/>
      <point x="370.79999999999995" y="468.0" type="curve"/>
      <point x="66.0" y="468.0" type="line"/>
      <point x="20.199999999999996" y="146.6"/>
      <point x="225.20000000000002" y="-20.6"/>
      <point x="585.4" y="-20.6" type="curve" smooth="yes"/>
      <point x="949.4000000000001" y="-20.6"/>
      <point x="1190.8" y="152.2"/>
      <point x="1237.1999999999998" y="425.0" type="curve" smooth="yes"/>
      <point x="1278.4" y="673.2"/>
      <point x="1111.8000000000002" y="805.2"/>
      <point x="863.6" y="863.6" type="curve" smooth="yes"/>
      <point x="735.6" y="895.2" type="line" smooth="yes"/>
      <point x="611.4" y="924.1999999999999"/>
      <point x="509.4" y="974.2"/>
      <point x="530.0" y="1080.2" type="curve" smooth="yes"/>
      <point x="546.4000000000001" y="1177.2"/>
      <point x="642.2" y="1246.8"/>
      <point x="796.4" y="1246.8" type="curve" smooth="yes"/>
      <point x="947.4" y="1246.8"/>
      <point x="1023.8000000000001" y="1178.0"/>
    </contour>
  </outline>
</glyph>
<glyph name="T" format="2">
  <advance height="2479.0" width="1369.0"/>
  <unicode hex="0054"/>
  <anchor x="590.4" y="0.0" name="bottom"/>
  <anchor x="595.1999999999999" y="0.0" name="cedilla"/>
  <anchor x="708.1999999999999" y="706.8" name="cross"/>
  <anchor x="904.6" y="123.4" name="cyrtic"/>
  <anchor x="699.2" y="0.0" name="right"/>
  <anchor x="871.6" y="1676.0" name="top"/>
  <outline>
    <contour>
      <point x="183.2" y="1230.0" type="line"/>
      <point x="639.2" y="1230.0" type="line"/>
      <point x="435.6" y="0.0" type="line"/>
      <point x="747.4" y="0.0" type="line"/>
      <point x="951.0" y="1230.0" type="line"/>
      <point x="1407.0" y="1230.0" type="line"/>
      <point x="1450.4" y="1489.0" type="line"/>
      <point x="226.6" y="1489.0" type="line"/>
    </contour>
  </outline>
</glyph>
<glyph name="U" format="2">
  <advance height="2479.0" width="1493.4"/>
  <unicode hex="0055"/>
  <anchor x="652.4" y="-2.6000000000000014" name="bottom"/>
  <anchor x="842.4" y="6.0" name="ogonek"/>
  <anchor x="763.4" y="0.0" name="right"/>
  <anchor x="930.6" y="1676.0" name="top"/>
  <outline>
    <contour>
      <point x="1202.6000000000001" y="1489.0" type="line"/>
      <point x="1046.4" y="549.2" type="line" smooth="yes"/>
      <point x="1017.8000000000001" y="379.20000000000005"/>
      <point x="879.2" y="256.4"/>
      <point x="695.6" y="256.4" type="curve" smooth="yes"/>
      <point x="513.1999999999999" y="256.4"/>
      <point x="412.79999999999995" y="379.20000000000005"/>
      <point x="441.4" y="549.2" type="curve" smooth="yes"/>
      <point x="597.6" y="1489.0" type="line"/>
      <point x="282.6" y="1489.0" type="line"/>
      <point x="122.6" y="522.2" type="line" smooth="yes"/>
      <point x="68.39999999999999" y="196.2"/>
      <point x="277.59999999999997" y="-20.6"/>
      <point x="649.2" y="-20.6" type="curve" smooth="yes"/>
      <point x="1018.8" y="-20.6"/>
      <point x="1303.2" y="196.2"/>
      <point x="1356.8000000000002" y="522.2" type="curve" smooth="yes"/>
      <point x="1517.4" y="1489.0" type="line"/>
    </contour>
  </outline>
</glyph>
<glyph name="V" format="2">
  <advance height="2479.0" width="1531.4"/>
  <unicode hex="0056"/>
  <anchor x="672.0" y="0.0" name="bottom"/>
  <anchor x="950.1999999999999" y="1676.0" name="top"/>
  <outline>
    <contour>
      <point x="551.2" y="1489.0" type="line"/>
      <point x="201.4" y="1489.0" type="line"/>
      <point x="467.4" y="0.0" type="line"/>
      <point x="874.0" y="0.0" type="line"/>
      <point x="1635.0" y="1489.0" type="line"/>
      <point x="1285.2" y="1489.0" type="line"/>
      <point x="737.6" y="357.8" type="line"/>
      <point x="724.2" y="357.8" type="line"/>
    </contour>
  </outline>
</glyph>
<glyph name="W" format="2">
  <advance height="2479.0" width="2117.2000000000003"/>
  <unicode hex="0057"/>
  <anchor x="965.0000000000001" y="4.800000000000001" name="bottom"/>
  <anchor x="1243.2" y="1676.0" name="top"/>
  <outline>
    <contour>
      <point x="368.2" y="0.0" type="line"/>
      <point x="674.8" y="0.0" type="line"/>
      <point x="1121.4" y="974.0" type="line"/>
      <point x="1133.0" y="974.0" type="line"/>
      <point x="1253.2" y="0.0" type="line"/>
      <point x="1559.8" y="0.0" type="line"/>
      <point x="2234.0" y="1489.0" type="line"/>
      <point x="1890.2" y="1489.0" type="line"/>
      <point x="1472.4" y="452.4" type="line"/>
      <point x="1459.2" y="452.4" type="line"/>
      <point x="1358.8" y="1489.0" type="line"/>
      <point x="1064.2" y="1489.0" type="line"/>
      <point x="621.1999999999999" y="454.2" type="line"/>
      <point x="609.0" y="454.2" type="line"/>
      <point x="532.8" y="1489.0" type="line"/>
      <point x="189.0" y="1489.0" type="line"/>
    </contour>
  </outline>
</glyph>
<glyph name="X" format="2">
  <advance height="2479.0" width="1463.2"/>
  <unicode hex="0058"/>
  <anchor x="639.0" y="1.200000000000001" name="bottom"/>
  <anchor x="762.8" y="745.0" name="cross"/>
  <anchor x="1273.8" y="123.4" name="cyrtic"/>
  <anchor x="1133.8" y="0.0" name="right"/>
  <anchor x="917.1999999999999" y="1676.0" name="top"/>
  <outline>
    <contour>
      <point x="568.4" y="1489.0" type="line"/>
      <point x="221.6" y="1489.0" type="line"/>
      <point x="556.8" y="745.0" type="line"/>
      <point x="-34.4" y="0.0" type="line"/>
      <point x="333.4" y="0.0" type="line"/>
      <point x="723.0" y="508.4" type="line"/>
      <point x="735.0" y="508.4" type="line"/>
      <point x="955.8000000000001" y="0.0" type="line"/>
      <point x="1311.6" y="0.0" type="line"/>
      <point x="971.8" y="745.0" type="line"/>
      <point x="1548.4" y="1489.0" type="line"/>
      <point x="1181.8" y="1489.0" type="line"/>
      <point x="795.8000000000001" y="981.6" type="line"/>
      <point x="784.4000000000001" y="981.6" type="line"/>
    </contour>
  </outline>
</glyph>
<glyph name="Y" format="2">
  <advance height="2479.0" width="1483.4"/>
  <unicode hex="0059"/>
  <anchor x="648.6" y="0.0" name="bottom"/>
  <anchor x="744.6" y="570.8" name="cross"/>
  <anchor x="805.2" y="0.0" name="ogonek"/>
  <anchor x="106.4" y="1489.0" name="tonos"/>
  <anchor x="928.2" y="1676.0" name="top"/>
  <outline>
    <contour>
      <point x="196.20000000000002" y="1489.0" type="line"/>
      <point x="579.8000000000001" y="526.4" type="line"/>
      <point x="492.20000000000005" y="0.0" type="line"/>
      <point x="805.2" y="0.0" type="line"/>
      <point x="893.4000000000001" y="526.4" type="line"/>
      <point x="1595.6" y="1489.0" type="line"/>
      <point x="1242.6" y="1489.0" type="line"/>
      <point x="798.4" y="848.0" type="line"/>
      <point x="782.6" y="848.0" type="line"/>
      <point x="549.2" y="1489.0" type="line"/>
    </contour>
  </outline>
</glyph>
<glyph name="Z" format="2">
  <advance height="2479.0" width="1365.8"/>
  <unicode hex="005A"/>
  <anchor x="602.4" y="0.0" name="bottom"/>
  <anchor x="743.6" y="780.0" name="cross"/>
  <anchor x="877.6" y="1676.0" name="top"/>
  <outline>
    <contour>
      <point x="20.599999999999994" y="0.0" type="line"/>
      <point x="1161.0" y="0.0" type="line"/>
      <point x="1204.4" y="259.6" type="line"/>
      <point x="457.20000000000005" y="259.6" type="line"/>
      <point x="1375.4" y="1302.6" type="line"/>
      <point x="1406.2" y="1489.0" type="line"/>
      <point x="265.8" y="1489.0" type="line"/>
      <point x="222.4" y="1230.0" type="line"/>
      <point x="969.6" y="1230.0" type="line"/>
      <point x="52.599999999999994" y="186.8" type="line"/>
    </contour>
  </outline>
</glyph>
<glyph name="bracketleft" format="2">
  <advance height="2479.0" width="838.0"/>
  <unicode hex="005B"/>
  <outline>
    <contour>
      <point x="69.0" y="-323.4" type="line"/>
      <point x="643.0" y="-323.4" type="line"/>
      <point x="682.0" y="-92.2" type="line"/>
      <point x="407.40000000000003" y="-92.2" type="line"/>
      <point x="634.0" y="1286.2" type="line"/>
      <point x="909.1999999999999" y="1286.2" type="line"/>
      <point x="947.8" y="1517.0" type="line"/>
      <point x="374.0" y="1517.0" type="line"/>
    </contour>
  </outline>
</glyph>
<glyph name="backslash" format="2">
  <advance height="2479.0" width="795.4"/>
  <unicode hex="005C"/>
  <outline>
    <contour>
      <point x="377.0" y="-224.0" type="line"/>
      <point x="637.4" y="-224.0" type="line"/>
      <point x="451.79999999999995" y="1559.0" type="line"/>
      <point x="192.0" y="1559.0" type="line"/>
    </contour>
  </outline>
</glyph>
<glyph name="asciicircum" format="2">
  <advance height="2479.0" width="998.4"/>
  <unicode hex="005E"/>
  <outline>
    <contour>
      <point x="611.0" y="1328.0" type="line"/>
      <point x="597.6" y="1248.8" type="line"/>
      <point x="649.6" y="1248.8" type="line"/>
      <point x="663.4000000000001" y="1328.0" type="line"/>
    </contour>
    <contour>
      <point x="111.2" y="815.0" type="line"/>
      <point x="356.0" y="815.0" type="line"/>
      <point x="633.8" y="1277.8" type="line"/>
      <point x="619.4" y="1277.8" type="line"/>
      <point x="749.4000000000001" y="815.0" type="line"/>
      <point x="974.2" y="815.0" type="line"/>
      <point x="773.2" y="1456.8" type="line"/>
      <point x="523.4" y="1456.8" type="line"/>
    </contour>
  </outline>
</glyph>
<glyph name="underscore" format="2">
  <advance height="2479.0" width="975.4"/>
  <unicode hex="005F"/>
  <anchor x="420.20000000000005" y="137.8" name="_bottom"/>
  <outline>
    <contour>
      <point x="883.6" y="0.0" type="line"/>
      <point x="-94.2" y="0.0" type="line"/>
      <point x="-132.8" y="-235.0" type="line"/>
      <point x="845.6" y="-235.0" type="line"/>
    </contour>
  </outline>
</glyph>
<glyph name="grave" format="2">
  <advance height="2479.0" width="1018.0"/>
  <unicode hex="0060"/>
  <anchor x="740.2" y="1303.0" name="_top"/>
  <anchor x="795.0" y="1676.0" name="top"/>
  <outline>
    <contour>
      <point x="626.4" y="1261.4" type="line"/>
      <point x="846.1999999999999" y="1261.4" type="line"/>
      <point x="746.0" y="1592.2" type="line"/>
      <point x="459.6" y="1592.2" type="line"/>
    </contour>
  </outline>
</glyph>
<glyph name="a" format="2">
  <advance height="2479.0" width="1188.0"/>
  <unicode hex="0061"/>
  <anchor x="503.4" y="0.0" name="bottom"/>
  <anchor x="978.2" y="0.0" name="ogonek"/>
  <anchor x="731.6" y="1303.0" name="rhalfring"/>
  <anchor x="731.0" y="1303.0" name="top"/>
  <outline>
    <contour>
      <point x="346.2" y="-23.8" type="curve" smooth="yes"/>
      <point x="511.79999999999995" y="-23.8"/>
      <point x="630.8" y="50.8"/>
      <point x="701.8" y="154.6" type="curve"/>
      <point x="710.4" y="154.6" type="line"/>
      <point x="684.4" y="0.0" type="line"/>
      <point x="978.2" y="0.0" type="line"/>
      <point x="1103.8" y="753.4" type="line" smooth="yes"/>
      <point x="1148.4" y="1019.6"/>
      <point x="940.0" y="1132.0"/>
      <point x="693.0" y="1132.0" type="curve" smooth="yes"/>
      <point x="425.0" y="1132.0"/>
      <point x="226.4" y="1003.4"/>
      <point x="150.6" y="799.8" type="curve"/>
      <point x="433.0" y="776.6" type="line"/>
      <point x="466.2" y="851.0"/>
      <point x="545.0" y="905.0"/>
      <point x="655.8" y="905.0" type="curve" smooth="yes"/>
      <point x="760.6" y="905.0"/>
      <point x="795.0" y="853.6"/>
      <point x="795.0" y="760.2" type="curve" smooth="yes"/>
      <point x="795.0" y="756.4" type="line" smooth="yes"/>
      <point x="795.0" y="684.2"/>
      <point x="703.2" y="675.6"/>
      <point x="507.4" y="656.2" type="curve" smooth="yes"/>
      <point x="282.40000000000003" y="635.5999999999999"/>
      <point x="72.60000000000001" y="561.0"/>
      <point x="31.000000000000007" y="311.6" type="curve" smooth="yes"/>
      <point x="-5.7999999999999945" y="91.8"/>
      <point x="133.79999999999998" y="-23.8"/>
    </contour>
    <contour>
      <point x="470.80000000000007" y="189.6" type="curve" smooth="yes"/>
      <point x="374.40000000000003" y="189.6"/>
      <point x="314.59999999999997" y="238.2"/>
      <point x="328.4" y="322.4" type="curve" smooth="yes"/>
      <point x="341.8" y="409.6"/>
      <point x="422.4" y="451.8"/>
      <point x="534.8000000000001" y="467.6" type="curve" smooth="yes"/>
      <point x="602.0" y="478.4"/>
      <point x="716.0" y="493.4"/>
      <point x="756.4" y="517.8" type="curve"/>
      <point x="737.0" y="399.2" type="line" smooth="yes"/>
      <point x="718.2" y="282.4"/>
      <point x="606.4" y="189.6"/>
    </contour>
  </outline>
</glyph>
<glyph name="b" format="2">
  <advance height="2479.0" width="1301.0"/>
  <unicode hex="0062"/>
  <anchor x="545.2" y="0.0" name="bottom"/>
  <anchor x="402.6" y="1280.0" name="cross"/>
  <anchor x="893.6" y="1303.0" name="top"/>
  <outline>
    <contour>
      <point x="36.599999999999994" y="0.0" type="line"/>
      <point x="341.79999999999995" y="0.0" type="line"/>
      <point x="371.4" y="178.6" type="line"/>
      <point x="386.40000000000003" y="178.6" type="line"/>
      <point x="413.6" y="86.4"/>
      <point x="489.0" y="-18.2"/>
      <point x="669.8" y="-18.2" type="curve" smooth="yes"/>
      <point x="924.6" y="-18.2"/>
      <point x="1157.2" y="183.6"/>
      <point x="1219.2" y="557.8" type="curve" smooth="yes"/>
      <point x="1282.6000000000001" y="941.0"/>
      <point x="1108.2" y="1132.0"/>
      <point x="861.8" y="1132.0" type="curve" smooth="yes"/>
      <point x="675.6" y="1132.0"/>
      <point x="565.8" y="1020.8"/>
      <point x="510.8" y="929.2" type="curve"/>
      <point x="501.8" y="929.2" type="line"/>
      <point x="593.6" y="1489.0" type="line"/>
      <point x="284.0" y="1489.0" type="line"/>
    </contour>
    <contour>
      <point x="433.0" y="559.0" type="curve" smooth="yes"/>
      <point x="465.0" y="758.0"/>
      <point x="571.0" y="884.6"/>
      <point x="721.6" y="884.6" type="curve" smooth="yes"/>
      <point x="874.8" y="884.6"/>
      <point x="933.4" y="752.0"/>
      <point x="902.6" y="559.0" type="curve" smooth="yes"/>
      <point x="870.6" y="363.8"/>
      <point x="765.8" y="228.8"/>
      <point x="613.4000000000001" y="228.8" type="curve" smooth="yes"/>
      <point x="464.4" y="228.8"/>
      <point x="401.0" y="359.6"/>
    </contour>
  </outline>
</glyph>
<glyph name="c" format="2">
  <advance height="2479.0" width="1202.0"/>
  <unicode hex="0063"/>
  <anchor x="539.1999999999999" y="0.0" name="cedilla"/>
  <anchor x="749.4" y="1303.0" name="top"/>
  <outline>
    <contour>
      <point x="532.0" y="-21.2" type="curve" smooth="yes"/>
      <point x="829.5999999999999" y="-21.2"/>
      <point x="1043.6" y="152.6"/>
      <point x="1102.8" y="409.4" type="curve"/>
      <point x="810.6" y="409.4" type="line"/>
      <point x="772.0" y="291.0"/>
      <point x="682.6" y="223.39999999999998"/>
      <point x="575.4" y="223.39999999999998" type="curve" smooth="yes"/>
      <point x="431.40000000000003" y="223.39999999999998"/>
      <point x="357.6" y="345.0"/>
      <point x="392.6" y="559.0" type="curve" smooth="yes"/>
      <point x="426.0" y="770.0"/>
      <point x="542.2" y="890.0"/>
      <point x="687.2" y="890.0" type="curve" smooth="yes"/>
      <point x="800.0" y="890.0"/>
      <point x="859.8" y="814.4"/>
      <point x="858.0" y="704.4" type="curve"/>
      <point x="1150.6" y="704.4" type="line"/>
      <point x="1180.2" y="962.6"/>
      <point x="1014.2" y="1132.0"/>
      <point x="722.8000000000001" y="1132.0" type="curve" smooth="yes"/>
      <point x="383.20000000000005" y="1132.0"/>
      <point x="132.79999999999998" y="896.6"/>
      <point x="78.19999999999999" y="554.8" type="curve" smooth="yes"/>
      <point x="20.999999999999993" y="214.4"/>
      <point x="187.59999999999997" y="-21.2"/>
    </contour>
  </outline>
</glyph>
<glyph name="d" format="2">
  <advance height="2479.0" width="1302.2"/>
  <unicode hex="0064"/>
  <anchor x="549.8" y="0.0" name="bottom"/>
  <anchor x="1136.2" y="1280.0" name="cross"/>
  <anchor x="1458.6" y="1489.0" name="raccent"/>
  <anchor x="725.1999999999999" y="1489.0" name="top"/>
  <outline>
    <contour>
      <point x="440.80000000000007" y="-18.2" type="curve" smooth="yes"/>
      <point x="620.4" y="-18.2"/>
      <point x="731.0" y="86.4"/>
      <point x="789.8000000000001" y="178.6" type="curve"/>
      <point x="803.6" y="178.6" type="line"/>
      <point x="773.0" y="0.0" type="line"/>
      <point x="1078.8000000000002" y="0.0" type="line"/>
      <point x="1326.2" y="1489.0" type="line"/>
      <point x="1016.1999999999999" y="1489.0" type="line"/>
      <point x="923.0" y="929.2" type="line"/>
      <point x="913.8000000000001" y="929.2" type="line"/>
      <point x="887.6" y="1020.8"/>
      <point x="816.8" y="1132.0"/>
      <point x="630.0" y="1132.0" type="curve" smooth="yes"/>
      <point x="384.59999999999997" y="1132.0"/>
      <point x="146.0" y="941.0"/>
      <point x="82.2" y="557.8" type="curve" smooth="yes"/>
      <point x="20.6" y="183.6"/>
      <point x="184.8" y="-18.2"/>
    </contour>
    <contour>
      <point x="577.4" y="228.8" type="curve" smooth="yes"/>
      <point x="424.4" y="228.8"/>
      <point x="366.4" y="363.8"/>
      <point x="399.2" y="559.0" type="curve" smooth="yes"/>
      <point x="430.59999999999997" y="752.0"/>
      <point x="532.4" y="884.6"/>
      <point x="685.1999999999999" y="884.6" type="curve" smooth="yes"/>
      <point x="835.8" y="884.6"/>
      <point x="901.4" y="758.0"/>
      <point x="868.8" y="559.0" type="curve" smooth="yes"/>
      <point x="835.4" y="359.6"/>
      <point x="725.8000000000001" y="228.8"/>
    </contour>
  </outline>
</glyph>
<glyph name="e" format="2">
  <advance height="2479.0" width="1243.4"/>
  <unicode hex="0065"/>
  <anchor x="519.4" y="0.0" name="bottom"/>
  <anchor x="524.2" y="0.0" name="cedilla"/>
  <anchor x="793.4" y="29.4" name="ogonek"/>
  <anchor x="735.4" y="1303.0" name="top"/>
  <outline>
    <contour>
      <point x="536.2" y="-21.2" type="curve"/>
      <point x="813.6" y="-21.2"/>
      <point x="1019.8" y="112.8"/>
      <point x="1099.2" y="320.2" type="curve"/>
      <point x="816.2" y="338.6" type="line"/>
      <point x="770.5999999999999" y="253.8"/>
      <point x="683.5999999999999" y="209.6"/>
      <point x="579.6" y="209.6" type="curve" smooth="yes"/>
      <point x="421.4" y="209.6"/>
      <point x="342.40000000000003" y="295.2"/>
      <point x="370.20000000000005" y="471.2" type="curve" smooth="yes"/>
      <point x="404.6" y="662.1999999999999" type="line" smooth="yes"/>
      <point x="427.40000000000003" y="788.2"/>
      <point x="548.2" y="900.2"/>
      <point x="684.1999999999999" y="900.2" type="curve"/>
      <point x="818.4" y="900.2"/>
      <point x="893.4" y="805.0"/>
      <point x="871.8000000000001" y="671.8" type="curve"/>
      <point x="220.6" y="671.8" type="line"/>
      <point x="190.0" y="479.0" type="line"/>
      <point x="1133.0" y="479.0" type="line"/>
      <point x="1146.3999999999999" y="564.6" type="line" smooth="yes"/>
      <point x="1209.6" y="943.4"/>
      <point x="1012.0" y="1132.0"/>
      <point x="715.6" y="1132.0" type="curve" smooth="yes"/>
      <point x="387.2" y="1132.0"/>
      <point x="135.4" y="898.4"/>
      <point x="78.19999999999999" y="553.6" type="curve" smooth="yes"/>
      <point x="18.799999999999994" y="199.79999999999998"/>
      <point x="192.60000000000002" y="-21.2"/>
    </contour>
  </outline>
</glyph>
<glyph name="f" format="2">
  <advance height="2479.0" width="790.6"/>
  <unicode hex="0066"/>
  <anchor x="253.99999999999997" y="0.0" name="bottom"/>
  <anchor x="359.2" y="625.6" name="cross"/>
  <anchor x="639.6" y="1676.0" name="top"/>
  <outline>
    <contour>
      <point x="818.2" y="1117.0" type="line"/>
      <point x="128.79999999999998" y="1117.0" type="line"/>
      <point x="89.6" y="884.4" type="line"/>
      <point x="779.2" y="884.4" type="line"/>
    </contour>
    <component base="_part.f_base" xOffset="-10.2"/>
  </outline>
</glyph>
<glyph name="g" format="2">
  <advance height="2479.0" width="1296.8"/>
  <unicode hex="0067"/>
  <anchor x="471.20000000000005" y="-426.4" name="bottom"/>
  <anchor x="1018.8" y="565.8" name="cross"/>
  <anchor x="756.8" y="1303.0" name="top"/>
  <outline>
    <contour>
      <point x="463.80000000000007" y="-442.0" type="curve" smooth="yes"/>
      <point x="781.4000000000001" y="-442.0"/>
      <point x="1032.6000000000001" y="-297.20000000000005"/>
      <point x="1078.2" y="-11.0" type="curve" smooth="yes"/>
      <point x="1265.8" y="1117.0" type="line"/>
      <point x="958.2" y="1117.0" type="line"/>
      <point x="927.4" y="929.2" type="line"/>
      <point x="915.4" y="929.2" type="line"/>
      <point x="888.4" y="1020.8"/>
      <point x="817.0" y="1132.0"/>
      <point x="629.8000000000001" y="1132.0" type="curve" smooth="yes"/>
      <point x="384.4" y="1132.0"/>
      <point x="145.2" y="941.0"/>
      <point x="82.60000000000001" y="561.0" type="curve" smooth="yes"/>
      <point x="21.000000000000004" y="189.2"/>
      <point x="193.8" y="15.8"/>
      <point x="445.6" y="15.8" type="curve" smooth="yes"/>
      <point x="623.4" y="15.8"/>
      <point x="738.4" y="105.4"/>
      <point x="793.4" y="198.0" type="curve"/>
      <point x="806.5999999999999" y="198.0" type="line"/>
      <point x="773.4" y="-6.200000000000001" type="line" smooth="yes"/>
      <point x="749.8" y="-159.6"/>
      <point x="639.4" y="-219.60000000000002"/>
      <point x="504.79999999999995" y="-219.60000000000002" type="curve" smooth="yes"/>
      <point x="367.0" y="-219.60000000000002"/>
      <point x="311.2" y="-160.6"/>
      <point x="295.4" y="-92.6" type="curve"/>
      <point x="1.6000000000000014" y="-131.0" type="line"/>
      <point x="11.799999999999988" y="-306.8"/>
      <point x="161.2" y="-442.0"/>
    </contour>
    <contour>
      <point x="580.1999999999999" y="248.8" type="curve" smooth="yes"/>
      <point x="426.8" y="248.8"/>
      <point x="368.0" y="369.8"/>
      <point x="399.2" y="562.2" type="curve" smooth="yes"/>
      <point x="430.0" y="752.0"/>
      <point x="530.8" y="884.6"/>
      <point x="684.8" y="884.6" type="curve" smooth="yes"/>
      <point x="834.5999999999999" y="884.6"/>
      <point x="900.4" y="758.0"/>
      <point x="868.8" y="562.2" type="curve" smooth="yes"/>
      <point x="836.8" y="365.6"/>
      <point x="728.2" y="248.8"/>
    </contour>
  </outline>
</glyph>
<glyph name="h" format="2">
  <advance height="2479.0" width="1278.4"/>
  <unicode hex="0068"/>
  <anchor x="547.4" y="0.0" name="bottom"/>
  <anchor x="191.79999999999998" y="0.0" name="cedilla"/>
  <anchor x="396.4" y="1283.8" name="cross"/>
  <anchor x="462.2" y="1676.0" name="top"/>
  <outline>
    <contour>
      <point x="449.2" y="645.6" type="line" smooth="yes"/>
      <point x="473.4" y="790.2"/>
      <point x="576.2" y="874.4"/>
      <point x="702.8" y="874.4" type="curve" smooth="yes"/>
      <point x="828.0" y="874.4"/>
      <point x="888.4" y="793.8"/>
      <point x="866.6" y="656.0" type="curve" smooth="yes"/>
      <point x="756.8" y="0.0" type="line"/>
      <point x="1066.2" y="0.0" type="line"/>
      <point x="1185.8" y="711.8" type="line" smooth="yes"/>
      <point x="1228.6" y="973.4"/>
      <point x="1101.2" y="1132.0"/>
      <point x="869.4" y="1132.0" type="curve" smooth="yes"/>
      <point x="699.0" y="1132.0"/>
      <point x="571.2" y="1051.8000000000002"/>
      <point x="499.4" y="920.2" type="curve"/>
      <point x="487.2" y="920.2" type="line"/>
      <point x="580.8" y="1489.0" type="line"/>
      <point x="279.8" y="1489.0" type="line"/>
      <point x="32.8" y="0.0" type="line"/>
      <point x="342.2" y="0.0" type="line"/>
    </contour>
  </outline>
</glyph>
<glyph name="k" format="2">
  <advance height="2479.0" width="1192.6"/>
  <unicode hex="006B"/>
  <anchor x="516.0" y="0.0" name="bottom"/>
  <anchor x="467.59999999999997" y="1676.0" name="top"/>
  <outline>
    <contour>
      <point x="366.0" y="321.8" type="line"/>
      <point x="611.6" y="555.6" type="line"/>
      <point x="685.0" y="555.6" type="line"/>
      <point x="1258.2" y="1117.0" type="line"/>
      <point x="902.8" y="1117.0" type="line"/>
      <point x="473.2" y="693.2" type="line"/>
      <point x="427.40000000000003" y="693.2" type="line"/>
    </contour>
    <contour>
      <point x="32.8" y="0.0" type="line"/>
      <point x="342.2" y="0.0" type="line"/>
      <point x="589.1999999999999" y="1489.0" type="line"/>
      <point x="279.8" y="1489.0" type="line"/>
    </contour>
    <contour>
      <point x="730.1999999999999" y="0.0" type="line"/>
      <point x="1093.3999999999999" y="0.0" type="line"/>
      <point x="725.4" y="705.0" type="line"/>
      <point x="483.2" y="486.4" type="line"/>
    </contour>
  </outline>
</glyph>
<glyph name="m" format="2">
  <advance height="2479.0" width="1867.6"/>
  <unicode hex="006D"/>
  <anchor x="844.4" y="0.0" name="bottom"/>
  <anchor x="1061.1999999999998" y="1303.0" name="top"/>
  <outline>
    <contour>
      <point x="32.8" y="0.0" type="line"/>
      <point x="342.2" y="0.0" type="line"/>
      <point x="455.2" y="670.4" type="line" smooth="yes"/>
      <point x="473.4" y="793.8000000000001"/>
      <point x="566.6" y="876.2"/>
      <point x="669.4" y="876.2" type="curve" smooth="yes"/>
      <point x="771.5999999999999" y="876.2"/>
      <point x="828.0" y="806.6"/>
      <point x="811.6" y="697.2" type="curve" smooth="yes"/>
      <point x="694.4" y="0.0" type="line"/>
      <point x="994.3999999999999" y="0.0" type="line"/>
      <point x="1109.6" y="682.0" type="line" smooth="yes"/>
      <point x="1127.1999999999998" y="798.5999999999999"/>
      <point x="1206.6" y="876.2"/>
      <point x="1319.0" y="876.2" type="curve" smooth="yes"/>
      <point x="1418.2" y="876.2"/>
      <point x="1481.8" y="814.6"/>
      <point x="1463.0" y="690.4" type="curve" smooth="yes"/>
      <point x="1346.3999999999999" y="0.0" type="line"/>
      <point x="1656.0" y="0.0" type="line"/>
      <point x="1781.0" y="751.0" type="line" smooth="yes"/>
      <point x="1821.4" y="993.4"/>
      <point x="1698.8" y="1132.0"/>
      <point x="1492.3999999999999" y="1132.0" type="curve" smooth="yes"/>
      <point x="1328.2" y="1132.0"/>
      <point x="1186.3999999999999" y="1048.2"/>
      <point x="1120.6000000000001" y="920.2" type="curve"/>
      <point x="1109.0" y="920.2" type="line"/>
      <point x="1094.3999999999999" y="1049.4"/>
      <point x="993.0" y="1132.0"/>
      <point x="841.0" y="1132.0" type="curve" smooth="yes"/>
      <point x="689.4" y="1132.0"/>
      <point x="562.2" y="1051.2"/>
      <point x="494.0" y="920.2" type="curve"/>
      <point x="481.2" y="920.2" type="line"/>
      <point x="513.8" y="1117.0" type="line"/>
      <point x="218.8" y="1117.0" type="line"/>
    </contour>
  </outline>
</glyph>
<glyph name="n" format="2">
  <advance height="2479.0" width="1274.0"/>
  <unicode hex="006E"/>
  <anchor x="546.1999999999999" y="0.0" name="bottom"/>
  <anchor x="761.1999999999999" y="1303.0" name="top"/>
  <outline>
    <contour>
      <point x="449.2" y="645.6" type="line" smooth="yes"/>
      <point x="474.0" y="790.2"/>
      <point x="574.4" y="874.4"/>
      <point x="699.6" y="874.4" type="curve" smooth="yes"/>
      <point x="824.8" y="874.4"/>
      <point x="884.2" y="792.6"/>
      <point x="861.8000000000001" y="656.0" type="curve" smooth="yes"/>
      <point x="752.4" y="0.0" type="line"/>
      <point x="1061.4" y="0.0" type="line"/>
      <point x="1181.4" y="711.8" type="line" smooth="yes"/>
      <point x="1224.4" y="972.2"/>
      <point x="1097.0" y="1132.0"/>
      <point x="865.8" y="1132.0" type="curve" smooth="yes"/>
      <point x="699.5999999999999" y="1132.0"/>
      <point x="564.0" y="1050.6"/>
      <point x="494.0" y="920.2" type="curve"/>
      <point x="481.2" y="920.2" type="line"/>
      <point x="513.8" y="1117.0" type="line"/>
      <point x="218.8" y="1117.0" type="line"/>
      <point x="32.8" y="0.0" type="line"/>
      <point x="342.2" y="0.0" type="line"/>
    </contour>
  </outline>
</glyph>
<glyph name="o" format="2">
  <advance height="2479.0" width="1256.8"/>
  <unicode hex="006F"/>
  <anchor x="535.8" y="0.0" name="bottom"/>
  <anchor x="686.6" y="0.0" name="ogonek"/>
  <anchor x="751.1999999999999" y="1303.0" name="top"/>
  <outline>
    <contour>
      <point x="536.4" y="-21.2" type="curve" smooth="yes"/>
      <point x="873.2" y="-21.2"/>
      <point x="1119.4" y="207.6"/>
      <point x="1176.6000000000001" y="550.0" type="curve" smooth="yes"/>
      <point x="1232.6000000000001" y="897.8000000000001"/>
      <point x="1059.1999999999998" y="1132.0"/>
      <point x="719.1999999999999" y="1132.0" type="curve" smooth="yes"/>
      <point x="381.0" y="1132.0"/>
      <point x="134.6" y="902.6"/>
      <point x="79.0" y="559.1999999999999" type="curve" smooth="yes"/>
      <point x="21.999999999999993" y="212.0"/>
      <point x="194.4" y="-21.2"/>
    </contour>
    <contour>
      <point x="567.0" y="218.0" type="curve" smooth="yes"/>
      <point x="414.0" y="218.0"/>
      <point x="359.6" y="359.0"/>
      <point x="391.4" y="551.8000000000001" type="curve" smooth="yes"/>
      <point x="423.2" y="748.8000000000001"/>
      <point x="531.1999999999999" y="895.4"/>
      <point x="688.6" y="895.4" type="curve" smooth="yes"/>
      <point x="840.1999999999999" y="895.4"/>
      <point x="894.6" y="753.6"/>
      <point x="864.1999999999999" y="561.0" type="curve" smooth="yes"/>
      <point x="831.6" y="363.4"/>
      <point x="723.4" y="218.0"/>
    </contour>
  </outline>
</glyph>
<glyph name="p" format="2">
  <advance height="2479.0" width="1313.3999999999999"/>
  <unicode hex="0070"/>
  <anchor x="122.59999999999998" y="-408.2" name="bottom"/>
  <anchor x="1158.4" y="-484.2" name="bottom0315"/>
  <anchor x="162.00000000000003" y="-163.0" name="cross"/>
  <anchor x="825.4" y="1303.0" name="top"/>
  <outline>
    <contour>
      <point x="-37.2" y="-419.0" type="line"/>
      <point x="274.4" y="-419.0" type="line"/>
      <point x="373.4" y="178.6" type="line"/>
      <point x="384.40000000000003" y="178.6" type="line"/>
      <point x="410.4" y="86.4"/>
      <point x="485.79999999999995" y="-18.2"/>
      <point x="667.6" y="-18.2" type="curve" smooth="yes"/>
      <point x="921.4" y="-18.2"/>
      <point x="1154.4" y="183.6"/>
      <point x="1216.6000000000001" y="557.8" type="curve" smooth="yes"/>
      <point x="1279.4" y="941.0"/>
      <point x="1104.3999999999999" y="1132.0"/>
      <point x="860.2" y="1132.0" type="curve" smooth="yes"/>
      <point x="672.4" y="1132.0"/>
      <point x="562.6" y="1020.8"/>
      <point x="508.8" y="929.2" type="curve"/>
      <point x="495.4" y="929.2" type="line"/>
      <point x="526.2" y="1117.0" type="line"/>
      <point x="220.4" y="1117.0" type="line"/>
    </contour>
    <contour>
      <point x="430.79999999999995" y="559.0" type="curve" smooth="yes"/>
      <point x="461.79999999999995" y="758.0"/>
      <point x="568.2" y="884.6"/>
      <point x="719.4" y="884.6" type="curve" smooth="yes"/>
      <point x="871.6" y="884.6"/>
      <point x="930.2" y="752.0"/>
      <point x="900.4" y="559.0" type="curve" smooth="yes"/>
      <point x="865.6" y="363.8"/>
      <point x="762.6" y="228.8"/>
      <point x="611.2" y="228.8" type="curve" smooth="yes"/>
      <point x="461.20000000000005" y="228.8"/>
      <point x="397.59999999999997" y="359.6"/>
    </contour>
  </outline>
</glyph>
<glyph name="q" format="2">
  <advance height="2479.0" width="1311.8"/>
  <unicode hex="0071"/>
  <anchor x="870.4" y="-408.2" name="bottom"/>
  <anchor x="913.0" y="-163.0" name="cross"/>
  <anchor x="734.0" y="1303.0" name="top"/>
  <outline>
    <contour>
      <point x="715.0" y="-419.0" type="line"/>
      <point x="1024.6" y="-419.0" type="line"/>
      <point x="1279.0" y="1117.0" type="line"/>
      <point x="973.8" y="1117.0" type="line"/>
      <point x="941.4" y="929.2" type="line"/>
      <point x="928.2" y="929.2" type="line"/>
      <point x="903.0" y="1020.8"/>
      <point x="831.0" y="1132.0"/>
      <point x="643.8" y="1132.0" type="curve" smooth="yes"/>
      <point x="398.40000000000003" y="1132.0"/>
      <point x="159.79999999999998" y="941.0"/>
      <point x="96.8" y="557.8" type="curve" smooth="yes"/>
      <point x="34.8" y="183.6"/>
      <point x="200.6" y="-18.2"/>
      <point x="455.0" y="-18.2" type="curve" smooth="yes"/>
      <point x="635.1999999999999" y="-18.2"/>
      <point x="746.4" y="86.4"/>
      <point x="804.0" y="178.6" type="curve"/>
      <point x="813.1999999999999" y="178.6" type="line"/>
    </contour>
    <contour>
      <point x="593.6" y="228.8" type="curve" smooth="yes"/>
      <point x="441.6" y="228.8"/>
      <point x="381.2" y="363.8"/>
      <point x="413.0" y="559.0" type="curve" smooth="yes"/>
      <point x="445.8" y="752.0"/>
      <point x="548.6" y="884.6"/>
      <point x="702.8000000000001" y="884.6" type="curve" smooth="yes"/>
      <point x="852.4000000000001" y="884.6"/>
      <point x="916.1999999999999" y="758.0"/>
      <point x="882.6" y="559.0" type="curve" smooth="yes"/>
      <point x="850.1999999999999" y="359.6"/>
      <point x="743.0" y="228.8"/>
    </contour>
  </outline>
</glyph>
<glyph name="r" format="2">
  <advance height="2479.0" width="838.2"/>
  <unicode hex="0072"/>
  <anchor x="186.39999999999998" y="0.0" name="bottom"/>
  <anchor x="276.4" y="535.0" name="cross"/>
  <anchor x="582.4" y="1303.0" name="top"/>
  <outline>
    <contour>
      <point x="31.0" y="0.0" type="line"/>
      <point x="340.4" y="0.0" type="line"/>
      <point x="444.4" y="632.0" type="line" smooth="yes"/>
      <point x="468.59999999999997" y="769.2"/>
      <point x="584.5999999999999" y="864.0"/>
      <point x="720.0" y="864.0" type="curve" smooth="yes"/>
      <point x="764.1999999999999" y="864.0"/>
      <point x="821.4" y="856.8"/>
      <point x="849.0" y="847.2" type="curve"/>
      <point x="895.4000000000001" y="1123.0" type="line"/>
      <point x="867.8" y="1129.6"/>
      <point x="831.4" y="1133.2"/>
      <point x="799.6" y="1133.2" type="curve" smooth="yes"/>
      <point x="675.0" y="1133.2"/>
      <point x="559.6" y="1060.8"/>
      <point x="496.2" y="922.2" type="curve"/>
      <point x="484.79999999999995" y="922.2" type="line"/>
      <point x="517.4" y="1117.0" type="line"/>
      <point x="217.0" y="1117.0" type="line"/>
    </contour>
  </outline>
</glyph>
<glyph name="s" format="2">
  <advance height="2479.0" width="1150.8"/>
  <unicode hex="0073"/>
  <anchor x="491.19999999999993" y="0.0" name="bottom"/>
  <anchor x="495.4" y="0.0" name="cedilla"/>
  <anchor x="708.0" y="1303.0" name="top"/>
  <outline>
    <contour>
      <point x="1091.6" y="798.6" type="line"/>
      <point x="1098.6" y="1004.2"/>
      <point x="948.6" y="1132.0"/>
      <point x="659.2" y="1132.0" type="curve" smooth="yes"/>
      <point x="380.59999999999997" y="1132.0"/>
      <point x="177.8" y="1007.5999999999999"/>
      <point x="142.79999999999998" y="798.1999999999999" type="curve" smooth="yes"/>
      <point x="113.80000000000001" y="625.0"/>
      <point x="206.6" y="509.8"/>
      <point x="418.4" y="466.40000000000003" type="curve" smooth="yes"/>
      <point x="604.4000000000001" y="428.2" type="line" smooth="yes"/>
      <point x="699.8000000000001" y="407.8"/>
      <point x="732.6" y="379.2"/>
      <point x="725.1999999999999" y="328.8" type="curve" smooth="yes"/>
      <point x="714.4000000000001" y="256.2"/>
      <point x="624.2" y="199.39999999999998"/>
      <point x="509.19999999999993" y="201.2" type="curve" smooth="yes"/>
      <point x="405.8" y="202.39999999999998"/>
      <point x="344.6" y="248.4"/>
      <point x="339.8" y="339.8" type="curve"/>
      <point x="37.00000000000001" y="323.8" type="line"/>
      <point x="31.599999999999994" y="112.0"/>
      <point x="194.4" y="-21.2"/>
      <point x="497.20000000000005" y="-21.2" type="curve" smooth="yes"/>
      <point x="780.8000000000001" y="-21.2"/>
      <point x="1005.2" y="117.8"/>
      <point x="1041.3999999999999" y="332.0" type="curve" smooth="yes"/>
      <point x="1068.6000000000001" y="499.8"/>
      <point x="973.8" y="602.4"/>
      <point x="764.4" y="647.0" type="curve" smooth="yes"/>
      <point x="567.8" y="688.0" type="line" smooth="yes"/>
      <point x="468.6" y="710.4"/>
      <point x="441.4" y="740.2"/>
      <point x="450.40000000000003" y="787.6" type="curve" smooth="yes"/>
      <point x="460.8" y="860.2"/>
      <point x="551.4000000000001" y="911.6"/>
      <point x="654.1999999999999" y="911.6" type="curve" smooth="yes"/>
      <point x="755.4" y="911.6"/>
      <point x="805.6" y="854.6"/>
      <point x="809.8" y="781.0" type="curve"/>
    </contour>
  </outline>
</glyph>
<glyph name="t" format="2">
  <advance height="2479.0" width="795.4"/>
  <unicode hex="0074"/>
  <anchor x="800.6" y="1562.0" name="raccent"/>
  <anchor x="345.2" y="0.0" name="bottom"/>
  <anchor x="449.0" y="0.0" name="cedilla"/>
  <anchor x="512.4" y="1520.8" name="top"/>
  <outline>
    <contour>
      <point x="811.0" y="1117.0" type="line"/>
      <point x="137.8" y="1117.0" type="line"/>
      <point x="99.2" y="884.4" type="line"/>
      <point x="772.4" y="884.4" type="line"/>
    </contour>
    <component base="_part.t_base"/>
  </outline>
</glyph>
<glyph name="u" format="2">
  <advance height="2479.0" width="1293.0"/>
  <unicode hex="0075"/>
  <anchor x="574.4" y="0.0" name="bottom"/>
  <anchor x="1057.2" y="0.0" name="ogonek"/>
  <anchor x="761.2" y="1303.0" name="top"/>
  <outline>
    <contour>
      <point x="826.8" y="476.2" type="line" smooth="yes"/>
      <point x="803.2" y="325.6"/>
      <point x="688.0" y="247.0"/>
      <point x="576.8" y="247.0" type="curve" smooth="yes"/>
      <point x="459.0" y="247.0"/>
      <point x="397.8" y="329.2"/>
      <point x="418.4" y="461.0" type="curve" smooth="yes"/>
      <point x="527.6" y="1117.0" type="line"/>
      <point x="218.2" y="1117.0" type="line"/>
      <point x="99.2" y="405.2" type="line" smooth="yes"/>
      <point x="56.39999999999999" y="144.8"/>
      <point x="182.59999999999997" y="-15.0"/>
      <point x="407.59999999999997" y="-15.0" type="curve" smooth="yes"/>
      <point x="574.4" y="-15.0"/>
      <point x="713.1999999999999" y="72.4"/>
      <point x="782.6" y="202.8" type="curve"/>
      <point x="794.0" y="202.8" type="line"/>
      <point x="760.2" y="0.0" type="line"/>
      <point x="1057.2" y="0.0" type="line"/>
      <point x="1244.2" y="1117.0" type="line"/>
      <point x="934.2" y="1117.0" type="line"/>
    </contour>
  </outline>
</glyph>
<glyph name="v" format="2">
  <advance height="2479.0" width="1199.4"/>
  <unicode hex="0076"/>
  <anchor x="507.0" y="0.0" name="bottom"/>
  <anchor x="722.0" y="1303.0" name="top"/>
  <outline>
    <contour>
      <point x="1258.2" y="1117.0" type="line"/>
      <point x="918.4000000000001" y="1117.0" type="line"/>
      <point x="554.4" y="317.6" type="line"/>
      <point x="542.8" y="317.6" type="line"/>
      <point x="444.0" y="1117.0" type="line"/>
      <point x="128.2" y="1117.0" type="line"/>
      <point x="332.4" y="0.0" type="line"/>
      <point x="681.0" y="0.0" type="line"/>
    </contour>
  </outline>
</glyph>
<glyph name="w" format="2">
  <advance height="2479.0" width="1740.8"/>
  <unicode hex="0077"/>
  <anchor x="772.0" y="0.0" name="bottom"/>
  <anchor x="992.4" y="1303.0" name="top"/>
  <outline>
    <contour>
      <point x="251.0" y="0.0" type="line"/>
      <point x="578.4" y="0.0" type="line"/>
      <point x="886.8000000000001" y="702.6" type="line"/>
      <point x="900.8000000000001" y="702.6" type="line"/>
      <point x="976.4000000000001" y="0.0" type="line"/>
      <point x="1303.8" y="0.0" type="line"/>
      <point x="1793.8" y="1117.0" type="line"/>
      <point x="1480.6" y="1117.0" type="line"/>
      <point x="1186.0" y="371.2" type="line"/>
      <point x="1175.8" y="371.2" type="line"/>
      <point x="1117.6" y="1117.0" type="line"/>
      <point x="810.4" y="1117.0" type="line"/>
      <point x="504.40000000000003" y="366.4" type="line"/>
      <point x="494.19999999999993" y="366.4" type="line"/>
      <point x="446.2" y="1117.0" type="line"/>
      <point x="133.0" y="1117.0" type="line"/>
    </contour>
  </outline>
</glyph>
<glyph name="x" format="2">
  <advance height="2479.0" width="1175.2"/>
  <unicode hex="0078"/>
  <anchor x="494.79999999999995" y="0.0" name="bottom"/>
  <anchor x="587.8" y="559.0" name="cross"/>
  <anchor x="1008.8000000000001" y="123.4" name="cyrtic"/>
  <anchor x="837.6" y="0.0" name="right"/>
  <anchor x="709.8" y="1303.0" name="top"/>
  <outline>
    <contour>
      <point x="475.8" y="1117.0" type="line"/>
      <point x="156.0" y="1117.0" type="line"/>
      <point x="382.6" y="559.0" type="line"/>
      <point x="-42.6" y="0.0" type="line"/>
      <point x="277.8" y="0.0" type="line"/>
      <point x="558.4" y="386.2" type="line"/>
      <point x="715.0" y="0.0" type="line"/>
      <point x="1031.8" y="0.0" type="line"/>
      <point x="791.4" y="559.0" type="line"/>
      <point x="1208.8" y="1117.0" type="line"/>
      <point x="890.8" y="1117.0" type="line"/>
      <point x="615.5999999999999" y="726.6" type="line"/>
    </contour>
  </outline>
</glyph>
<glyph name="y" format="2">
  <advance height="2479.0" width="1199.4"/>
  <unicode hex="0079"/>
  <anchor x="849.1999999999999" y="-19.6" name="bottom"/>
  <anchor x="635.4000000000001" y="-419.0" name="ogonek"/>
  <anchor x="721.6" y="1303.0" name="top"/>
  <outline>
    <contour>
      <point x="153.4" y="-419.0" type="curve" smooth="yes"/>
      <point x="381.79999999999995" y="-419.0"/>
      <point x="525.2" y="-302.8"/>
      <point x="619.4" y="-120.2" type="curve" smooth="yes"/>
      <point x="1258.2" y="1117.0" type="line"/>
      <point x="918.4000000000001" y="1117.0" type="line"/>
      <point x="548.4000000000001" y="295.40000000000003" type="line"/>
      <point x="536.8000000000001" y="295.40000000000003" type="line"/>
      <point x="442.2" y="1117.0" type="line"/>
      <point x="128.2" y="1117.0" type="line"/>
      <point x="337.20000000000005" y="-29.4" type="line"/>
      <point x="310.2" y="-76.8" type="line" smooth="yes"/>
      <point x="249.60000000000002" y="-181.4"/>
      <point x="175.4" y="-189.0"/>
      <point x="72.0" y="-155.8" type="curve"/>
      <point x="-37.0" y="-387.6" type="line"/>
      <point x="5.399999999999989" y="-405.2"/>
      <point x="74.4" y="-419.0"/>
    </contour>
  </outline>
</glyph>
<glyph name="z" format="2">
  <advance height="2479.0" width="1174.6"/>
  <unicode hex="007A"/>
  <anchor x="492.4" y="0.0" name="bottom"/>
  <anchor x="584.1999999999999" y="559.0" name="cross"/>
  <anchor x="708.0" y="1303.0" name="top"/>
  <outline>
    <contour>
      <point x="26.599999999999998" y="0.0" type="line"/>
      <point x="967.4" y="0.0" type="line"/>
      <point x="1007.1999999999999" y="247.0" type="line"/>
      <point x="474.6" y="247.0" type="line"/>
      <point x="477.6" y="255.39999999999998" type="line"/>
      <point x="1101.0" y="915.8" type="line"/>
      <point x="1132.3999999999999" y="1117.0" type="line"/>
      <point x="231.79999999999998" y="1117.0" type="line"/>
      <point x="189.79999999999998" y="870.0" type="line"/>
      <point x="718.0" y="870.0" type="line"/>
      <point x="715.0" y="861.6" type="line"/>
      <point x="56.8" y="185.0" type="line"/>
    </contour>
  </outline>
</glyph>
<glyph name="braceleft" format="2">
  <advance height="2479.0" width="838.0"/>
  <unicode hex="007B"/>
  <outline>
    <contour>
      <point x="66.0" y="590.2" type="line"/>
      <point x="502.4" y="590.2"/>
      <point x="609.0" y="718.6"/>
      <point x="632.6" y="866.4" type="curve" smooth="yes"/>
      <point x="668.2" y="1078.4" type="line" smooth="yes"/>
      <point x="690.6" y="1220.4"/>
      <point x="736.6" y="1286.2"/>
      <point x="909.1999999999999" y="1286.2" type="curve"/>
      <point x="947.8" y="1517.0" type="line"/>
      <point x="653.8" y="1517.0"/>
      <point x="432.40000000000003" y="1468.8"/>
      <point x="376.8" y="1110.2" type="curve" smooth="yes"/>
      <point x="350.8" y="949.0" type="line" smooth="yes"/>
      <point x="327.2" y="799.4"/>
      <point x="257.8" y="737.0"/>
      <point x="91.2" y="737.0" type="curve"/>
    </contour>
    <contour>
      <point x="643.0" y="-323.4" type="curve"/>
      <point x="682.0" y="-92.2" type="line"/>
      <point x="509.40000000000003" y="-92.2"/>
      <point x="484.6" y="-26.4"/>
      <point x="508.20000000000005" y="115.2" type="curve" smooth="yes"/>
      <point x="543.8000000000001" y="327.6" type="line" smooth="yes"/>
      <point x="567.4" y="475.0"/>
      <point x="504.2" y="603.4"/>
      <point x="67.80000000000001" y="603.4" type="curve"/>
      <point x="44.8" y="457.0" type="line"/>
      <point x="213.2" y="457.0"/>
      <point x="255.60000000000002" y="394.2"/>
      <point x="232.0" y="245.0" type="curve" smooth="yes"/>
      <point x="206.60000000000002" y="83.4" type="line" smooth="yes"/>
      <point x="150.4" y="-274.8"/>
      <point x="349.0" y="-323.4"/>
    </contour>
    <contour>
      <point x="41.8" y="457.0" type="line"/>
      <point x="302.2" y="457.0" type="line"/>
      <point x="349.0" y="737.0" type="line"/>
      <point x="88.2" y="737.0" type="line"/>
    </contour>
  </outline>
</glyph>
<glyph name="bar" format="2">
  <advance height="2479.0" width="765.0"/>
  <unicode hex="007C"/>
  <outline>
    <contour>
      <point x="763.0" y="1969.0" type="line"/>
      <point x="469.20000000000005" y="1969.0" type="line"/>
      <point x="64.19999999999999" y="-480.0" type="line"/>
      <point x="357.79999999999995" y="-480.0" type="line"/>
    </contour>
  </outline>
</glyph>
<glyph name="asciitilde" format="2">
  <advance height="2479.0" width="1392.0"/>
  <unicode hex="007E"/>
  <outline>
    <contour>
      <point x="130.6" y="401.8" type="curve"/>
      <point x="368.0" y="401.8" type="line"/>
      <point x="385.4" y="523.1999999999999"/>
      <point x="444.0" y="570.8"/>
      <point x="511.79999999999995" y="570.8" type="curve" smooth="yes"/>
      <point x="563.0" y="570.8"/>
      <point x="587.0" y="550.6"/>
      <point x="639.6" y="498.0" type="curve" smooth="yes"/>
      <point x="727.4000000000001" y="410.2"/>
      <point x="795.4" y="371.2"/>
      <point x="892.6" y="371.2" type="curve" smooth="yes"/>
      <point x="1084.8" y="371.2"/>
      <point x="1238.0" y="520.8000000000001"/>
      <point x="1274.8" y="795.4" type="curve"/>
      <point x="1037.3999999999999" y="795.4" type="line"/>
      <point x="1019.8" y="679.4"/>
      <point x="962.4000000000001" y="626.8"/>
      <point x="891.8000000000001" y="626.8" type="curve" smooth="yes"/>
      <point x="841.6" y="626.8"/>
      <point x="813.2" y="653.4"/>
      <point x="764.8" y="702.4" type="curve" smooth="yes"/>
      <point x="672.2" y="795.0"/>
      <point x="604.2" y="829.2"/>
      <point x="511.8" y="829.2" type="curve" smooth="yes"/>
      <point x="314.8" y="829.2"/>
      <point x="166.79999999999998" y="678.6"/>
    </contour>
  </outline>
</glyph>
<glyph name="cent" format="2">
  <advance height="2479.0" width="1202.0"/>
  <unicode hex="00A2"/>
  <anchor x="570.5999999999999" y="189.8" name="cedilla"/>
  <anchor x="780.8" y="1492.8" name="top"/>
  <outline>
    <contour>
      <point x="462.0" y="0.0" type="line"/>
      <point x="581.4" y="0.0" type="line"/>
      <point x="848.1999999999999" y="1489.0" type="line"/>
      <point x="729.1999999999999" y="1489.0" type="line"/>
    </contour>
    <component base="c" xOffset="31.4" yOffset="189.8"/>
  </outline>
</glyph>
<glyph name="sterling" format="2">
  <advance height="2479.0" width="1375.4"/>
  <unicode hex="00A3"/>
  <outline>
    <contour>
      <point x="1133.2" y="0.0" type="line"/>
      <point x="1177.2" y="259.6" type="line"/>
      <point x="94.6" y="259.6" type="line"/>
      <point x="51.19999999999999" y="0.0" type="line"/>
    </contour>
    <contour>
      <point x="943.4" y="592.8" type="line"/>
      <point x="986.2" y="841.0" type="line"/>
      <point x="188.2" y="841.0" type="line"/>
      <point x="144.8" y="592.8" type="line"/>
    </contour>
    <contour>
      <point x="686.0" y="1068.4" type="line"/>
      <point x="706.8" y="1196.4"/>
      <point x="787.4" y="1257.6"/>
      <point x="879.0" y="1257.6" type="curve" smooth="yes"/>
      <point x="972.1999999999999" y="1257.6"/>
      <point x="1046.0" y="1211.0"/>
      <point x="1022.4000000000001" y="1088.2" type="curve"/>
      <point x="1315.0" y="1080.0" type="line"/>
      <point x="1369.0" y="1331.0"/>
      <point x="1219.2" y="1510.0"/>
      <point x="916.2" y="1510.0" type="curve" smooth="yes"/>
      <point x="644.2" y="1510.0"/>
      <point x="412.2" y="1352.4"/>
      <point x="376.0" y="1068.4" type="curve" smooth="yes"/>
      <point x="293.2" y="431.6" type="line" smooth="yes"/>
      <point x="282.4" y="354.8"/>
      <point x="255.2" y="273.4"/>
      <point x="189.8" y="259.6" type="curve"/>
      <point x="373.2" y="170.0" type="line"/>
      <point x="523.8000000000001" y="232.6"/>
      <point x="589.4" y="316.2"/>
      <point x="606.4000000000001" y="449.0" type="curve" smooth="yes"/>
    </contour>
  </outline>
</glyph>
<glyph name="currency" format="2">
  <advance height="2479.0" width="1566.2"/>
  <unicode hex="00A4"/>
  <outline>
    <contour>
      <point x="687.4" y="-20.0" type="curve" smooth="yes"/>
      <point x="1021.8" y="-20.0"/>
      <point x="1344.8000000000002" y="253.0"/>
      <point x="1404.0" y="608.0" type="curve" smooth="yes"/>
      <point x="1461.4" y="963.0"/>
      <point x="1228.3999999999999" y="1233.0"/>
      <point x="893.8" y="1233.0" type="curve" smooth="yes"/>
      <point x="555.1999999999999" y="1233.0"/>
      <point x="236.6" y="963.0"/>
      <point x="179.2" y="608.0" type="curve"/>
      <point x="120.0" y="253.0"/>
      <point x="348.8" y="-20.0"/>
    </contour>
    <contour>
      <point x="718.1999999999999" y="169.4" type="curve" smooth="yes"/>
      <point x="478.99999999999994" y="169.4"/>
      <point x="322.6" y="362.2"/>
      <point x="365.0" y="608.0" type="curve"/>
      <point x="406.6" y="856.2"/>
      <point x="624.5999999999999" y="1046.6"/>
      <point x="863.8" y="1046.6" type="curve" smooth="yes"/>
      <point x="1098.0" y="1046.6"/>
      <point x="1258.0" y="856.2"/>
      <point x="1217.0" y="608.0" type="curve" smooth="yes"/>
      <point x="1174.6" y="362.2"/>
      <point x="953.0" y="169.4"/>
    </contour>
    <contour>
      <point x="1285.0" y="914.8" type="line"/>
      <point x="1529.0" y="1121.2" type="line"/>
      <point x="1411.2" y="1264.2" type="line"/>
      <point x="1169.8" y="1057.8" type="line"/>
    </contour>
    <contour>
      <point x="1195.2" y="-25.2" type="line"/>
      <point x="1361.0" y="118.2" type="line"/>
      <point x="1186.6" y="321.8" type="line"/>
      <point x="1023.8" y="181.8" type="line"/>
    </contour>
    <contour>
      <point x="178.39999999999998" y="-25.2" type="line"/>
      <point x="421.8" y="181.8" type="line"/>
      <point x="303.6" y="321.8" type="line"/>
      <point x="63.2" y="118.2" type="line"/>
    </contour>
    <contour>
      <point x="402.0" y="914.8" type="line"/>
      <point x="567.8000000000001" y="1057.8" type="line"/>
      <point x="394.0" y="1264.2" type="line"/>
      <point x="230.6" y="1121.2" type="line"/>
    </contour>
  </outline>
</glyph>
<glyph name="yen" format="2">
  <advance height="2479.0" width="1171.6"/>
  <unicode hex="00A5"/>
  <outline>
    <contour>
      <point x="506.40000000000003" y="1489.0" type="line"/>
      <point x="183.0" y="1489.0" type="line"/>
      <point x="449.4" y="577.4" type="line"/>
      <point x="689.2" y="738.6" type="line"/>
    </contour>
    <contour>
      <point x="547.0" y="745.8" type="line"/>
      <point x="725.4" y="577.4" type="line"/>
      <point x="1296.6" y="1489.0" type="line"/>
      <point x="973.8" y="1489.0" type="line"/>
    </contour>
    <contour>
      <point x="774.8000000000001" y="784.2" type="line"/>
      <point x="463.4" y="784.2" type="line"/>
      <point x="333.0" y="0.0" type="line"/>
      <point x="644.2" y="0.0" type="line"/>
    </contour>
    <contour>
      <point x="1065.8" y="767.8" type="line"/>
      <point x="143.20000000000002" y="767.8" type="line"/>
      <point x="113.80000000000001" y="588.2" type="line"/>
      <point x="1037.0" y="588.2" type="line"/>
    </contour>
    <contour>
      <point x="1019.3999999999999" y="479.8" type="line"/>
      <point x="96.80000000000001" y="479.8" type="line"/>
      <point x="66.0" y="300.2" type="line"/>
      <point x="988.5999999999999" y="300.2" type="line"/>
    </contour>
  </outline>
</glyph>
<glyph name="brokenbar" format="2">
  <advance height="2479.0" width="706.6"/>
  <unicode hex="00A6"/>
  <outline>
    <contour>
      <point x="190.60000000000002" y="415.4" type="line"/>
      <point x="74.80000000000001" y="-279.0" type="line"/>
      <point x="351.79999999999995" y="-279.0" type="line"/>
      <point x="466.99999999999994" y="415.4" type="line"/>
    </contour>
    <contour>
      <point x="645.8" y="1489.0" type="line"/>
      <point x="368.8" y="1489.0" type="line"/>
      <point x="254.0" y="797.6" type="line"/>
      <point x="531.0" y="797.6" type="line"/>
    </contour>
  </outline>
</glyph>
<glyph name="section" format="2">
  <advance height="2479.0" width="1214.2"/>
  <unicode hex="00A7"/>
  <outline>
    <contour>
      <point x="1113.4" y="1119.6" type="line"/>
      <point x="1149.6000000000001" y="1345.2"/>
      <point x="1008.4" y="1510.0"/>
      <point x="753.8" y="1510.0" type="curve" smooth="yes"/>
      <point x="507.8" y="1510.0"/>
      <point x="311.2" y="1356.2"/>
      <point x="276.2" y="1148.0" type="curve" smooth="yes"/>
      <point x="258.0" y="1035.4"/>
      <point x="292.40000000000003" y="949.6"/>
      <point x="354.0" y="877.8" type="curve"/>
      <point x="354.0" y="875.4" type="line"/>
      <point x="275.8" y="854.8"/>
      <point x="166.0" y="794.0"/>
      <point x="135.2" y="672.2" type="curve" smooth="yes"/>
      <point x="82.8" y="458.6"/>
      <point x="236.60000000000002" y="368.6"/>
      <point x="312.59999999999997" y="333.0" type="curve" smooth="yes"/>
      <point x="569.2" y="207.2" type="line" smooth="yes"/>
      <point x="618.8" y="180.4"/>
      <point x="691.8" y="137.6"/>
      <point x="679.8" y="62.4" type="curve" smooth="yes"/>
      <point x="667.5999999999999" y="-9.0"/>
      <point x="585.4" y="-38.2"/>
      <point x="511.0" y="-40.0" type="curve" smooth="yes"/>
      <point x="397.4" y="-45.400000000000006"/>
      <point x="335.6" y="6.799999999999997"/>
      <point x="350.79999999999995" y="98.8" type="curve"/>
      <point x="77.80000000000001" y="98.8" type="line"/>
      <point x="37.400000000000006" y="-144.4"/>
      <point x="195.6" y="-301.2"/>
      <point x="464.0" y="-301.2" type="curve" smooth="yes"/>
      <point x="708.2" y="-301.2"/>
      <point x="916.9999999999999" y="-167.4"/>
      <point x="956.2" y="62.4" type="curve" smooth="yes"/>
      <point x="973.5999999999999" y="172.8"/>
      <point x="945.4" y="261.0"/>
      <point x="874.2" y="332.8" type="curve"/>
      <point x="879.6" y="335.8" type="line"/>
      <point x="946.4" y="354.6"/>
      <point x="1064.0" y="416.6"/>
      <point x="1095.4" y="538.4" type="curve" smooth="yes"/>
      <point x="1149.6" y="749.6"/>
      <point x="992.8" y="839.0"/>
      <point x="922.8000000000001" y="874.0" type="curve" smooth="yes"/>
      <point x="663.2" y="1003.4" type="line" smooth="yes"/>
      <point x="609.4" y="1026.4"/>
      <point x="537.4" y="1078.0"/>
      <point x="550.1999999999999" y="1148.0" type="curve" smooth="yes"/>
      <point x="561.0" y="1217.0"/>
      <point x="632.4000000000001" y="1251.0"/>
      <point x="709.4" y="1251.0" type="curve" smooth="yes"/>
      <point x="811.0" y="1251.0"/>
      <point x="854.4000000000001" y="1194.6"/>
      <point x="841.1999999999999" y="1119.6" type="curve"/>
    </contour>
    <contour>
      <point x="837.5999999999999" y="522.2" type="curve"/>
      <point x="821.8000000000001" y="460.8"/>
      <point x="753.8000000000001" y="425.6"/>
      <point x="711.4" y="446.8" type="curve" smooth="yes"/>
      <point x="488.4" y="555.2" type="line" smooth="yes"/>
      <point x="411.79999999999995" y="590.2"/>
      <point x="375.59999999999997" y="636.2"/>
      <point x="391.2" y="687.8" type="curve" smooth="yes"/>
      <point x="407.0" y="748.6"/>
      <point x="470.8" y="788.0"/>
      <point x="519.0" y="763.8" type="curve" smooth="yes"/>
      <point x="743.8" y="654.2" type="line" smooth="yes"/>
      <point x="821.0" y="618.6"/>
      <point x="853.8" y="572.0"/>
    </contour>
  </outline>
</glyph>
<glyph name="dieresis" format="2">
  <advance height="2479.0" width="1094.8"/>
  <unicode hex="00A8"/>
  <anchor x="669.4" y="1303.0" name="_top"/>
  <anchor x="733.4" y="1676.0" name="top"/>
  <outline>
    <contour>
      <point x="460.8" y="1270.0" type="curve" smooth="yes"/>
      <point x="536.8000000000001" y="1270.0"/>
      <point x="605.0" y="1328.4"/>
      <point x="615.8000000000001" y="1399.0" type="curve" smooth="yes"/>
      <point x="630.8000000000001" y="1491.2"/>
      <point x="568.2" y="1565.4"/>
      <point x="474.8" y="1565.4" type="curve" smooth="yes"/>
      <point x="400.0" y="1565.4"/>
      <point x="330.0" y="1509.3999999999999"/>
      <point x="317.40000000000003" y="1436.4" type="curve" smooth="yes"/>
      <point x="303.6" y="1346.6"/>
      <point x="368.6" y="1270.0"/>
    </contour>
    <contour>
      <point x="906.2" y="1270.0" type="curve" smooth="yes"/>
      <point x="982.2" y="1270.0"/>
      <point x="1049.8" y="1328.4"/>
      <point x="1060.6" y="1399.0" type="curve" smooth="yes"/>
      <point x="1076.2" y="1491.2"/>
      <point x="1013.6" y="1565.4"/>
      <point x="919.6" y="1565.4" type="curve" smooth="yes"/>
      <point x="845.4" y="1565.4"/>
      <point x="775.2" y="1509.3999999999999"/>
      <point x="762.8000000000001" y="1436.4" type="curve" smooth="yes"/>
      <point x="747.6" y="1345.4"/>
      <point x="814.0" y="1270.0"/>
    </contour>
  </outline>
</glyph>
<glyph name="copyright" format="2">
  <advance height="2479.0" width="1873.0"/>
  <unicode hex="00A9"/>
  <outline>
    <contour>
      <point x="562.8" y="745.0" type="curve" smooth="yes"/>
      <point x="525.1999999999999" y="518.6"/>
      <point x="678.8" y="334.6"/>
      <point x="904.8000000000001" y="334.6" type="curve" smooth="yes"/>
      <point x="1104.0" y="334.6"/>
      <point x="1288.8" y="477.2"/>
      <point x="1342.2" y="665.8" type="curve"/>
      <point x="1126.0" y="665.8" type="line"/>
      <point x="1098.2" y="592.0"/>
      <point x="1015.2" y="541.6"/>
      <point x="927.4000000000001" y="541.6" type="curve" smooth="yes"/>
      <point x="812.1999999999999" y="541.6"/>
      <point x="751.4000000000001" y="635.4000000000001"/>
      <point x="769.8000000000001" y="745.6" type="curve" smooth="yes"/>
      <point x="789.4000000000001" y="867.0"/>
      <point x="899.0" y="948.0"/>
      <point x="1012.6" y="948.0" type="curve" smooth="yes"/>
      <point x="1101.8" y="948.0"/>
      <point x="1155.3999999999999" y="898.4"/>
      <point x="1158.3999999999999" y="824.2" type="curve"/>
      <point x="1374.6" y="824.2" type="line"/>
      <point x="1382.8" y="1011.8"/>
      <point x="1239.4" y="1154.8"/>
      <point x="1040.6000000000001" y="1154.8" type="curve" smooth="yes"/>
      <point x="814.1999999999999" y="1154.8"/>
      <point x="600.0" y="971.0"/>
    </contour>
    <component base="whiteCircle" xOffset="0.4"/>
  </outline>
</glyph>
<glyph name="ordfeminine" format="2">
  <advance height="2479.0" width="997.6"/>
  <unicode hex="00AA"/>
  <outline>
    <contour>
      <point x="673.0" y="861.0" type="line"/>
      <point x="664.4" y="805.4"/>
      <point x="666.2" y="750.0"/>
      <point x="671.8" y="705.2" type="curve"/>
      <point x="854.6" y="705.2" type="line"/>
      <point x="842.6" y="768.6"/>
      <point x="848.6" y="830.2"/>
      <point x="858.8" y="887.0" type="curve" smooth="yes"/>
      <point x="911.4" y="1201.0" type="line"/>
      <point x="940.4" y="1385.0"/>
      <point x="834.8" y="1478.0"/>
      <point x="655.4" y="1478.0" type="curve" smooth="yes"/>
      <point x="462.79999999999995" y="1478.0"/>
      <point x="320.4" y="1379.0"/>
      <point x="297.4" y="1243.2" type="curve"/>
      <point x="472.6" y="1231.0" type="line"/>
      <point x="484.6" y="1295.0"/>
      <point x="542.6" y="1329.0"/>
      <point x="631.4" y="1329.0" type="curve" smooth="yes"/>
      <point x="714.0" y="1329.0"/>
      <point x="743.0" y="1282.4"/>
      <point x="731.0" y="1201.0" type="curve"/>
    </contour>
    <contour>
      <point x="767.8" y="1150.2" type="line"/>
      <point x="619.2" y="1150.2" type="line"/>
      <point x="382.0" y="1150.2"/>
      <point x="252.2" y="1068.0"/>
      <point x="229.2" y="919.0" type="curve" smooth="yes"/>
      <point x="206.2" y="783.0"/>
      <point x="283.0" y="692.0"/>
      <point x="446.6" y="692.0" type="curve" smooth="yes"/>
      <point x="587.2" y="692.0"/>
      <point x="676.0" y="767.4"/>
      <point x="718.8" y="833.2" type="curve"/>
      <point x="718.8" y="951.0" type="line"/>
      <point x="712.8" y="902.0"/>
      <point x="598.6" y="836.2"/>
      <point x="515.4" y="836.2" type="curve" smooth="yes"/>
      <point x="432.6" y="836.2"/>
      <point x="401.8" y="870.0"/>
      <point x="409.8" y="923.2" type="curve" smooth="yes"/>
      <point x="418.8" y="981.2"/>
      <point x="480.4" y="1034.2"/>
      <point x="598.6" y="1034.2" type="curve"/>
      <point x="747.8" y="1034.2" type="line"/>
    </contour>
  </outline>
</glyph>
<glyph name="logicalnot" format="2">
  <advance height="2479.0" width="1187.2"/>
  <unicode hex="00AC"/>
  <outline>
    <contour>
      <point x="1066.6" y="806.0" type="line"/>
      <point x="207.0" y="806.0" type="line"/>
      <point x="178.0" y="634.0" type="line"/>
      <point x="1037.0" y="634.0" type="line"/>
    </contour>
    <contour>
      <point x="1055.0" y="727.0" type="line"/>
      <point x="848.6" y="727.0" type="line"/>
      <point x="790.6" y="375.0" type="line"/>
      <point x="997.0" y="375.0" type="line"/>
    </contour>
  </outline>
</glyph>
<glyph name="registered" format="2">
  <advance height="2479.0" width="1359.2"/>
  <unicode hex="00AE"/>
  <outline>
    <contour>
      <point x="489.2" y="666.0" type="line"/>
      <point x="628.8" y="666.0" type="line"/>
      <point x="700.4" y="1099.8" type="line"/>
      <point x="789.0" y="1099.8" type="line" smooth="yes"/>
      <point x="827.4" y="1099.8"/>
      <point x="859.4" y="1078.4"/>
      <point x="851.1999999999999" y="1025.0" type="curve" smooth="yes"/>
      <point x="843.4" y="974.2"/>
      <point x="803.4" y="947.6"/>
      <point x="763.0" y="947.6" type="curve" smooth="yes"/>
      <point x="612.5999999999999" y="947.6" type="line"/>
      <point x="596.1999999999999" y="846.2" type="line"/>
      <point x="776.0" y="846.2" type="line" smooth="yes"/>
      <point x="881.2" y="846.2"/>
      <point x="978.2" y="910.6"/>
      <point x="998.0" y="1025.0" type="curve" smooth="yes"/>
      <point x="1017.8000000000001" y="1138.4"/>
      <point x="942.2" y="1203.0"/>
      <point x="840.6" y="1203.0" type="curve" smooth="yes"/>
      <point x="578.2" y="1203.0" type="line"/>
    </contour>
    <contour>
      <point x="873.5999999999999" y="914.2" type="line"/>
      <point x="728.6" y="914.2" type="line"/>
      <point x="801.4" y="666.0" type="line"/>
      <point x="954.4" y="666.0" type="line"/>
    </contour>
    <contour>
      <point x="740.8" y="346.0" type="curve" smooth="yes"/>
      <point x="1062.6000000000001" y="346.0"/>
      <point x="1322.4" y="607.0"/>
      <point x="1322.4" y="928.0" type="curve" smooth="yes"/>
      <point x="1322.8000000000002" y="1249.0"/>
      <point x="1061.3999999999999" y="1510.0"/>
      <point x="740.8" y="1510.0" type="curve" smooth="yes"/>
      <point x="419.0" y="1510.0"/>
      <point x="158.4" y="1249.0"/>
      <point x="158.8" y="928.0" type="curve" smooth="yes"/>
      <point x="159.20000000000002" y="607.0"/>
      <point x="419.0" y="346.0"/>
    </contour>
    <contour>
      <point x="740.8" y="499.8" type="curve" smooth="yes"/>
      <point x="504.2" y="499.8"/>
      <point x="312.2" y="691.8"/>
      <point x="312.2" y="928.0" type="curve" smooth="yes"/>
      <point x="312.59999999999997" y="1164.2"/>
      <point x="504.2" y="1356.2"/>
      <point x="740.8" y="1356.2" type="curve" smooth="yes"/>
      <point x="976.6" y="1356.2"/>
      <point x="1168.6" y="1164.2"/>
      <point x="1169.0" y="928.0" type="curve" smooth="yes"/>
      <point x="1169.4" y="691.8000000000001"/>
      <point x="977.8000000000001" y="499.8"/>
    </contour>
  </outline>
</glyph>
<glyph name="macron" format="2">
  <advance height="2479.0" width="1158.3999999999999"/>
  <unicode hex="00AF"/>
  <anchor x="702.6" y="1303.0" name="_top"/>
  <outline>
    <contour>
      <point x="1086.6" y="1489.0" type="line"/>
      <point x="376.2" y="1489.0" type="line"/>
      <point x="349.6" y="1321.2" type="line"/>
      <point x="1060.0" y="1321.2" type="line"/>
    </contour>
  </outline>
</glyph>
<glyph name="degree" format="2">
  <advance height="2479.0" width="941.2"/>
  <unicode hex="00B0"/>
  <outline>
    <contour>
      <point x="566.6" y="784.6" type="curve" smooth="yes"/>
      <point x="764.2" y="784.6"/>
      <point x="924.0" y="944.8"/>
      <point x="924.0" y="1142.4" type="curve" smooth="yes"/>
      <point x="924.0" y="1339.6"/>
      <point x="764.2" y="1499.2"/>
      <point x="566.6" y="1499.2" type="curve" smooth="yes"/>
      <point x="369.0" y="1499.2"/>
      <point x="209.4" y="1339.6"/>
      <point x="209.4" y="1142.4" type="curve" smooth="yes"/>
      <point x="209.4" y="944.8"/>
      <point x="369.0" y="784.6"/>
    </contour>
    <contour>
      <point x="566.6" y="991.4" type="curve" smooth="yes"/>
      <point x="483.2" y="991.4"/>
      <point x="416.0" y="1059.0"/>
      <point x="416.0" y="1142.4" type="curve" smooth="yes"/>
      <point x="416.0" y="1225.4"/>
      <point x="483.2" y="1293.0"/>
      <point x="566.6" y="1293.0" type="curve" smooth="yes"/>
      <point x="650.0" y="1293.0"/>
      <point x="717.1999999999999" y="1225.4"/>
      <point x="717.1999999999999" y="1142.4" type="curve" smooth="yes"/>
      <point x="717.1999999999999" y="1059.0"/>
      <point x="650.0" y="991.4"/>
    </contour>
  </outline>
</glyph>
<glyph name="plusminus" format="2">
  <advance height="2479.0" width="1392.0"/>
  <unicode hex="00B1"/>
  <outline>
    <contour>
      <point x="100.39999999999999" y="56.2" type="line"/>
      <point x="1125.0" y="56.2" type="line"/>
      <point x="1164.8" y="302.6" type="line"/>
      <point x="140.79999999999998" y="302.6" type="line"/>
    </contour>
    <contour>
      <point x="201.2" y="660.6" type="line"/>
      <point x="1225.2" y="660.6" type="line"/>
      <point x="1265.6" y="900.4" type="line"/>
      <point x="241.6" y="900.4" type="line"/>
    </contour>
    <contour>
      <point x="540.6" y="409.6" type="line"/>
      <point x="800.8000000000001" y="409.6" type="line"/>
      <point x="924.6" y="1151.8" type="line"/>
      <point x="664.1999999999999" y="1151.8" type="line"/>
    </contour>
  </outline>
</glyph>
<glyph name="twosuperior" format="2">
  <advance height="2479.0" width="865.2"/>
  <unicode hex="00B2"/>
  <anchor x="731.0" y="1231.0" name="cross"/>
  <outline>
    <contour>
      <point x="119.0" y="745.0" type="line"/>
      <point x="829.4" y="745.0" type="line"/>
      <point x="857.8" y="927.0" type="line"/>
      <point x="467.40000000000003" y="927.0" type="line"/>
      <point x="468.6" y="934.8" type="line"/>
      <point x="618.1999999999999" y="1030.2" type="line" smooth="yes"/>
      <point x="827.5999999999999" y="1153.3999999999999"/>
      <point x="899.4" y="1245.8"/>
      <point x="917.4" y="1361.6" type="curve" smooth="yes"/>
      <point x="940.4" y="1519.8"/>
      <point x="830.0" y="1649.0"/>
      <point x="608.0" y="1649.0" type="curve" smooth="yes"/>
      <point x="397.4" y="1649.0"/>
      <point x="231.4" y="1533.0"/>
      <point x="203.6" y="1350.2" type="curve"/>
      <point x="418.79999999999995" y="1350.2" type="line"/>
      <point x="433.79999999999995" y="1433.0"/>
      <point x="505.2" y="1473.6"/>
      <point x="586.8" y="1473.6" type="curve" smooth="yes"/>
      <point x="670.8" y="1473.6"/>
      <point x="726.4" y="1434.2"/>
      <point x="715.0" y="1364.6" type="curve" smooth="yes"/>
      <point x="703.0" y="1297.0"/>
      <point x="640.1999999999999" y="1255.8"/>
      <point x="548.1999999999999" y="1188.6" type="curve" smooth="yes"/>
      <point x="143.20000000000002" y="905.4" type="line"/>
    </contour>
  </outline>
</glyph>
<glyph name="threesuperior" format="2">
  <advance height="2479.0" width="903.0"/>
  <unicode hex="00B3"/>
  <outline>
    <contour>
      <point x="489.6" y="733.0" type="curve" smooth="yes"/>
      <point x="717.0" y="733.0"/>
      <point x="886.0" y="837.4"/>
      <point x="910.8" y="989.6" type="curve" smooth="yes"/>
      <point x="927.8" y="1104.8"/>
      <point x="852.1999999999999" y="1189.4"/>
      <point x="721.2" y="1202.2" type="curve"/>
      <point x="721.2" y="1210.0" type="line"/>
      <point x="839.6" y="1225.6000000000001"/>
      <point x="921.1999999999999" y="1278.1999999999998"/>
      <point x="937.4" y="1379.1999999999998" type="curve" smooth="yes"/>
      <point x="960.4" y="1524.0"/>
      <point x="842.5999999999999" y="1649.0"/>
      <point x="624.2" y="1649.0" type="curve" smooth="yes"/>
      <point x="427.6" y="1649.0"/>
      <point x="255.0" y="1542.6000000000001"/>
      <point x="226.0" y="1383.8" type="curve"/>
      <point x="440.4" y="1383.8" type="line"/>
      <point x="451.4" y="1440.8"/>
      <point x="541.4" y="1473.6"/>
      <point x="618.1999999999999" y="1473.6" type="curve" smooth="yes"/>
      <point x="702.8" y="1473.6"/>
      <point x="732.6" y="1440.2"/>
      <point x="723.4" y="1390.0" type="curve" smooth="yes"/>
      <point x="711.4" y="1330.6000000000001"/>
      <point x="642.4" y="1282.2"/>
      <point x="548.1999999999999" y="1282.2" type="curve" smooth="yes"/>
      <point x="450.4" y="1282.2" type="line"/>
      <point x="425.79999999999995" y="1117.2" type="line"/>
      <point x="531.8" y="1117.2" type="line" smooth="yes"/>
      <point x="638.2" y="1117.2"/>
      <point x="693.4" y="1086.8"/>
      <point x="682.4" y="1025.2" type="curve" smooth="yes"/>
      <point x="671.0" y="962.8"/>
      <point x="594.1999999999999" y="918.0"/>
      <point x="497.40000000000003" y="918.0" type="curve" smooth="yes"/>
      <point x="415.2" y="918.0"/>
      <point x="359.59999999999997" y="949.6"/>
      <point x="366.2" y="1003.4" type="curve"/>
      <point x="142.6" y="1003.4" type="line"/>
      <point x="119.6" y="842.8"/>
      <point x="262.6" y="733.0"/>
    </contour>
  </outline>
</glyph>
<glyph name="micro" format="2">
  <advance height="2479.0" width="1364.6"/>
  <unicode hex="00B5"/>
  <outline>
    <contour>
      <point x="-35.4" y="-405.2" type="line"/>
      <point x="262.0" y="-405.2" type="line"/>
      <point x="355.59999999999997" y="158.8" type="line"/>
      <point x="364.2" y="158.8" type="line"/>
      <point x="393.2" y="63.4"/>
      <point x="480.20000000000005" y="6.0"/>
      <point x="590.2" y="6.0" type="curve" smooth="yes"/>
      <point x="703.2" y="6.0"/>
      <point x="807.1999999999999" y="63.4"/>
      <point x="869.4000000000001" y="158.8" type="curve"/>
      <point x="878.0" y="158.8" type="line"/>
      <point x="850.1999999999999" y="0.0" type="line"/>
      <point x="1148.2" y="0.0" type="line"/>
      <point x="1334.2" y="1117.0" type="line"/>
      <point x="1024.6000000000001" y="1117.0" type="line"/>
      <point x="917.8000000000001" y="476.2" type="line" smooth="yes"/>
      <point x="896.0" y="340.79999999999995"/>
      <point x="779.4" y="247.0"/>
      <point x="631.2" y="247.0" type="curve" smooth="yes"/>
      <point x="484.2" y="247.0"/>
      <point x="397.8" y="340.8"/>
      <point x="419.59999999999997" y="476.2" type="curve" smooth="yes"/>
      <point x="526.4" y="1117.0" type="line"/>
      <point x="217.0" y="1117.0" type="line"/>
    </contour>
  </outline>
</glyph>
<glyph name="paragraph" format="2">
  <advance height="2479.0" width="1249.0"/>
  <unicode hex="00B6"/>
  <outline>
    <contour>
      <point x="1095.2" y="1251.0" type="line"/>
      <point x="1136.0" y="1489.0" type="line"/>
      <point x="759.6" y="1489.0" type="line" smooth="yes"/>
      <point x="432.40000000000003" y="1489.0"/>
      <point x="222.2" y="1289.0"/>
      <point x="175.79999999999998" y="1021.0" type="curve" smooth="yes"/>
      <point x="132.2" y="751.0"/>
      <point x="277.8" y="553.0"/>
      <point x="605.6" y="553.0" type="curve" smooth="yes"/>
      <point x="691.8" y="553.0" type="line"/>
      <point x="806.0" y="1251.0" type="line"/>
    </contour>
    <contour>
      <point x="779.4" y="0.0" type="line"/>
      <point x="1025.4" y="0.0" type="line"/>
      <point x="1273.0" y="1489.0" type="line"/>
      <point x="1026.4" y="1489.0" type="line"/>
    </contour>
  </outline>
</glyph>
<glyph name="cedilla" format="2">
  <advance height="2479.0" width="766.6"/>
  <unicode hex="00B8"/>
  <anchor x="292.8" y="0.0" name="_cedilla"/>
  <outline>
    <contour>
      <point x="223.4" y="6.0" type="line"/>
      <point x="164.79999999999998" y="-141.8" type="line"/>
      <point x="263.20000000000005" y="-154.0"/>
      <point x="305.0" y="-182.20000000000002"/>
      <point x="293.4" y="-242.0" type="curve" smooth="yes"/>
      <point x="279.6" y="-303.59999999999997"/>
      <point x="203.0" y="-333.2"/>
      <point x="81.2" y="-333.2" type="curve"/>
      <point x="60.0" y="-471.4" type="line"/>
      <point x="304.40000000000003" y="-471.4"/>
      <point x="460.40000000000003" y="-379.0"/>
      <point x="482.2" y="-234.2" type="curve" smooth="yes"/>
      <point x="501.0" y="-133.2"/>
      <point x="439.4" y="-73.0"/>
      <point x="342.8" y="-57.4" type="curve"/>
      <point x="365.8" y="6.0" type="line"/>
    </contour>
  </outline>
</glyph>
<glyph name="onesuperior" format="2">
  <advance height="2479.0" width="657.2"/>
  <unicode hex="00B9"/>
  <outline>
    <contour>
      <point x="324.4" y="745.0" type="line"/>
      <point x="536.6" y="745.0" type="line"/>
      <point x="685.6" y="1638.0" type="line"/>
      <point x="485.0" y="1638.0" type="line"/>
      <point x="228.6" y="1491.2" type="line"/>
      <point x="196.6" y="1300.6" type="line"/>
      <point x="433.4" y="1434.6" type="line"/>
      <point x="438.59999999999997" y="1434.6" type="line"/>
    </contour>
  </outline>
</glyph>
<glyph name="ordmasculine" format="2">
  <advance height="2479.0" width="992.2"/>
  <unicode hex="00BA"/>
  <outline>
    <contour>
      <point x="221.4" y="1044.0" type="line"/>
      <point x="186.4" y="838.0"/>
      <point x="298.6" y="690.2"/>
      <point x="520.8000000000001" y="690.2" type="curve" smooth="yes"/>
      <point x="740.0" y="690.2"/>
      <point x="899.4" y="838.0"/>
      <point x="934.4" y="1044.0" type="curve"/>
      <point x="945.8" y="1121.2" type="line"/>
      <point x="980.8" y="1329.0"/>
      <point x="868.0" y="1478.0"/>
      <point x="647.6" y="1478.0" type="curve" smooth="yes"/>
      <point x="430.2" y="1478.0"/>
      <point x="267.4" y="1329.0"/>
      <point x="232.8" y="1121.2" type="curve"/>
    </contour>
    <contour>
      <point x="412.2" y="1121.2" type="line"/>
      <point x="432.8" y="1237.2"/>
      <point x="507.0" y="1329.0"/>
      <point x="624.6" y="1329.0" type="curve" smooth="yes"/>
      <point x="744.2" y="1329.0"/>
      <point x="787.0" y="1237.2"/>
      <point x="766.0" y="1121.2" type="curve"/>
      <point x="755.0" y="1044.0" type="line"/>
      <point x="734.0" y="925.0"/>
      <point x="662.6" y="838.0"/>
      <point x="545.6" y="838.0" type="curve" smooth="yes"/>
      <point x="426.0" y="838.0"/>
      <point x="380.2" y="925.0"/>
      <point x="400.8" y="1044.0" type="curve"/>
    </contour>
  </outline>
</glyph>
<glyph name="AE" format="2">
  <advance height="2479.0" width="2109.6"/>
  <unicode hex="00C6"/>
  <anchor x="1527.4" y="1676.0" name="top"/>
  <outline>
    <contour>
      <point x="-44.6" y="0.0" type="line"/>
      <point x="302.2" y="0.0" type="line"/>
      <point x="984.8" y="1179.0" type="line"/>
      <point x="1088.2" y="1179.0" type="line"/>
      <point x="891.8" y="0.0" type="line"/>
      <point x="1898.8" y="0.0" type="line"/>
      <point x="1942.2" y="259.6" type="line"/>
      <point x="1250.6000000000001" y="259.6" type="line"/>
      <point x="1308.2" y="615.6" type="line"/>
      <point x="1945.3999999999999" y="615.6" type="line"/>
      <point x="1989.3999999999999" y="875.2" type="line"/>
      <point x="1352.2" y="875.2" type="line"/>
      <point x="1410.2" y="1230.0" type="line"/>
      <point x="2099.4" y="1230.0" type="line"/>
      <point x="2142.8" y="1489.0" type="line"/>
      <point x="841.0" y="1489.0" type="line"/>
    </contour>
    <contour>
      <point x="354.4" y="339.8" type="line"/>
      <point x="1128.0" y="339.8" type="line"/>
      <point x="1170.2" y="585.6" type="line"/>
      <point x="396.0" y="585.6" type="line"/>
    </contour>
  </outline>
</glyph>
<glyph name="multiply" format="2">
  <advance height="2479.0" width="1392.0"/>
  <unicode hex="00D7"/>
  <outline>
    <contour>
      <point x="953.4000000000001" y="65.6" type="line"/>
      <point x="1172.0" y="252.79999999999998" type="line"/>
      <point x="447.0" y="1122.3999999999999" type="line"/>
      <point x="228.0" y="933.4" type="line"/>
    </contour>
    <contour>
      <point x="281.6" y="66.8" type="line"/>
      <point x="1285.2" y="925.0" type="line"/>
      <point x="1122.0" y="1121.1999999999998" type="line"/>
      <point x="118.4" y="261.2" type="line"/>
    </contour>
  </outline>
</glyph>
<glyph name="Oslash" format="2">
  <advance height="2479.0" width="1601.0"/>
  <unicode hex="00D8"/>
  <anchor x="711.4" y="1.2000000000000002" name="bottom"/>
  <anchor x="894.6" y="2.3999999999999995" name="ogonek"/>
  <anchor x="326.79999999999995" y="1487.8" name="tonos"/>
  <anchor x="985.4" y="1674.8" name="top"/>
  <outline>
    <contour>
      <point x="287.40000000000003" y="-71.8" type="line"/>
      <point x="1506.4" y="1461.8" type="line"/>
      <point x="1375.0" y="1558.2" type="line"/>
      <point x="156.4" y="25.2" type="line"/>
    </contour>
    <component base="O" xOffset="-0.4" yOffset="-1.2000000000000002"/>
  </outline>
</glyph>
<glyph name="Thorn" format="2">
  <advance height="2479.0" width="1373.6"/>
  <unicode hex="00DE"/>
  <outline>
    <contour>
      <point x="281.0" y="1489.0" type="line"/>
      <point x="34.0" y="0.0" type="line"/>
      <point x="348.4" y="0.0" type="line"/>
      <point x="595.4" y="1489.0" type="line"/>
    </contour>
    <contour>
      <point x="381.4" y="1215.8" type="line"/>
      <point x="341.0" y="972.4" type="line"/>
      <point x="728.5999999999999" y="972.4" type="line" smooth="yes"/>
      <point x="907.0" y="972.4"/>
      <point x="967.6" y="874.0"/>
      <point x="948.8" y="757.6" type="curve" smooth="yes"/>
      <point x="928.8" y="643.2"/>
      <point x="837.4" y="549.0"/>
      <point x="658.5999999999999" y="549.0" type="curve" smooth="yes"/>
      <point x="271.0" y="549.0" type="line"/>
      <point x="230.6" y="306.8" type="line"/>
      <point x="618.1999999999999" y="306.8" type="line" smooth="yes"/>
      <point x="977.1999999999999" y="306.8"/>
      <point x="1207.0" y="498.8"/>
      <point x="1249.8" y="760.2" type="curve" smooth="yes"/>
      <point x="1294.0" y="1022.0"/>
      <point x="1127.3999999999999" y="1215.8"/>
      <point x="768.4" y="1215.8" type="curve" smooth="yes"/>
    </contour>
  </outline>
</glyph>
<glyph name="germandbls" format="2">
  <advance height="2479.0" width="1350.6"/>
  <unicode hex="00DF"/>
  <outline>
    <contour>
      <point x="36.599999999999994" y="0.0" type="line"/>
      <point x="346.0" y="0.0" type="line"/>
      <point x="520.6" y="1050.4" type="line" smooth="yes"/>
      <point x="540.6" y="1171.8"/>
      <point x="638.1999999999999" y="1250.4"/>
      <point x="767.8" y="1250.4" type="curve" smooth="yes"/>
      <point x="895.4" y="1250.4"/>
      <point x="959.2" y="1170.0"/>
      <point x="940.1999999999999" y="1061.6" type="curve" smooth="yes"/>
      <point x="922.6" y="959.6"/>
      <point x="840.6" y="874.6"/>
      <point x="735.0" y="874.6" type="curve" smooth="yes"/>
      <point x="657.5999999999999" y="874.6" type="line"/>
      <point x="618.5999999999999" y="633.0" type="line"/>
      <point x="734.0" y="633.0" type="line" smooth="yes"/>
      <point x="881.1999999999999" y="633.0"/>
      <point x="961.0" y="556.8"/>
      <point x="941.8" y="440.0" type="curve" smooth="yes"/>
      <point x="925.0" y="326.6"/>
      <point x="826.6" y="252.39999999999998"/>
      <point x="695.2" y="252.39999999999998" type="curve" smooth="yes"/>
      <point x="548.4" y="252.39999999999998" type="line"/>
      <point x="506.79999999999995" y="0.0" type="line"/>
      <point x="702.8" y="0.0" type="line" smooth="yes"/>
      <point x="986.1999999999999" y="0.0"/>
      <point x="1205.3999999999999" y="147.2"/>
      <point x="1251.3999999999999" y="410.0" type="curve" smooth="yes"/>
      <point x="1286.4" y="620.0"/>
      <point x="1187.6000000000001" y="769.4"/>
      <point x="995.8" y="782.4" type="curve"/>
      <point x="998.8" y="798.8" type="line"/>
      <point x="1137.4" y="836.4"/>
      <point x="1238.8" y="949.8"/>
      <point x="1263.0" y="1106.8" type="curve" smooth="yes"/>
      <point x="1306.1999999999998" y="1372.2"/>
      <point x="1089.8" y="1510.0"/>
      <point x="799.2" y="1510.0" type="curve" smooth="yes"/>
      <point x="490.2" y="1510.0"/>
      <point x="261.0" y="1355.4"/>
      <point x="218.2" y="1096.0" type="curve" smooth="yes"/>
    </contour>
  </outline>
</glyph>
<glyph name="ae" format="2">
  <advance height="2479.0" width="1890.4"/>
  <unicode hex="00E6"/>
  <anchor x="1044.0" y="1303.0" name="top"/>
  <outline>
    <contour>
      <point x="1202.8" y="-21.2" type="curve"/>
      <point x="1455.8" y="-21.2"/>
      <point x="1666.8" y="112.8"/>
      <point x="1746.6" y="320.2" type="curve"/>
      <point x="1463.6000000000001" y="338.6" type="line"/>
      <point x="1417.0" y="253.8"/>
      <point x="1329.8" y="209.6"/>
      <point x="1227.0" y="209.6" type="curve" smooth="yes"/>
      <point x="1072.8" y="209.6"/>
      <point x="992.1999999999999" y="312.4"/>
      <point x="1018.8" y="478.4" type="curve" smooth="yes"/>
      <point x="1048.3999999999999" y="661.4" type="line" smooth="yes"/>
      <point x="1072.0" y="792.2"/>
      <point x="1188.1999999999998" y="900.2"/>
      <point x="1329.8000000000002" y="900.2" type="curve"/>
      <point x="1463.6000000000001" y="900.2"/>
      <point x="1540.3999999999999" y="805.0"/>
      <point x="1519.2" y="671.8" type="curve"/>
      <point x="890.2" y="671.8" type="line"/>
      <point x="859.6" y="479.0" type="line"/>
      <point x="1780.0" y="479.0" type="line"/>
      <point x="1793.8" y="564.6" type="line" smooth="yes"/>
      <point x="1856.6" y="943.4"/>
      <point x="1659.0" y="1132.0"/>
      <point x="1363.0" y="1132.0" type="curve" smooth="yes"/>
      <point x="1181.2" y="1132.0"/>
      <point x="1030.8" y="1057.6"/>
      <point x="913.2" y="895.8" type="curve"/>
      <point x="814.0" y="239.0" type="line"/>
      <point x="844.0" y="72.6"/>
      <point x="995.6" y="-21.2"/>
    </contour>
    <contour>
      <point x="470.80000000000007" y="192.8" type="curve" smooth="yes"/>
      <point x="374.40000000000003" y="192.8"/>
      <point x="314.59999999999997" y="238.2"/>
      <point x="328.4" y="322.4" type="curve" smooth="yes"/>
      <point x="341.8" y="409.6"/>
      <point x="422.4" y="451.8"/>
      <point x="534.8000000000001" y="467.6" type="curve" smooth="yes"/>
      <point x="602.0" y="478.4"/>
      <point x="716.0" y="493.4"/>
      <point x="756.4" y="517.8" type="curve"/>
      <point x="737.0" y="399.2" type="line" smooth="yes"/>
      <point x="717.6" y="282.4"/>
      <point x="606.4" y="192.8"/>
    </contour>
    <contour>
      <point x="363.6" y="-20.6" type="curve" smooth="yes"/>
      <point x="553.1999999999999" y="-20.6"/>
      <point x="742.1999999999999" y="58.0"/>
      <point x="822.4" y="183.0" type="curve"/>
      <point x="841.8" y="183.0" type="line"/>
      <point x="1004.8" y="944.6" type="line"/>
      <point x="971.0" y="1086.8"/>
      <point x="836.5999999999999" y="1132.0"/>
      <point x="698.4" y="1132.0" type="curve" smooth="yes"/>
      <point x="423.2" y="1132.0"/>
      <point x="228.20000000000002" y="1003.4"/>
      <point x="150.6" y="799.8" type="curve"/>
      <point x="433.0" y="776.6" type="line"/>
      <point x="466.2" y="851.0"/>
      <point x="542.6" y="905.0"/>
      <point x="653.4" y="905.0" type="curve" smooth="yes"/>
      <point x="758.2" y="905.0"/>
      <point x="809.5999999999999" y="852.1999999999999"/>
      <point x="795.0" y="760.2" type="curve" smooth="yes"/>
      <point x="795.0" y="756.4" type="line" smooth="yes"/>
      <point x="782.8" y="685.2"/>
      <point x="705.0" y="675.6"/>
      <point x="507.4" y="656.2" type="curve" smooth="yes"/>
      <point x="282.40000000000003" y="635.6"/>
      <point x="72.60000000000001" y="561.0"/>
      <point x="31.000000000000007" y="311.6" type="curve" smooth="yes"/>
      <point x="-5.7999999999999945" y="91.8"/>
      <point x="132.0" y="-20.6"/>
    </contour>
  </outline>
</glyph>
<glyph name="eth" format="2">
  <advance height="2479.0" width="1228.6"/>
  <unicode hex="00F0"/>
  <outline>
    <contour>
      <point x="1092.0" y="1402.6" type="line"/>
      <point x="1095.4" y="1543.2" type="line"/>
      <point x="356.4" y="1195.8" type="line"/>
      <point x="351.8" y="1055.8" type="line"/>
    </contour>
    <contour>
      <point x="513.4000000000001" y="-23.0" type="curve" smooth="yes"/>
      <point x="846.4000000000001" y="-23.0"/>
      <point x="1092.0" y="209.4"/>
      <point x="1151.8" y="573.4" type="curve" smooth="yes"/>
      <point x="1239.4" y="1104.0"/>
      <point x="878.2" y="1463.8"/>
      <point x="451.59999999999997" y="1571.6" type="curve"/>
      <point x="394.0" y="1406.0" type="line"/>
      <point x="637.5999999999999" y="1299.8"/>
      <point x="832.8000000000001" y="1108.6"/>
      <point x="893.6" y="901.8" type="curve"/>
      <point x="878.4" y="901.8" type="line"/>
      <point x="833.2" y="971.4"/>
      <point x="746.4" y="1033.8"/>
      <point x="611.4" y="1033.8" type="curve" smooth="yes"/>
      <point x="341.8" y="1033.8"/>
      <point x="119.39999999999999" y="808.0"/>
      <point x="70.6" y="512.0" type="curve" smooth="yes"/>
      <point x="18.599999999999994" y="193.8"/>
      <point x="193.60000000000002" y="-23.0"/>
    </contour>
    <contour>
      <point x="560.4" y="213.8" type="curve" smooth="yes"/>
      <point x="400.0" y="213.8"/>
      <point x="339.6" y="348.2"/>
      <point x="368.6" y="530.6" type="curve" smooth="yes"/>
      <point x="398.8" y="710.8000000000001"/>
      <point x="502.19999999999993" y="840.2"/>
      <point x="663.8" y="840.2" type="curve" smooth="yes"/>
      <point x="832.0" y="840.2"/>
      <point x="885.2" y="698.0"/>
      <point x="856.8" y="525.8" type="curve" smooth="yes"/>
      <point x="825.4" y="339.0"/>
      <point x="714.8" y="213.8"/>
    </contour>
  </outline>
</glyph>
<glyph name="divide" format="2">
  <advance height="2479.0" width="1392.0"/>
  <unicode hex="00F7"/>
  <outline>
    <contour>
      <point x="1231.2" y="718.8" type="line"/>
      <point x="213.20000000000002" y="718.8" type="line"/>
      <point x="172.8" y="472.4" type="line"/>
      <point x="1191.3999999999999" y="472.4" type="line"/>
    </contour>
    <contour>
      <point x="622.4" y="16.6" type="curve" smooth="yes"/>
      <point x="709.2" y="16.6"/>
      <point x="790.6" y="86.0"/>
      <point x="805.0" y="174.0" type="curve" smooth="yes"/>
      <point x="821.6" y="279.4"/>
      <point x="751.4000000000001" y="366.2"/>
      <point x="647.2" y="366.2" type="curve" smooth="yes"/>
      <point x="559.0" y="366.2"/>
      <point x="476.59999999999997" y="297.59999999999997"/>
      <point x="462.59999999999997" y="211.4" type="curve" smooth="yes"/>
      <point x="445.59999999999997" y="104.2"/>
      <point x="516.1999999999999" y="16.6"/>
    </contour>
    <contour>
      <point x="758.2" y="825.4" type="curve" smooth="yes"/>
      <point x="845.0" y="825.4"/>
      <point x="925.2" y="895.4"/>
      <point x="938.4" y="983.4" type="curve" smooth="yes"/>
      <point x="954.4" y="1088.8"/>
      <point x="885.4" y="1175.0"/>
      <point x="781.2" y="1175.0" type="curve" smooth="yes"/>
      <point x="692.4" y="1175.0"/>
      <point x="610.4" y="1107.3999999999999"/>
      <point x="595.4" y="1020.6" type="curve" smooth="yes"/>
      <point x="577.1999999999999" y="914.4"/>
      <point x="652.0" y="825.4"/>
    </contour>
  </outline>
</glyph>
<glyph name="oslash" format="2">
  <advance height="2479.0" width="1256.8"/>
  <unicode hex="00F8"/>
  <anchor x="535.8" y="0.0" name="bottom"/>
  <anchor x="686.6" y="0.0" name="ogonek"/>
  <anchor x="751.1999999999999" y="1303.0" name="top"/>
  <outline>
    <contour>
      <point x="194.2" y="-71.8" type="line"/>
      <point x="1186.8" y="1083.2" type="line"/>
      <point x="1061.3999999999999" y="1179.8" type="line"/>
      <point x="66.99999999999999" y="25.2" type="line"/>
    </contour>
    <component base="o"/>
  </outline>
</glyph>
<glyph name="thorn" format="2">
  <advance height="2479.0" width="1255.2"/>
  <unicode hex="00FE"/>
  <outline>
    <contour>
      <point x="278.0" y="1489.0" type="line"/>
      <point x="-39.0" y="-419.0" type="line"/>
      <point x="270.4" y="-419.0" type="line"/>
      <point x="377.2" y="219.8" type="line"/>
      <point x="322.8" y="545.4" type="line"/>
      <point x="493.2" y="913.2" type="line"/>
      <point x="587.4" y="1489.0" type="line"/>
    </contour>
    <contour>
      <point x="380.59999999999997" y="988.6" type="line"/>
      <point x="236.99999999999997" y="122.80000000000001" type="line"/>
      <point x="373.2" y="122.80000000000001" type="line"/>
      <point x="401.0" y="42.60000000000001"/>
      <point x="482.20000000000005" y="-18.2"/>
      <point x="623.4" y="-18.2" type="curve" smooth="yes"/>
      <point x="875.4" y="-18.2"/>
      <point x="1111.4" y="181.8"/>
      <point x="1173.0" y="557.8" type="curve" smooth="yes"/>
      <point x="1236.4" y="941.0"/>
      <point x="1058.4" y="1132.0"/>
      <point x="816.0" y="1132.0" type="curve" smooth="yes"/>
      <point x="668.2" y="1132.0"/>
      <point x="568.0" y="1065.8"/>
      <point x="517.4" y="988.6" type="curve"/>
    </contour>
    <contour>
      <point x="879.0" y="559.0" type="curve" smooth="yes"/>
      <point x="845.8000000000001" y="356.6"/>
      <point x="743.0" y="228.8"/>
      <point x="579.6" y="228.8" type="curve" smooth="yes"/>
      <point x="408.0" y="228.8"/>
      <point x="372.59999999999997" y="377.0"/>
      <point x="402.8" y="559.0" type="curve" smooth="yes"/>
      <point x="433.59999999999997" y="742.4"/>
      <point x="518.5999999999999" y="884.6"/>
      <point x="687.8" y="884.6" type="curve" smooth="yes"/>
      <point x="852.4" y="884.6"/>
      <point x="911.8000000000001" y="759.2"/>
    </contour>
  </outline>
</glyph>
<glyph name="dcroat" format="2">
  <advance height="2479.0" width="1302.2"/>
  <unicode hex="0111"/>
  <anchor x="549.8" y="0.0" name="bottom"/>
  <anchor x="1136.2" y="1280.0" name="cross"/>
  <anchor x="1458.6" y="1489.0" name="raccent"/>
  <anchor x="725.1999999999999" y="1489.0" name="top"/>
  <outline>
    <contour>
      <point x="677.4" y="1194.2" type="line"/>
      <point x="1403.2" y="1194.2" type="line"/>
      <point x="1435.2" y="1376.4" type="line"/>
      <point x="709.4" y="1376.4" type="line"/>
    </contour>
    <component base="d"/>
  </outline>
</glyph>
<glyph name="Hbar" format="2">
  <advance height="2479.0" width="1659.6"/>
  <unicode hex="0126"/>
  <anchor x="734.0" y="0.0" name="bottom"/>
  <anchor x="260.0" y="0.0" name="cedilla"/>
  <anchor x="1531.1999999999998" y="123.4" name="cyrtic"/>
  <anchor x="1367.6" y="0.0" name="right"/>
  <anchor x="310.4" y="1489.0" name="tonos"/>
  <anchor x="1016.6" y="1677.2" name="top"/>
  <outline>
    <contour>
      <point x="1697.2" y="1230.8" type="line"/>
      <point x="183.6" y="1230.8" type="line"/>
      <point x="154.79999999999998" y="1055.2" type="line"/>
      <point x="1668.8" y="1055.2" type="line"/>
    </contour>
    <component base="H" xOffset="63.8"/>
  </outline>
</glyph>
<glyph name="kgreenlandic" format="2">
  <advance height="2479.0" width="1192.6"/>
  <unicode hex="0138"/>
  <outline>
    <contour>
      <point x="366.0" y="321.8" type="line"/>
      <point x="611.6" y="555.6" type="line"/>
      <point x="685.0" y="555.6" type="line"/>
      <point x="1258.2" y="1117.0" type="line"/>
      <point x="902.8" y="1117.0" type="line"/>
      <point x="473.2" y="693.2" type="line"/>
      <point x="427.40000000000003" y="693.2" type="line"/>
    </contour>
    <contour>
      <point x="32.8" y="0.0" type="line"/>
      <point x="342.2" y="0.0" type="line"/>
      <point x="527.6" y="1117.0" type="line"/>
      <point x="217.6" y="1117.0" type="line"/>
    </contour>
    <contour>
      <point x="730.1999999999999" y="0.0" type="line"/>
      <point x="1093.3999999999999" y="0.0" type="line"/>
      <point x="725.4" y="705.0" type="line"/>
      <point x="483.2" y="486.4" type="line"/>
    </contour>
  </outline>
</glyph>
<glyph name="Lslash" format="2">
  <advance height="2479.0" width="1199.4"/>
  <unicode hex="0141"/>
  <anchor x="551.8000000000001" y="0.0" name="bottom"/>
  <anchor x="386.0" y="780.0" name="cross"/>
  <anchor x="714.4" y="841.4" name="dot"/>
  <anchor x="885.6" y="1489.0" name="raccent"/>
  <anchor x="535.0" y="1676.0" name="top"/>
  <outline>
    <contour>
      <point x="745.6" y="962.2" type="line"/>
      <point x="52.400000000000006" y="774.4" type="line"/>
      <point x="33.2" y="603.2" type="line"/>
      <point x="726.4000000000001" y="789.8" type="line"/>
    </contour>
    <component base="L" xOffset="63.0"/>
  </outline>
</glyph>
<glyph name="lslash" format="2">
  <advance height="2479.0" width="557.4"/>
  <unicode hex="0142"/>
  <anchor x="189.0" y="0.0" name="bottom"/>
  <anchor x="315.6" y="768.0" name="cross"/>
  <anchor x="716.1999999999999" y="1489.0" name="raccent"/>
  <anchor x="466.4" y="1676.0" name="top"/>
  <outline>
    <contour>
      <point x="640.6" y="969.4" type="line"/>
      <point x="21.8" y="781.6" type="line"/>
      <point x="-6.6" y="609.8" type="line"/>
      <point x="611.1999999999999" y="797.6" type="line"/>
    </contour>
    <component base="l"/>
  </outline>
</glyph>
<glyph name="Eng" format="2">
  <advance height="2479.0" width="1505.8000000000002"/>
  <unicode hex="014A"/>
  <anchor x="660.6" y="0.0" name="bottom"/>
  <anchor x="1322.6" y="0.0" name="right"/>
  <anchor x="939.6" y="1676.0" name="top"/>
  <outline>
    <contour>
      <point x="1010.0" y="0.0" type="line"/>
      <point x="999.0" y="-63.800000000000004" type="line" smooth="yes"/>
      <point x="981.0" y="-159.4"/>
      <point x="906.6" y="-203.2"/>
      <point x="804.2" y="-203.2" type="curve" smooth="yes"/>
      <point x="766.8000000000001" y="-203.2"/>
      <point x="727.6" y="-198.4"/>
      <point x="698.8" y="-191.8" type="curve"/>
      <point x="659.6" y="-425.6" type="line"/>
      <point x="692.0" y="-436.4"/>
      <point x="735.4" y="-441.8"/>
      <point x="770.0" y="-441.8" type="curve" smooth="yes"/>
      <point x="1034.2" y="-441.8"/>
      <point x="1227.2" y="-341.8"/>
      <point x="1271.4" y="-59.6" type="curve" smooth="yes"/>
      <point x="1282.4" y="0.0" type="line"/>
    </contour>
    <component base="N"/>
  </outline>
</glyph>
<glyph name="eng" format="2">
  <advance height="2479.0" width="1278.8"/>
  <unicode hex="014B"/>
  <anchor x="546.1999999999999" y="0.0" name="bottom"/>
  <anchor x="761.1999999999999" y="1303.0" name="top"/>
  <outline>
    <contour>
      <point x="754.8000000000001" y="13.799999999999999" type="line"/>
      <point x="743.4" y="-51.80000000000001" type="line" smooth="yes"/>
      <point x="728.6" y="-131.79999999999998"/>
      <point x="674.4" y="-166.0"/>
      <point x="590.4" y="-166.0" type="curve" smooth="yes"/>
      <point x="556.0" y="-166.0"/>
      <point x="526.6" y="-161.2"/>
      <point x="500.0" y="-154.60000000000002" type="curve"/>
      <point x="438.59999999999997" y="-406.4" type="line"/>
      <point x="486.20000000000005" y="-417.2"/>
      <point x="538.0" y="-419.0"/>
      <point x="592.2" y="-419.0" type="curve" smooth="yes"/>
      <point x="830.2" y="-419.0"/>
      <point x="1006.6" y="-316.4"/>
      <point x="1052.8" y="-51.20000000000001" type="curve" smooth="yes"/>
      <point x="1064.4" y="16.799999999999997" type="line"/>
    </contour>
    <component base="n"/>
  </outline>
</glyph>
<glyph name="OE" format="2">
  <advance height="2479.0" width="2085.0"/>
  <unicode hex="0152"/>
  <anchor x="1365.4" y="0.0" name="bottom"/>
  <anchor x="1368.4" y="0.0" name="cedilla"/>
  <anchor x="1873.6" y="0.0" name="ogonek"/>
  <anchor x="1071.2" y="1489.0" name="tonos"/>
  <anchor x="1650.3999999999999" y="1676.0" name="top"/>
  <outline>
    <contour>
      <point x="687.0" y="0.0" type="curve" smooth="yes"/>
      <point x="986.9999999999999" y="0.0" type="line"/>
      <point x="1032.1999999999998" y="259.6" type="line"/>
      <point x="731.6" y="259.6" type="line" smooth="yes"/>
      <point x="518.8000000000001" y="259.6"/>
      <point x="393.40000000000003" y="406.2"/>
      <point x="450.0" y="743.2" type="curve" smooth="yes"/>
      <point x="505.0" y="1079.6"/>
      <point x="678.2" y="1230.0"/>
      <point x="890.6" y="1230.0" type="curve" smooth="yes"/>
      <point x="1190.6" y="1230.0" type="line"/>
      <point x="1234.6" y="1489.0" type="line"/>
      <point x="934.4" y="1489.0" type="line" smooth="yes"/>
      <point x="546.0" y="1489.0"/>
      <point x="212.39999999999998" y="1227.8"/>
      <point x="133.4" y="743.2" type="curve" smooth="yes"/>
      <point x="54.0" y="261.6"/>
      <point x="299.0" y="0.0"/>
    </contour>
    <component base="E" xOffset="830.6"/>
  </outline>
</glyph>
<glyph name="tbar" format="2">
  <advance height="2479.0" width="796.0"/>
  <unicode hex="0167"/>
  <anchor x="345.8" y="0.0" name="bottom"/>
  <anchor x="449.6" y="0.0" name="cedilla"/>
  <anchor x="801.2" y="1562.0" name="raccent"/>
  <anchor x="513.0" y="1520.8" name="top"/>
  <outline>
    <contour>
      <point x="46.599999999999994" y="560.6" type="line"/>
      <point x="719.8" y="560.6" type="line"/>
      <point x="744.6" y="708.4" type="line"/>
      <point x="71.39999999999999" y="708.4" type="line"/>
    </contour>
    <component base="t" xOffset="0.6"/>
  </outline>
</glyph>
<glyph name="Bhook" format="2">
  <advance height="2479.0" width="1773.2"/>
  <unicode hex="0181"/>
  <anchor x="983.3999999999999" y="0.0" name="bottom"/>
  <anchor x="1260.6" y="1676.0" name="top"/>
  <outline>
    <contour>
      <point x="827.4" y="1231.8" type="line"/>
      <point x="869.0" y="1489.0" type="line"/>
      <point x="652.0" y="1489.0" type="line" smooth="yes"/>
      <point x="387.8" y="1489.0"/>
      <point x="199.2" y="1339.8"/>
      <point x="163.2" y="1105.4" type="curve" smooth="yes"/>
      <point x="139.2" y="959.6" type="line"/>
      <point x="419.8" y="959.6" type="line"/>
      <point x="434.2" y="1045.8" type="line" smooth="yes"/>
      <point x="447.0" y="1135.8"/>
      <point x="490.8" y="1231.8"/>
      <point x="611.5999999999999" y="1231.8" type="curve" smooth="yes"/>
    </contour>
    <component base="B" xOffset="420.2"/>
  </outline>
</glyph>
<glyph name="Btopbar" format="2">
  <advance height="2479.0" width="1341.8"/>
  <unicode hex="0182"/>
  <outline>
    <contour>
      <point x="36.599999999999994" y="0.0" type="line"/>
      <point x="593.8" y="0.0" type="line" smooth="yes"/>
      <point x="947.8" y="0.0"/>
      <point x="1199.2" y="194.4"/>
      <point x="1246.0" y="475.6" type="curve" smooth="yes"/>
      <point x="1292.4" y="757.4"/>
      <point x="1102.8" y="939.0"/>
      <point x="749.5999999999999" y="939.0" type="curve" smooth="yes"/>
      <point x="507.79999999999995" y="939.0" type="line"/>
      <point x="555.0" y="1230.0" type="line"/>
      <point x="1228.0" y="1230.0" type="line"/>
      <point x="1271.4" y="1489.0" type="line"/>
      <point x="284.0" y="1489.0" type="line"/>
    </contour>
    <contour>
      <point x="393.59999999999997" y="253.0" type="line"/>
      <point x="466.2" y="690.2" type="line"/>
      <point x="708.0" y="690.2" type="line" smooth="yes"/>
      <point x="877.0" y="690.2"/>
      <point x="954.4" y="597.0"/>
      <point x="934.6" y="478.6" type="curve" smooth="yes"/>
      <point x="914.2" y="356.4"/>
      <point x="804.6" y="253.0"/>
      <point x="635.4" y="253.0" type="curve" smooth="yes"/>
    </contour>
  </outline>
</glyph>
<glyph name="btopbar" format="2">
  <advance height="2479.0" width="1301.0"/>
  <unicode hex="0183"/>
  <anchor x="545.2" y="0.0" name="bottom"/>
  <anchor x="402.6" y="1280.0" name="cross"/>
  <anchor x="893.6" y="1303.0" name="top"/>
  <outline>
    <contour>
      <point x="1214.0" y="1489.0" type="line"/>
      <point x="465.6" y="1489.0" type="line"/>
      <point x="425.8" y="1266.6" type="line"/>
      <point x="1177.8" y="1266.6" type="line"/>
    </contour>
    <component base="b"/>
  </outline>
</glyph>
<glyph name="Tonesix" format="2">
  <advance height="2479.0" width="1606.4"/>
  <unicode hex="0184"/>
  <outline>
    <contour>
      <point x="801.8" y="1489.0" type="line"/>
      <point x="179.8" y="1489.0" type="line"/>
      <point x="136.0" y="1230.0" type="line"/>
      <point x="758.4" y="1230.0" type="line"/>
    </contour>
    <contour>
      <point x="650.8" y="939.0" type="line"/>
      <point x="608.6" y="690.2" type="line"/>
      <point x="963.5999999999999" y="690.2" type="line"/>
      <point x="1131.6" y="690.2"/>
      <point x="1209.0" y="597.0"/>
      <point x="1190.2" y="478.6" type="curve"/>
      <point x="1169.2" y="356.4"/>
      <point x="1059.0" y="253.0"/>
      <point x="891.0" y="253.0" type="curve"/>
      <point x="648.6" y="253.0" type="line"/>
      <point x="854.0" y="1489.0" type="line"/>
      <point x="539.6" y="1489.0" type="line"/>
      <point x="292.2" y="0.0" type="line"/>
      <point x="848.8" y="0.0" type="line"/>
      <point x="1201.8000000000002" y="0.0"/>
      <point x="1454.4" y="194.4"/>
      <point x="1501.6000000000001" y="475.6" type="curve"/>
      <point x="1548.6000000000001" y="757.4"/>
      <point x="1358.2" y="939.0"/>
      <point x="1005.1999999999999" y="939.0" type="curve"/>
    </contour>
  </outline>
</glyph>
<glyph name="tonesix" format="2">
  <advance height="2479.0" width="1423.4"/>
  <unicode hex="0185"/>
  <outline>
    <contour>
      <point x="854.6" y="-23.0" type="curve" smooth="yes"/>
      <point x="1104.6" y="-23.0"/>
      <point x="1268.6" y="119.60000000000001"/>
      <point x="1314.6000000000001" y="395.8" type="curve" smooth="yes"/>
      <point x="1362.6000000000001" y="689.4"/>
      <point x="1223.2" y="847.0"/>
      <point x="996.0" y="847.4" type="curve" smooth="yes"/>
      <point x="866.0" y="847.0"/>
      <point x="778.6" y="787.4000000000001"/>
      <point x="723.4" y="715.4" type="curve"/>
      <point x="714.1999999999999" y="715.4" type="line"/>
      <point x="780.4" y="1117.0" type="line"/>
      <point x="474.4" y="1117.0" type="line"/>
      <point x="445.79999999999995" y="935.4" type="line"/>
      <point x="439.8" y="935.4" type="line"/>
      <point x="283.4" y="0.0" type="line"/>
      <point x="590.4" y="0.0" type="line"/>
      <point x="602.5999999999999" y="87.8" type="line"/>
      <point x="615.8000000000001" y="87.8" type="line"/>
      <point x="645.4" y="17.0"/>
      <point x="721.8" y="-23.6"/>
    </contour>
    <contour>
      <point x="795.6" y="215.0" type="curve" smooth="yes"/>
      <point x="688.2" y="214.4"/>
      <point x="643.4" y="287.6"/>
      <point x="663.8" y="411.8" type="curve" smooth="yes"/>
      <point x="683.1999999999999" y="532.8"/>
      <point x="759.0" y="609.4"/>
      <point x="865.4" y="609.4" type="curve" smooth="yes"/>
      <point x="974.2" y="609.4"/>
      <point x="1023.1999999999999" y="531.2"/>
      <point x="1002.8000000000001" y="410.2" type="curve" smooth="yes"/>
      <point x="982.8" y="288.4"/>
      <point x="901.0" y="214.4"/>
    </contour>
    <contour>
      <point x="271.6" y="633.4" type="line"/>
      <point x="626.0" y="935.4" type="line"/>
      <point x="474.4" y="1117.0" type="line"/>
      <point x="120.0" y="814.4" type="line"/>
    </contour>
  </outline>
</glyph>
<glyph name="Chook" format="2">
  <advance height="2479.0" width="1712.6000000000001"/>
  <unicode hex="0187"/>
  <anchor x="701.6" y="-1.200000000000001" name="cedilla"/>
  <anchor x="984.0" y="1676.0" name="top"/>
  <outline>
    <contour>
      <point x="1509.0" y="968.2" type="line"/>
      <point x="1528.3999999999999" y="1093.0" type="line" smooth="yes"/>
      <point x="1549.2" y="1234.6"/>
      <point x="1668.0" y="1279.4"/>
      <point x="1760.0" y="1279.4" type="curve" smooth="yes"/>
      <point x="1785.0" y="1279.4"/>
      <point x="1825.6000000000001" y="1276.8"/>
      <point x="1848.6000000000001" y="1275.6" type="curve"/>
      <point x="1889.0" y="1525.6" type="line"/>
      <point x="1839.8" y="1534.6"/>
      <point x="1794.6000000000001" y="1534.6"/>
      <point x="1744.3999999999999" y="1534.6" type="curve" smooth="yes"/>
      <point x="1506.3999999999999" y="1534.6"/>
      <point x="1274.2" y="1393.6"/>
      <point x="1232.8" y="1133.2" type="curve" smooth="yes"/>
      <point x="1206.2" y="968.2" type="line"/>
    </contour>
    <component base="C"/>
  </outline>
</glyph>
<glyph name="chook" format="2">
  <advance height="2479.0" width="1317.0"/>
  <unicode hex="0188"/>
  <anchor x="539.1999999999999" y="0.0" name="cedilla"/>
  <anchor x="749.4" y="1303.0" name="top"/>
  <outline>
    <contour>
      <point x="1154.6000000000001" y="704.4" type="line"/>
      <point x="1184.2" y="872.2" type="line" smooth="yes"/>
      <point x="1201.0" y="974.4"/>
      <point x="1251.1999999999998" y="1013.0"/>
      <point x="1336.6000000000001" y="1013.0" type="curve" smooth="yes"/>
      <point x="1366.0" y="1013.0"/>
      <point x="1388.4" y="1008.2"/>
      <point x="1413.6000000000001" y="1005.2" type="curve"/>
      <point x="1446.8" y="1208.2" type="line"/>
      <point x="1406.0" y="1220.8"/>
      <point x="1362.6" y="1226.2"/>
      <point x="1321.4" y="1226.2" type="curve" smooth="yes"/>
      <point x="1112.4" y="1226.2"/>
      <point x="935.6" y="1098.6"/>
      <point x="897.4" y="874.0" type="curve" smooth="yes"/>
      <point x="867.4" y="704.4" type="line"/>
    </contour>
    <component base="c"/>
  </outline>
</glyph>
<glyph name="Dhook" format="2">
  <advance height="2479.0" width="1916.2"/>
  <unicode hex="018A"/>
  <anchor x="950.3999999999999" y="0.0" name="bottom"/>
  <anchor x="763.8" y="780.0" name="cross"/>
  <anchor x="1290.4" y="1676.0" name="top"/>
  <outline>
    <contour>
      <point x="139.2" y="959.6" type="line"/>
      <point x="419.8" y="959.6" type="line"/>
      <point x="434.2" y="1045.8" type="line" smooth="yes"/>
      <point x="448.20000000000005" y="1135.8"/>
      <point x="487.4" y="1219.2"/>
      <point x="608.0" y="1219.2" type="curve" smooth="yes"/>
      <point x="823.8000000000001" y="1219.2" type="line"/>
      <point x="869.0" y="1489.0" type="line"/>
      <point x="652.0" y="1489.0" type="line" smooth="yes"/>
      <point x="388.0" y="1489.0"/>
      <point x="199.4" y="1339.8"/>
      <point x="163.2" y="1105.4" type="curve" smooth="yes"/>
    </contour>
    <component base="D" xOffset="426.79999999999995"/>
  </outline>
</glyph>
<glyph name="Dtopbar" format="2">
  <advance height="2479.0" width="1333.2"/>
  <unicode hex="018B"/>
  <outline>
    <contour>
      <point x="564.8" y="0.0" type="curve" smooth="yes"/>
      <point x="1112.0" y="0.0" type="line"/>
      <point x="1358.6" y="1489.0" type="line"/>
      <point x="370.8" y="1489.0" type="line"/>
      <point x="328.0" y="1230.0" type="line"/>
      <point x="1001.4" y="1230.0" type="line"/>
      <point x="953.1999999999999" y="939.0" type="line"/>
      <point x="703.4" y="939.0" type="line" smooth="yes"/>
      <point x="349.4" y="939.0"/>
      <point x="109.4" y="767.6"/>
      <point x="64.0" y="496.6" type="curve" smooth="yes"/>
      <point x="16.2" y="204.6"/>
      <point x="210.8" y="0.0"/>
    </contour>
    <contour>
      <point x="589.0" y="253.0" type="line" smooth="yes"/>
      <point x="420.79999999999995" y="253.0"/>
      <point x="351.6" y="346.2"/>
      <point x="370.40000000000003" y="458.6" type="curve" smooth="yes"/>
      <point x="391.8" y="586.8"/>
      <point x="509.79999999999995" y="690.2"/>
      <point x="678.4" y="690.2" type="curve" smooth="yes"/>
      <point x="911.8" y="690.2" type="line"/>
      <point x="839.8" y="253.0" type="line"/>
    </contour>
  </outline>
</glyph>
<glyph name="dtopbar" format="2">
  <advance height="2479.0" width="1301.4"/>
  <unicode hex="018C"/>
  <anchor x="553.2" y="0.0" name="bottom"/>
  <anchor x="1136.8" y="1280.0" name="cross"/>
  <anchor x="650.4" y="1303.0" name="top"/>
  <outline>
    <contour>
      <point x="395.0" y="1489.0" type="line"/>
      <point x="358.2" y="1266.6" type="line"/>
      <point x="1107.6" y="1266.6" type="line"/>
      <point x="1143.8" y="1489.0" type="line"/>
    </contour>
    <contour>
      <point x="1078.4" y="0.0" type="line"/>
      <point x="1325.4" y="1489.0" type="line"/>
      <point x="1015.4" y="1489.0" type="line"/>
      <point x="922.6" y="929.2" type="line"/>
      <point x="913.0" y="929.2" type="line"/>
      <point x="887.8000000000001" y="1020.8"/>
      <point x="816.4" y="1132.0"/>
      <point x="629.2" y="1132.0" type="curve" smooth="yes"/>
      <point x="383.8" y="1132.0"/>
      <point x="145.2" y="941.0"/>
      <point x="82.2" y="557.8" type="curve" smooth="yes"/>
      <point x="20.200000000000003" y="183.6"/>
      <point x="185.4" y="-18.2"/>
      <point x="440.40000000000003" y="-18.2" type="curve" smooth="yes"/>
      <point x="620.6" y="-18.2"/>
      <point x="731.1999999999999" y="86.4"/>
      <point x="789.4000000000001" y="178.6" type="curve"/>
      <point x="802.8000000000001" y="178.6" type="line"/>
      <point x="772.6" y="0.0" type="line"/>
    </contour>
    <contour>
      <point x="868.0" y="559.0" type="curve" smooth="yes"/>
      <point x="835.0" y="359.6"/>
      <point x="727.8000000000001" y="228.8"/>
      <point x="579.0" y="228.8" type="curve" smooth="yes"/>
      <point x="426.4" y="228.8"/>
      <point x="366.0" y="363.8"/>
      <point x="398.4" y="559.0" type="curve" smooth="yes"/>
      <point x="431.2" y="752.0"/>
      <point x="534.0" y="884.6"/>
      <point x="687.5999999999999" y="884.6" type="curve" smooth="yes"/>
      <point x="837.8" y="884.6"/>
      <point x="901.6" y="758.0"/>
    </contour>
  </outline>
</glyph>
<glyph name="deltaturned" format="2">
  <advance height="2479.0" width="1219.2"/>
  <unicode hex="018D"/>
  <outline>
    <contour>
      <point x="443.59999999999997" y="-449.2" type="curve" smooth="yes"/>
      <point x="688.8" y="-449.2"/>
      <point x="866.6" y="-338.8"/>
      <point x="894.2" y="-168.2" type="curve" smooth="yes"/>
      <point x="914.1999999999999" y="-43.6"/>
      <point x="864.0" y="56.2"/>
      <point x="749.6" y="122.39999999999999" type="curve"/>
      <point x="752.2" y="131.0" type="line"/>
      <point x="950.0" y="179.0"/>
      <point x="1106.8" y="356.40000000000003"/>
      <point x="1145.3999999999999" y="587.8000000000001" type="curve" smooth="yes"/>
      <point x="1199.8" y="916.5999999999999"/>
      <point x="1005.8" y="1131.2"/>
      <point x="689.6" y="1131.2" type="curve" smooth="yes"/>
      <point x="372.0" y="1131.2"/>
      <point x="138.0" y="915.4000000000001"/>
      <point x="87.8" y="608.8" type="curve" smooth="yes"/>
      <point x="34.8" y="291.59999999999997"/>
      <point x="205.0" y="95.4"/>
      <point x="451.80000000000007" y="13.400000000000002" type="curve" smooth="yes"/>
      <point x="561.0" y="-32.400000000000006"/>
      <point x="599.8" y="-76.39999999999999"/>
      <point x="593.8" y="-116.0" type="curve" smooth="yes"/>
      <point x="583.2" y="-177.79999999999998"/>
      <point x="511.80000000000007" y="-222.0"/>
      <point x="410.6" y="-222.0" type="curve" smooth="yes"/>
      <point x="352.40000000000003" y="-222.0"/>
      <point x="261.8" y="-208.0"/>
      <point x="189.0" y="-175.8" type="curve"/>
      <point x="168.79999999999998" y="-401.2" type="line"/>
      <point x="254.79999999999998" y="-430.40000000000003"/>
      <point x="345.0" y="-449.2"/>
    </contour>
    <contour>
      <point x="537.6" y="235.8" type="curve"/>
      <point x="403.6" y="264.2"/>
      <point x="367.2" y="397.0"/>
      <point x="397.6" y="583.6" type="curve" smooth="yes"/>
      <point x="420.4" y="719.0"/>
      <point x="509.2" y="893.2"/>
      <point x="680.0" y="893.2" type="curve" smooth="yes"/>
      <point x="833.4000000000001" y="893.2"/>
      <point x="856.4000000000001" y="743.8000000000001"/>
      <point x="830.8000000000001" y="593.0" type="curve" smooth="yes"/>
      <point x="796.8000000000001" y="385.0"/>
      <point x="699.1999999999999" y="238.0"/>
    </contour>
  </outline>
</glyph>
<glyph name="Schwa" format="2">
  <advance height="2479.0" width="1603.2"/>
  <unicode hex="018F"/>
  <outline>
    <contour>
      <point x="717.6" y="-20.0" type="curve" smooth="yes"/>
      <point x="1128.3999999999999" y="-20.0"/>
      <point x="1451.0" y="261.40000000000003"/>
      <point x="1527.4" y="722.8000000000001" type="curve" smooth="yes"/>
      <point x="1609.4" y="1216.0"/>
      <point x="1346.6000000000001" y="1510.0"/>
      <point x="945.1999999999999" y="1510.0" type="curve" smooth="yes"/>
      <point x="615.8000000000001" y="1510.0"/>
      <point x="331.40000000000003" y="1303.0"/>
      <point x="241.4" y="1008.4" type="curve"/>
      <point x="561.2" y="1008.4" type="line"/>
      <point x="624.1999999999999" y="1148.0"/>
      <point x="756.1999999999999" y="1231.2"/>
      <point x="925.8" y="1231.2" type="curve" smooth="yes"/>
      <point x="1146.2" y="1231.2"/>
      <point x="1265.6000000000001" y="1066.2"/>
      <point x="1215.4" y="766.8" type="curve" smooth="yes"/>
      <point x="1162.2" y="445.0"/>
      <point x="973.5999999999999" y="258.4"/>
      <point x="728.6" y="258.4" type="curve" smooth="yes"/>
      <point x="524.4" y="258.4"/>
      <point x="425.40000000000003" y="368.8"/>
      <point x="456.0" y="559.2" type="curve"/>
      <point x="392.8" y="560.4" type="line"/>
      <point x="1340.4" y="560.4" type="line"/>
      <point x="1379.6000000000001" y="797.2" type="line"/>
      <point x="192.4" y="797.2" type="line"/>
      <point x="163.2" y="619.8" type="line" smooth="yes"/>
      <point x="97.6" y="227.39999999999998"/>
      <point x="333.59999999999997" y="-20.0"/>
    </contour>
  </outline>
</glyph>
<glyph name="Eopen" format="2">
  <advance height="2479.0" width="1371.8"/>
  <unicode hex="0190"/>
  <outline>
    <contour>
      <point x="592.4" y="-23.0" type="curve" smooth="yes"/>
      <point x="923.6" y="-23.0"/>
      <point x="1185.1999999999998" y="135.0"/>
      <point x="1230.6" y="404.0" type="curve"/>
      <point x="914.8000000000001" y="404.0" type="line"/>
      <point x="900.2" y="318.4"/>
      <point x="782.6" y="255.39999999999998"/>
      <point x="630.0" y="255.39999999999998" type="curve" smooth="yes"/>
      <point x="489.20000000000005" y="255.39999999999998"/>
      <point x="392.4" y="305.6"/>
      <point x="413.79999999999995" y="429.79999999999995" type="curve" smooth="yes"/>
      <point x="433.2" y="553.8"/>
      <point x="546.4" y="626.2"/>
      <point x="704.0" y="626.2" type="curve" smooth="yes"/>
      <point x="878.2" y="626.2" type="line"/>
      <point x="906.2" y="802.8" type="line"/>
      <point x="670.8000000000001" y="802.8" type="line"/>
      <point x="341.20000000000005" y="802.8"/>
      <point x="133.8" y="673.2"/>
      <point x="93.2" y="426.2" type="curve" smooth="yes"/>
      <point x="44.0" y="134.39999999999998"/>
      <point x="257.8" y="-23.0"/>
    </contour>
    <contour>
      <point x="671.6" y="709.2" type="curve"/>
      <point x="890.6" y="709.2" type="line"/>
      <point x="920.4" y="889.4" type="line"/>
      <point x="730.6" y="889.4" type="line" smooth="yes"/>
      <point x="587.8" y="889.4"/>
      <point x="525.8" y="956.6"/>
      <point x="540.8" y="1049.0" type="curve" smooth="yes"/>
      <point x="558.5999999999999" y="1157.6"/>
      <point x="667.4000000000001" y="1231.2"/>
      <point x="820.4" y="1231.2" type="curve" smooth="yes"/>
      <point x="945.8" y="1231.2"/>
      <point x="1018.0" y="1177.2"/>
      <point x="1004.8" y="1096.0" type="curve"/>
      <point x="1323.0" y="1096.0" type="line"/>
      <point x="1362.8" y="1341.6"/>
      <point x="1157.8" y="1510.0"/>
      <point x="819.0" y="1510.0" type="curve" smooth="yes"/>
      <point x="506.8" y="1510.0"/>
      <point x="271.2" y="1362.4"/>
      <point x="230.39999999999998" y="1118.2" type="curve" smooth="yes"/>
      <point x="188.79999999999998" y="865.4000000000001"/>
      <point x="373.40000000000003" y="709.6"/>
    </contour>
  </outline>
</glyph>
<glyph name="Fhook" format="2">
  <advance height="2479.0" width="1246.6"/>
  <unicode hex="0191"/>
  <anchor x="567.6" y="12.0" name="bottom"/>
  <anchor x="289.4" y="289.6" name="cross"/>
  <anchor x="866.8" y="1676.0" name="top"/>
  <outline>
    <contour>
      <point x="85.19999999999999" y="0.0" type="line"/>
      <point x="75.39999999999999" y="-67.4" type="line" smooth="yes"/>
      <point x="60.39999999999999" y="-156.6"/>
      <point x="-18.799999999999997" y="-176.8"/>
      <point x="-94.8" y="-176.8" type="curve" smooth="yes"/>
      <point x="-117.19999999999999" y="-176.8"/>
      <point x="-144.4" y="-177.4"/>
      <point x="-159.39999999999998" y="-174.4" type="curve"/>
      <point x="-198.6" y="-411.8" type="line"/>
      <point x="-165.4" y="-419.0"/>
      <point x="-101.2" y="-419.0"/>
      <point x="-68.60000000000001" y="-419.0" type="curve" smooth="yes"/>
      <point x="137.2" y="-419.0"/>
      <point x="340.4" y="-356.20000000000005"/>
      <point x="388.6" y="-68.6" type="curve" smooth="yes"/>
      <point x="400.6" y="0.0" type="line"/>
    </contour>
    <component base="F" xOffset="48.6"/>
  </outline>
</glyph>
<glyph name="florin" format="2">
  <advance height="2479.0" width="960.2"/>
  <unicode hex="0192"/>
  <outline>
    <contour>
      <point x="909.4" y="1082.0" type="line"/>
      <point x="691.6" y="1082.0" type="line"/>
      <point x="705.6" y="1173.8" type="line" smooth="yes"/>
      <point x="721.8" y="1265.2"/>
      <point x="785.4" y="1311.8"/>
      <point x="878.4" y="1311.8" type="curve" smooth="yes"/>
      <point x="926.6" y="1311.8"/>
      <point x="952.6" y="1307.6"/>
      <point x="978.0" y="1301.6" type="curve"/>
      <point x="1046.2" y="1535.4" type="line"/>
      <point x="998.0" y="1546.8"/>
      <point x="939.8" y="1556.0"/>
      <point x="876.6" y="1556.0" type="curve" smooth="yes"/>
      <point x="625.8" y="1556.0"/>
      <point x="447.2" y="1423.2"/>
      <point x="405.0" y="1173.8" type="curve" smooth="yes"/>
      <point x="391.0" y="1082.0" type="line"/>
      <point x="222.6" y="1082.0" type="line"/>
      <point x="186.4" y="862.6" type="line"/>
      <point x="354.40000000000003" y="862.6" type="line"/>
      <point x="208.00000000000003" y="-25.6" type="line" smooth="yes"/>
      <point x="192.60000000000002" y="-117.60000000000001"/>
      <point x="154.8" y="-175.0"/>
      <point x="63.59999999999999" y="-175.0" type="curve" smooth="yes"/>
      <point x="37.8" y="-175.0"/>
      <point x="-6.400000000000004" y="-170.2"/>
      <point x="-28.800000000000004" y="-163.60000000000002" type="curve"/>
      <point x="-83.6" y="-404.0" type="line"/>
      <point x="-29.400000000000006" y="-416.0"/>
      <point x="13.400000000000011" y="-419.0"/>
      <point x="63.39999999999998" y="-419.0" type="curve" smooth="yes"/>
      <point x="303.0" y="-419.0"/>
      <point x="466.20000000000005" y="-281.4"/>
      <point x="508.6" y="-25.6" type="curve" smooth="yes"/>
      <point x="655.4" y="862.6" type="line"/>
      <point x="872.8" y="862.6" type="line"/>
    </contour>
  </outline>
</glyph>
<glyph name="Ghook" format="2">
  <advance height="2479.0" width="1710.2"/>
  <unicode hex="0193"/>
  <anchor x="697.6" y="3.5999999999999996" name="bottom"/>
  <anchor x="977.8000000000001" y="1676.0" name="top"/>
  <outline>
    <contour>
      <point x="1511.6" y="1008.4" type="line"/>
      <point x="1550.0" y="1235.0" type="line" smooth="yes"/>
      <point x="1570.2" y="1356.4"/>
      <point x="1665.0" y="1381.2"/>
      <point x="1767.2" y="1381.2" type="curve" smooth="yes"/>
      <point x="1795.8000000000002" y="1381.2"/>
      <point x="1823.0" y="1376.4"/>
      <point x="1851.0" y="1373.8" type="curve"/>
      <point x="1891.4" y="1620.2" type="line"/>
      <point x="1844.3999999999999" y="1632.8"/>
      <point x="1797.4" y="1638.2"/>
      <point x="1748.0" y="1638.2" type="curve" smooth="yes"/>
      <point x="1505.0" y="1638.2"/>
      <point x="1277.0" y="1495.4"/>
      <point x="1230.4" y="1235.0" type="curve" smooth="yes"/>
      <point x="1190.6" y="1008.4" type="line"/>
    </contour>
    <component base="G"/>
  </outline>
</glyph>
<glyph name="Gamma-latin" format="2">
  <advance height="2479.0" width="1525.4"/>
  <unicode hex="0194"/>
  <outline>
    <contour>
      <point x="223.0" y="1489.0" type="line"/>
      <point x="661.0" y="146.6" type="line" smooth="yes"/>
      <point x="699.5999999999999" y="23.0"/>
      <point x="716.8" y="-74.0"/>
      <point x="705.8" y="-148.8" type="curve" smooth="yes"/>
      <point x="698.5999999999999" y="-195.4"/>
      <point x="673.2" y="-223.2"/>
      <point x="635.6" y="-223.2" type="curve" smooth="yes"/>
      <point x="597.4" y="-223.2"/>
      <point x="580.4" y="-196.0"/>
      <point x="586.6" y="-150.0" type="curve" smooth="yes"/>
      <point x="597.6" y="-75.20000000000002"/>
      <point x="652.4" y="22.39999999999999"/>
      <point x="732.1999999999999" y="146.6" type="curve" smooth="yes"/>
      <point x="1612.8" y="1489.0" type="line"/>
      <point x="1254.3999999999999" y="1489.0" type="line"/>
      <point x="662.5999999999999" y="525.6" type="line" smooth="yes"/>
      <point x="355.0" y="34.199999999999996"/>
      <point x="288.0" y="-69.0"/>
      <point x="272.8" y="-163.2" type="curve" smooth="yes"/>
      <point x="243.8" y="-338.2"/>
      <point x="374.59999999999997" y="-442.0"/>
      <point x="597.6" y="-442.0" type="curve" smooth="yes"/>
      <point x="818.8" y="-442.0"/>
      <point x="979.8000000000001" y="-331.0"/>
      <point x="1007.0000000000001" y="-169.8" type="curve" smooth="yes"/>
      <point x="1026.0" y="-55.2"/>
      <point x="963.9999999999999" y="153.0"/>
      <point x="853.1999999999999" y="525.0" type="curve" smooth="yes"/>
      <point x="579.6" y="1489.0" type="line"/>
    </contour>
  </outline>
</glyph>
<glyph name="hv" format="2">
  <advance height="2479.0" width="2032.2"/>
  <unicode hex="0195"/>
  <outline>
    <contour>
      <point x="32.8" y="0.0" type="line"/>
      <point x="342.2" y="0.0" type="line"/>
      <point x="449.2" y="645.6" type="line" smooth="yes"/>
      <point x="474.6" y="790.2"/>
      <point x="576.8" y="874.4"/>
      <point x="702.8" y="874.4" type="curve" smooth="yes"/>
      <point x="828.0" y="874.4"/>
      <point x="889.0" y="793.8"/>
      <point x="866.6" y="656.0" type="curve" smooth="yes"/>
      <point x="849.8" y="559.0" type="line"/>
      <point x="1159.8" y="559.0" type="line"/>
      <point x="1185.8" y="711.8" type="line" smooth="yes"/>
      <point x="1228.6" y="973.4"/>
      <point x="1101.2" y="1132.0"/>
      <point x="869.4" y="1132.0" type="curve" smooth="yes"/>
      <point x="698.4000000000001" y="1132.0"/>
      <point x="571.2" y="1051.8000000000002"/>
      <point x="499.4" y="920.2" type="curve"/>
      <point x="487.2" y="920.2" type="line"/>
      <point x="580.8" y="1489.0" type="line"/>
      <point x="279.8" y="1489.0" type="line"/>
    </contour>
    <contour>
      <point x="1204.8" y="-20.0" type="curve" smooth="yes"/>
      <point x="1606.8" y="-20.0"/>
      <point x="1848.6" y="310.59999999999997"/>
      <point x="1962.1999999999998" y="993.6" type="curve" smooth="yes"/>
      <point x="1983.3999999999999" y="1117.0" type="line"/>
      <point x="1673.8" y="1117.0" type="line"/>
      <point x="1653.2" y="993.6" type="line" smooth="yes"/>
      <point x="1568.0" y="483.4"/>
      <point x="1431.8" y="235.39999999999998"/>
      <point x="1260.1999999999998" y="235.39999999999998" type="curve" smooth="yes"/>
      <point x="1181.8" y="235.39999999999998"/>
      <point x="1113.2" y="283.8"/>
      <point x="1139.2" y="435.4" type="curve" smooth="yes"/>
      <point x="1159.8" y="559.0" type="line"/>
      <point x="849.8" y="559.0" type="line"/>
      <point x="829.8" y="435.4" type="line" smooth="yes"/>
      <point x="782.0" y="146.0"/>
      <point x="918.6" y="-20.0"/>
    </contour>
  </outline>
</glyph>
<glyph name="Khook" format="2">
  <advance height="2479.0" width="1493.0"/>
  <unicode hex="0198"/>
  <outline>
    <contour>
      <point x="36.599999999999994" y="0.0" type="line"/>
      <point x="351.4" y="0.0" type="line"/>
      <point x="415.59999999999997" y="385.2" type="line"/>
      <point x="629.4" y="578.6" type="line"/>
      <point x="972.0" y="0.0" type="line"/>
      <point x="1349.0" y="0.0" type="line"/>
      <point x="866.5999999999999" y="801.4" type="line"/>
      <point x="1279.6" y="1167.8" type="line" smooth="yes"/>
      <point x="1356.4" y="1234.8"/>
      <point x="1413.6" y="1261.2"/>
      <point x="1487.8000000000002" y="1218.4" type="curve"/>
      <point x="1625.8" y="1441.2" type="line"/>
      <point x="1456.0" y="1551.6"/>
      <point x="1266.6" y="1524.0"/>
      <point x="1087.0" y="1365.4" type="curve" smooth="yes"/>
      <point x="511.40000000000003" y="848.2" type="line"/>
      <point x="492.59999999999997" y="848.2" type="line"/>
      <point x="599.0" y="1489.0" type="line"/>
      <point x="284.0" y="1489.0" type="line"/>
    </contour>
  </outline>
</glyph>
<glyph name="khook" format="2">
  <advance height="2479.0" width="1181.6"/>
  <unicode hex="0199"/>
  <outline>
    <contour>
      <point x="742.8" y="0.0" type="line"/>
      <point x="1082.4" y="0.0" type="line"/>
      <point x="742.8" y="640.0" type="line"/>
      <point x="1242.4" y="1117.0" type="line"/>
      <point x="881.6" y="1117.0" type="line"/>
      <point x="476.2" y="725.6" type="line"/>
      <point x="461.2" y="725.6" type="line"/>
      <point x="520.4" y="1085.4" type="line"/>
      <point x="210.4" y="1085.4" type="line"/>
      <point x="31.0" y="0.0" type="line"/>
      <point x="340.4" y="0.0" type="line"/>
      <point x="391.2" y="301.2" type="line"/>
      <point x="518.2" y="419.0" type="line"/>
    </contour>
    <contour>
      <point x="501.79999999999995" y="973.8" type="line"/>
      <point x="532.0" y="1159.6" type="line" smooth="yes"/>
      <point x="548.2" y="1246.6"/>
      <point x="628.6" y="1268.6"/>
      <point x="707.1999999999999" y="1268.6" type="curve" smooth="yes"/>
      <point x="733.6" y="1268.6"/>
      <point x="759.0" y="1266.0"/>
      <point x="782.4" y="1263.0" type="curve"/>
      <point x="821.0" y="1499.2" type="line"/>
      <point x="784.8" y="1504.6"/>
      <point x="729.4" y="1510.0"/>
      <point x="664.4" y="1510.0" type="curve" smooth="yes"/>
      <point x="475.6" y="1510.0"/>
      <point x="271.20000000000005" y="1447.6"/>
      <point x="223.0" y="1159.6" type="curve" smooth="yes"/>
      <point x="192.4" y="973.8" type="line"/>
    </contour>
  </outline>
</glyph>
<glyph name="lambdastroke" format="2">
  <advance height="2479.0" width="1244.0"/>
  <unicode hex="019B"/>
  <outline>
    <contour>
      <point x="275.40000000000003" y="960.0" type="line"/>
      <point x="938.2" y="1165.2" type="line"/>
      <point x="972.0" y="1361.2" type="line"/>
      <point x="307.6" y="1158.4" type="line"/>
    </contour>
    <component base="lambda"/>
  </outline>
</glyph>
<glyph name="Mturned" format="2">
  <advance height="2479.0" width="1930.4"/>
  <unicode hex="019C"/>
  <outline>
    <contour>
      <point x="431.20000000000005" y="-22.4" type="curve" smooth="yes"/>
      <point x="728.6" y="-22.4"/>
      <point x="887.4000000000001" y="188.4"/>
      <point x="938.6" y="495.8" type="curve"/>
      <point x="841.2" y="513.2" type="line"/>
      <point x="815.4" y="354.2"/>
      <point x="721.8" y="224.8"/>
      <point x="554.6" y="224.8" type="curve" smooth="yes"/>
      <point x="452.2" y="224.8"/>
      <point x="396.0" y="271.8"/>
      <point x="419.79999999999995" y="414.40000000000003" type="curve" smooth="yes"/>
      <point x="598.0" y="1489.0" type="line"/>
      <point x="283.0" y="1489.0" type="line"/>
      <point x="108.19999999999999" y="434.8" type="line" smooth="yes"/>
      <point x="54.8" y="109.8"/>
      <point x="195.6" y="-22.4"/>
    </contour>
    <contour>
      <point x="1109.8" y="-22.4" type="curve" smooth="yes"/>
      <point x="1395.0" y="-22.4"/>
      <point x="1557.0" y="193.8"/>
      <point x="1607.3999999999999" y="495.8" type="curve"/>
      <point x="1513.6" y="513.2" type="line"/>
      <point x="1487.4" y="356.0"/>
      <point x="1395.3999999999999" y="224.8"/>
      <point x="1227.8" y="224.8" type="curve" smooth="yes"/>
      <point x="1125.3999999999999" y="224.8"/>
      <point x="1070.2" y="271.8"/>
      <point x="1093.6000000000001" y="414.40000000000003" type="curve"/>
      <point x="1271.6000000000001" y="1489.0" type="line"/>
      <point x="956.8000000000001" y="1489.0" type="line"/>
      <point x="782.4000000000001" y="434.8" type="line"/>
      <point x="727.4000000000001" y="106.8"/>
      <point x="889.6" y="-22.4"/>
    </contour>
    <contour>
      <point x="1393.0" y="0.0" type="line"/>
      <point x="1708.0" y="0.0" type="line"/>
      <point x="1954.4" y="1489.0" type="line"/>
      <point x="1640.0" y="1489.0" type="line"/>
    </contour>
  </outline>
</glyph>
<glyph name="Nhookleft" format="2">
  <advance height="2479.0" width="1542.6000000000001"/>
  <unicode hex="019D"/>
  <anchor x="697.4" y="0.0" name="bottom"/>
  <anchor x="1359.4" y="0.0" name="right"/>
  <anchor x="976.4" y="1676.0" name="top"/>
  <outline>
    <contour>
      <point x="73.4" y="0.0" type="line"/>
      <point x="61.800000000000004" y="-67.4" type="line" smooth="yes"/>
      <point x="47.400000000000006" y="-155.0"/>
      <point x="-30.399999999999995" y="-176.8"/>
      <point x="-111.60000000000001" y="-176.8" type="curve" smooth="yes"/>
      <point x="-130.0" y="-176.8"/>
      <point x="-157.2" y="-177.4"/>
      <point x="-174.20000000000002" y="-174.4" type="curve"/>
      <point x="-213.4" y="-411.8" type="line"/>
      <point x="-178.20000000000002" y="-418.2"/>
      <point x="-105.2" y="-420.2"/>
      <point x="-62.599999999999994" y="-420.2" type="curve" smooth="yes"/>
      <point x="128.0" y="-420.2"/>
      <point x="323.2" y="-363.20000000000005"/>
      <point x="375.0" y="-68.6" type="curve" smooth="yes"/>
      <point x="387.79999999999995" y="0.0" type="line"/>
    </contour>
    <component base="N" xOffset="36.8"/>
  </outline>
</glyph>
<glyph name="Ohorn" format="2">
  <advance height="2479.0" width="1665.4"/>
  <unicode hex="01A0"/>
  <anchor x="711.8" y="2.4000000000000004" name="bottom"/>
  <anchor x="895.0" y="3.5999999999999996" name="ogonek"/>
  <anchor x="327.2" y="1489.0" name="tonos"/>
  <anchor x="985.8" y="1676.0" name="top"/>
  <outline>
    <contour>
      <point x="1608.2" y="1562.2" type="line"/>
      <point x="1577.8" y="1381.2"/>
      <point x="1517.0" y="1275.0"/>
      <point x="1375.6" y="1275.0" type="curve"/>
      <point x="1349.0" y="1115.6" type="line"/>
      <point x="1615.4" y="1115.6"/>
      <point x="1760.8" y="1279.2"/>
      <point x="1807.8" y="1562.2" type="curve"/>
    </contour>
    <component base="O"/>
  </outline>
</glyph>
<glyph name="ohorn" format="2">
  <advance height="2479.0" width="1295.8"/>
  <unicode hex="01A1"/>
  <anchor x="535.8" y="0.0" name="bottom"/>
  <anchor x="686.6" y="0.0" name="ogonek"/>
  <anchor x="751.1999999999999" y="1303.0" name="top"/>
  <outline>
    <contour>
      <point x="1214.0" y="1181.8" type="line"/>
      <point x="1186.8" y="1017.0"/>
      <point x="1138.0" y="915.6"/>
      <point x="983.4" y="915.6" type="curve"/>
      <point x="961.2" y="791.8" type="line"/>
      <point x="1222.3999999999999" y="791.8"/>
      <point x="1358.0" y="936.8"/>
      <point x="1398.6" y="1181.8" type="curve"/>
    </contour>
    <component base="o"/>
  </outline>
</glyph>
<glyph name="Oi" format="2">
  <advance height="2479.0" width="1917.0"/>
  <unicode hex="01A2"/>
  <outline>
    <contour>
      <point x="1379.8000000000002" y="883.2" type="line" name="hr00"/>
      <point x="1073.8000000000002" y="883.2" type="line"/>
      <point x="976.8" y="304.0" type="line"/>
      <point x="922.5999999999999" y="262.2"/>
      <point x="833.0" y="232.6"/>
      <point x="728.8" y="232.6" type="curve" smooth="yes"/>
      <point x="469.40000000000003" y="232.6"/>
      <point x="399.8" y="407.4"/>
      <point x="446.2" y="684.6" type="curve" smooth="yes"/>
      <point x="462.6" y="788.6" type="line"/>
      <point x="141.4" y="785.6" type="line"/>
      <point x="124.39999999999999" y="684.6" type="line" smooth="yes"/>
      <point x="51.199999999999996" y="244.2"/>
      <point x="253.99999999999997" y="-20.0"/>
      <point x="674.2" y="-20.0" type="curve" smooth="yes"/>
      <point x="939.5999999999999" y="-20.0"/>
      <point x="1161.6" y="81.6"/>
      <point x="1263.6000000000001" y="185.4" type="curve"/>
    </contour>
    <contour>
      <point x="1449.2" y="1304.0" type="line"/>
      <point x="1382.8" y="1407.2"/>
      <point x="1197.6" y="1510.0"/>
      <point x="934.0" y="1510.0" type="curve" smooth="yes"/>
      <point x="510.6" y="1510.0"/>
      <point x="217.4" y="1250.2"/>
      <point x="144.20000000000002" y="804.8" type="curve" smooth="yes"/>
      <point x="125.8" y="696.8" type="line"/>
      <point x="448.0" y="695.0" type="line"/>
      <point x="465.8" y="804.8" type="line" smooth="yes"/>
      <point x="513.8" y="1095.4"/>
      <point x="633.6" y="1255.8"/>
      <point x="901.0" y="1255.8" type="curve" smooth="yes"/>
      <point x="993.4" y="1255.8"/>
      <point x="1079.4" y="1232.6"/>
      <point x="1123.6000000000001" y="1185.6" type="curve"/>
      <point x="1028.8000000000002" y="614.2" type="line"/>
      <point x="1336.0" y="617.8" type="line"/>
    </contour>
    <contour>
      <point x="1938.0" y="1489.0" type="line"/>
      <point x="1708.6" y="1489.0" type="line"/>
      <point x="1284.6000000000001" y="1309.4" type="line"/>
      <point x="1230.6000000000001" y="982.0" type="line"/>
      <point x="1574.2" y="1125.8" type="line"/>
      <point x="1318.4" y="-419.0" type="line"/>
      <point x="1622.6" y="-419.0" type="line"/>
    </contour>
  </outline>
</glyph>
<glyph name="oi" format="2">
  <advance height="2479.0" width="1558.2"/>
  <unicode hex="01A3"/>
  <outline>
    <contour>
      <point x="534.0" y="225.2" type="curve" smooth="yes"/>
      <point x="371.0" y="225.2"/>
      <point x="352.40000000000003" y="361.2"/>
      <point x="378.4" y="527.6" type="curve" smooth="yes"/>
      <point x="382.59999999999997" y="554.4" type="line" smooth="yes"/>
      <point x="410.2" y="736.0"/>
      <point x="468.4" y="888.0"/>
      <point x="637.8000000000001" y="888.0" type="curve" smooth="yes"/>
      <point x="703.6" y="888.0"/>
      <point x="742.8" y="867.0"/>
      <point x="767.4000000000001" y="829.0" type="curve"/>
      <point x="726.8000000000001" y="585.8" type="line"/>
      <point x="1029.1999999999998" y="564.8" type="line"/>
      <point x="1082.3999999999999" y="884.6" type="line"/>
      <point x="1038.2" y="995.0"/>
      <point x="907.8" y="1132.0"/>
      <point x="689.0" y="1132.0" type="curve" smooth="yes"/>
      <point x="342.6" y="1132.0"/>
      <point x="131.6" y="891.4"/>
      <point x="78.39999999999999" y="554.4" type="curve" smooth="yes"/>
      <point x="74.19999999999999" y="527.6" type="line" smooth="yes"/>
      <point x="25.4" y="218.2"/>
      <point x="154.4" y="-20.0"/>
      <point x="495.4" y="-20.0" type="curve" smooth="yes"/>
      <point x="734.0" y="-20.0"/>
      <point x="872.6" y="80.6"/>
      <point x="968.8" y="203.0" type="curve"/>
      <point x="1039.3999999999999" y="629.8" type="line"/>
      <point x="734.0" y="629.8" type="line"/>
      <point x="675.0" y="270.6" type="line"/>
      <point x="639.1999999999999" y="241.0"/>
      <point x="593.1999999999999" y="225.2"/>
    </contour>
    <contour>
      <point x="1530.2" y="1117.0" type="line"/>
      <point x="1321.0" y="1117.0" type="line"/>
      <point x="961.8000000000001" y="971.0" type="line"/>
      <point x="913.4000000000001" y="679.6" type="line"/>
      <point x="1168.4" y="774.6" type="line"/>
      <point x="972.0000000000001" y="-419.0" type="line"/>
      <point x="1278.0" y="-419.0" type="line"/>
    </contour>
  </outline>
</glyph>
<glyph name="Phook" format="2">
  <advance height="2479.0" width="1745.3999999999999"/>
  <unicode hex="01A4"/>
  <anchor x="678.2" y="1489.0" name="tonos"/>
  <anchor x="1260.6000000000001" y="1676.0" name="top"/>
  <outline>
    <contour>
      <point x="419.8" y="959.6" type="line"/>
      <point x="434.2" y="1045.8" type="line" smooth="yes"/>
      <point x="448.20000000000005" y="1135.8"/>
      <point x="490.2" y="1231.8"/>
      <point x="611.5999999999999" y="1231.8" type="curve" smooth="yes"/>
      <point x="827.4" y="1231.8" type="line"/>
      <point x="869.0" y="1489.0" type="line"/>
      <point x="652.0" y="1489.0" type="line" smooth="yes"/>
      <point x="387.20000000000005" y="1489.0"/>
      <point x="199.8" y="1339.8"/>
      <point x="163.2" y="1105.4" type="curve" smooth="yes"/>
      <point x="139.2" y="959.6" type="line"/>
    </contour>
    <component base="P" xOffset="420.2"/>
  </outline>
</glyph>
<glyph name="phook" format="2">
  <advance height="2479.0" width="1295.4"/>
  <unicode hex="01A5"/>
  <anchor x="122.59999999999998" y="-408.2" name="bottom"/>
  <anchor x="1158.4" y="-484.2" name="bottom0315"/>
  <anchor x="162.00000000000003" y="-163.0" name="cross"/>
  <anchor x="825.4" y="1303.0" name="top"/>
  <outline>
    <contour>
      <point x="522.2" y="1117.0" type="line"/>
      <point x="531.4000000000001" y="1178.0"/>
      <point x="571.6" y="1205.3999999999999"/>
      <point x="657.2" y="1203.6" type="curve" smooth="yes"/>
      <point x="697.4000000000001" y="1201.8000000000002"/>
      <point x="737.2" y="1193.8"/>
      <point x="752.8" y="1189.6" type="curve"/>
      <point x="788.4" y="1395.8" type="line"/>
      <point x="759.6" y="1403.6000000000001"/>
      <point x="704.5999999999999" y="1413.2"/>
      <point x="633.0" y="1413.2" type="curve" smooth="yes"/>
      <point x="381.0" y="1413.2"/>
      <point x="250.6" y="1326.6"/>
      <point x="217.0" y="1117.0" type="curve"/>
    </contour>
    <component base="p"/>
  </outline>
</glyph>
